<?xml version="1.0" standalone="no"?>
<!DOCTYPE svg PUBLIC "-//W3C//DTD SVG 1.1//EN" "http://www.w3.org/Graphics/SVG/1.1/DTD/svg11.dtd" >
<svg xmlns="http://www.w3.org/2000/svg">
<metadata></metadata>
<defs>
<font id="passwordregular" horiz-adv-x="996" >
<font-face units-per-em="2048" ascent="1638" descent="-410" />
<missing-glyph horiz-adv-x="569" />
<glyph unicode="&#x651;&#x64b;" d="M87 656q0 166 120.5 283t289.5 117q170 0 290.5 -117t120.5 -283t-120.5 -283.5t-290.5 -117.5q-169 0 -289.5 117.5t-120.5 283.5z" />
<glyph unicode="&#x651;&#x64c;" arabic-form="isolated" d="M87 656q0 166 120.5 283t289.5 117q170 0 290.5 -117t120.5 -283t-120.5 -283.5t-290.5 -117.5q-169 0 -289.5 117.5t-120.5 283.5z" />
<glyph unicode="&#x651;&#x64d;" arabic-form="isolated" d="M87 656q0 166 120.5 283t289.5 117q170 0 290.5 -117t120.5 -283t-120.5 -283.5t-290.5 -117.5q-169 0 -289.5 117.5t-120.5 283.5z" />
<glyph unicode="&#x651;&#x64e;" arabic-form="isolated" d="M87 656q0 166 120.5 283t289.5 117q170 0 290.5 -117t120.5 -283t-120.5 -283.5t-290.5 -117.5q-169 0 -289.5 117.5t-120.5 283.5z" />
<glyph unicode="&#x651;&#x64f;" arabic-form="isolated" d="M87 656q0 166 120.5 283t289.5 117q170 0 290.5 -117t120.5 -283t-120.5 -283.5t-290.5 -117.5q-169 0 -289.5 117.5t-120.5 283.5z" />
<glyph unicode="&#x651;&#x650;" arabic-form="isolated" d="M87 656q0 166 120.5 283t289.5 117q170 0 290.5 -117t120.5 -283t-120.5 -283.5t-290.5 -117.5q-169 0 -289.5 117.5t-120.5 283.5z" />
<glyph unicode="&#xfedf;&#xfee0;&#xfeea;" arabic-form="isolated" d="M87 656q0 166 120.5 283t289.5 117q170 0 290.5 -117t120.5 -283t-120.5 -283.5t-290.5 -117.5q-169 0 -289.5 117.5t-120.5 283.5z" />
<glyph unicode="&#xfedf;&#xfe82;" arabic-form="isolated" d="M87 656q0 166 120.5 283t289.5 117q170 0 290.5 -117t120.5 -283t-120.5 -283.5t-290.5 -117.5q-169 0 -289.5 117.5t-120.5 283.5z" />
<glyph unicode="&#xfee0;&#xfe82;" arabic-form="final" d="M87 656q0 166 120.5 283t289.5 117q170 0 290.5 -117t120.5 -283t-120.5 -283.5t-290.5 -117.5q-169 0 -289.5 117.5t-120.5 283.5z" />
<glyph unicode="&#xfedf;&#xfe84;" arabic-form="isolated" d="M87 656q0 166 120.5 283t289.5 117q170 0 290.5 -117t120.5 -283t-120.5 -283.5t-290.5 -117.5q-169 0 -289.5 117.5t-120.5 283.5z" />
<glyph unicode="&#xfee0;&#xfe84;" arabic-form="final" d="M87 656q0 166 120.5 283t289.5 117q170 0 290.5 -117t120.5 -283t-120.5 -283.5t-290.5 -117.5q-169 0 -289.5 117.5t-120.5 283.5z" />
<glyph unicode="&#xfedf;&#xfe88;" arabic-form="isolated" d="M87 656q0 166 120.5 283t289.5 117q170 0 290.5 -117t120.5 -283t-120.5 -283.5t-290.5 -117.5q-169 0 -289.5 117.5t-120.5 283.5z" />
<glyph unicode="&#xfee0;&#xfe88;" arabic-form="final" d="M87 656q0 166 120.5 283t289.5 117q170 0 290.5 -117t120.5 -283t-120.5 -283.5t-290.5 -117.5q-169 0 -289.5 117.5t-120.5 283.5z" />
<glyph unicode="&#xfedf;&#xfe8e;" arabic-form="isolated" d="M87 656q0 166 120.5 283t289.5 117q170 0 290.5 -117t120.5 -283t-120.5 -283.5t-290.5 -117.5q-169 0 -289.5 117.5t-120.5 283.5z" />
<glyph unicode="&#xfee0;&#xfe8e;" arabic-form="final" d="M87 656q0 166 120.5 283t289.5 117q170 0 290.5 -117t120.5 -283t-120.5 -283.5t-290.5 -117.5q-169 0 -289.5 117.5t-120.5 283.5z" />
<glyph unicode="&#xfedf;&#xfb51;" d="M87 656q0 166 120.5 283t289.5 117q170 0 290.5 -117t120.5 -283t-120.5 -283.5t-290.5 -117.5q-169 0 -289.5 117.5t-120.5 283.5z" />
<glyph unicode="&#xfee0;&#xfb51;" d="M87 656q0 166 120.5 283t289.5 117q170 0 290.5 -117t120.5 -283t-120.5 -283.5t-290.5 -117.5q-169 0 -289.5 117.5t-120.5 283.5z" />
<glyph unicode="&#x66e;" d="M87 656q0 166 120.5 283t289.5 117q170 0 290.5 -117t120.5 -283t-120.5 -283.5t-290.5 -117.5q-169 0 -289.5 117.5t-120.5 283.5z" />
<glyph unicode="&#x66f;" d="M87 656q0 166 120.5 283t289.5 117q170 0 290.5 -117t120.5 -283t-120.5 -283.5t-290.5 -117.5q-169 0 -289.5 117.5t-120.5 283.5z" />
<glyph unicode="&#x66f;" d="M87 656q0 166 120.5 283t289.5 117q170 0 290.5 -117t120.5 -283t-120.5 -283.5t-290.5 -117.5q-169 0 -289.5 117.5t-120.5 283.5z" />
<glyph unicode="&#x672;" d="M87 656q0 166 120.5 283t289.5 117q170 0 290.5 -117t120.5 -283t-120.5 -283.5t-290.5 -117.5q-169 0 -289.5 117.5t-120.5 283.5z" />
<glyph unicode="&#x673;" d="M87 656q0 166 120.5 283t289.5 117q170 0 290.5 -117t120.5 -283t-120.5 -283.5t-290.5 -117.5q-169 0 -289.5 117.5t-120.5 283.5z" />
<glyph unicode="&#x675;" d="M87 656q0 166 120.5 283t289.5 117q170 0 290.5 -117t120.5 -283t-120.5 -283.5t-290.5 -117.5q-169 0 -289.5 117.5t-120.5 283.5z" />
<glyph unicode="&#x676;" d="M87 656q0 166 120.5 283t289.5 117q170 0 290.5 -117t120.5 -283t-120.5 -283.5t-290.5 -117.5q-169 0 -289.5 117.5t-120.5 283.5z" />
<glyph unicode="&#x677;" d="M87 656q0 166 120.5 283t289.5 117q170 0 290.5 -117t120.5 -283t-120.5 -283.5t-290.5 -117.5q-169 0 -289.5 117.5t-120.5 283.5z" />
<glyph unicode="&#x678;" d="M87 656q0 166 120.5 283t289.5 117q170 0 290.5 -117t120.5 -283t-120.5 -283.5t-290.5 -117.5q-169 0 -289.5 117.5t-120.5 283.5z" />
<glyph unicode="&#x67c;" d="M87 656q0 166 120.5 283t289.5 117q170 0 290.5 -117t120.5 -283t-120.5 -283.5t-290.5 -117.5q-169 0 -289.5 117.5t-120.5 283.5z" />
<glyph unicode="&#x67c;" d="M87 656q0 166 120.5 283t289.5 117q170 0 290.5 -117t120.5 -283t-120.5 -283.5t-290.5 -117.5q-169 0 -289.5 117.5t-120.5 283.5z" />
<glyph unicode="&#x67c;" d="M87 656q0 166 120.5 283t289.5 117q170 0 290.5 -117t120.5 -283t-120.5 -283.5t-290.5 -117.5q-169 0 -289.5 117.5t-120.5 283.5z" />
<glyph unicode="&#x67d;" d="M87 656q0 166 120.5 283t289.5 117q170 0 290.5 -117t120.5 -283t-120.5 -283.5t-290.5 -117.5q-169 0 -289.5 117.5t-120.5 283.5z" />
<glyph unicode="&#x67d;" d="M87 656q0 166 120.5 283t289.5 117q170 0 290.5 -117t120.5 -283t-120.5 -283.5t-290.5 -117.5q-169 0 -289.5 117.5t-120.5 283.5z" />
<glyph unicode="&#x67d;" d="M87 656q0 166 120.5 283t289.5 117q170 0 290.5 -117t120.5 -283t-120.5 -283.5t-290.5 -117.5q-169 0 -289.5 117.5t-120.5 283.5z" />
<glyph unicode="&#x681;" d="M87 656q0 166 120.5 283t289.5 117q170 0 290.5 -117t120.5 -283t-120.5 -283.5t-290.5 -117.5q-169 0 -289.5 117.5t-120.5 283.5z" />
<glyph unicode="&#x681;" d="M87 656q0 166 120.5 283t289.5 117q170 0 290.5 -117t120.5 -283t-120.5 -283.5t-290.5 -117.5q-169 0 -289.5 117.5t-120.5 283.5z" />
<glyph unicode="&#x681;" d="M87 656q0 166 120.5 283t289.5 117q170 0 290.5 -117t120.5 -283t-120.5 -283.5t-290.5 -117.5q-169 0 -289.5 117.5t-120.5 283.5z" />
<glyph unicode="&#x682;" d="M87 656q0 166 120.5 283t289.5 117q170 0 290.5 -117t120.5 -283t-120.5 -283.5t-290.5 -117.5q-169 0 -289.5 117.5t-120.5 283.5z" />
<glyph unicode="&#x682;" d="M87 656q0 166 120.5 283t289.5 117q170 0 290.5 -117t120.5 -283t-120.5 -283.5t-290.5 -117.5q-169 0 -289.5 117.5t-120.5 283.5z" />
<glyph unicode="&#x682;" d="M87 656q0 166 120.5 283t289.5 117q170 0 290.5 -117t120.5 -283t-120.5 -283.5t-290.5 -117.5q-169 0 -289.5 117.5t-120.5 283.5z" />
<glyph unicode="&#x685;" d="M87 656q0 166 120.5 283t289.5 117q170 0 290.5 -117t120.5 -283t-120.5 -283.5t-290.5 -117.5q-169 0 -289.5 117.5t-120.5 283.5z" />
<glyph unicode="&#x685;" d="M87 656q0 166 120.5 283t289.5 117q170 0 290.5 -117t120.5 -283t-120.5 -283.5t-290.5 -117.5q-169 0 -289.5 117.5t-120.5 283.5z" />
<glyph unicode="&#x685;" d="M87 656q0 166 120.5 283t289.5 117q170 0 290.5 -117t120.5 -283t-120.5 -283.5t-290.5 -117.5q-169 0 -289.5 117.5t-120.5 283.5z" />
<glyph unicode="&#x689;" d="M87 656q0 166 120.5 283t289.5 117q170 0 290.5 -117t120.5 -283t-120.5 -283.5t-290.5 -117.5q-169 0 -289.5 117.5t-120.5 283.5z" />
<glyph unicode="&#x68a;" d="M87 656q0 166 120.5 283t289.5 117q170 0 290.5 -117t120.5 -283t-120.5 -283.5t-290.5 -117.5q-169 0 -289.5 117.5t-120.5 283.5z" />
<glyph unicode="&#x68b;" d="M87 656q0 166 120.5 283t289.5 117q170 0 290.5 -117t120.5 -283t-120.5 -283.5t-290.5 -117.5q-169 0 -289.5 117.5t-120.5 283.5z" />
<glyph unicode="&#x68f;" d="M87 656q0 166 120.5 283t289.5 117q170 0 290.5 -117t120.5 -283t-120.5 -283.5t-290.5 -117.5q-169 0 -289.5 117.5t-120.5 283.5z" />
<glyph unicode="&#x690;" d="M87 656q0 166 120.5 283t289.5 117q170 0 290.5 -117t120.5 -283t-120.5 -283.5t-290.5 -117.5q-169 0 -289.5 117.5t-120.5 283.5z" />
<glyph unicode="&#x692;" d="M87 656q0 166 120.5 283t289.5 117q170 0 290.5 -117t120.5 -283t-120.5 -283.5t-290.5 -117.5q-169 0 -289.5 117.5t-120.5 283.5z" />
<glyph unicode="&#x693;" d="M87 656q0 166 120.5 283t289.5 117q170 0 290.5 -117t120.5 -283t-120.5 -283.5t-290.5 -117.5q-169 0 -289.5 117.5t-120.5 283.5z" />
<glyph unicode="&#x694;" d="M87 656q0 166 120.5 283t289.5 117q170 0 290.5 -117t120.5 -283t-120.5 -283.5t-290.5 -117.5q-169 0 -289.5 117.5t-120.5 283.5z" />
<glyph unicode="&#x695;" d="M87 656q0 166 120.5 283t289.5 117q170 0 290.5 -117t120.5 -283t-120.5 -283.5t-290.5 -117.5q-169 0 -289.5 117.5t-120.5 283.5z" />
<glyph unicode="&#x696;" d="M87 656q0 166 120.5 283t289.5 117q170 0 290.5 -117t120.5 -283t-120.5 -283.5t-290.5 -117.5q-169 0 -289.5 117.5t-120.5 283.5z" />
<glyph unicode="&#x697;" d="M87 656q0 166 120.5 283t289.5 117q170 0 290.5 -117t120.5 -283t-120.5 -283.5t-290.5 -117.5q-169 0 -289.5 117.5t-120.5 283.5z" />
<glyph unicode="&#x699;" d="M87 656q0 166 120.5 283t289.5 117q170 0 290.5 -117t120.5 -283t-120.5 -283.5t-290.5 -117.5q-169 0 -289.5 117.5t-120.5 283.5z" />
<glyph unicode="&#x69a;" d="M87 656q0 166 120.5 283t289.5 117q170 0 290.5 -117t120.5 -283t-120.5 -283.5t-290.5 -117.5q-169 0 -289.5 117.5t-120.5 283.5z" />
<glyph unicode="&#x69a;" d="M87 656q0 166 120.5 283t289.5 117q170 0 290.5 -117t120.5 -283t-120.5 -283.5t-290.5 -117.5q-169 0 -289.5 117.5t-120.5 283.5z" />
<glyph unicode="&#x69a;" d="M87 656q0 166 120.5 283t289.5 117q170 0 290.5 -117t120.5 -283t-120.5 -283.5t-290.5 -117.5q-169 0 -289.5 117.5t-120.5 283.5z" />
<glyph unicode="&#x69b;" d="M87 656q0 166 120.5 283t289.5 117q170 0 290.5 -117t120.5 -283t-120.5 -283.5t-290.5 -117.5q-169 0 -289.5 117.5t-120.5 283.5z" />
<glyph unicode="&#x69b;" d="M87 656q0 166 120.5 283t289.5 117q170 0 290.5 -117t120.5 -283t-120.5 -283.5t-290.5 -117.5q-169 0 -289.5 117.5t-120.5 283.5z" />
<glyph unicode="&#x69b;" d="M87 656q0 166 120.5 283t289.5 117q170 0 290.5 -117t120.5 -283t-120.5 -283.5t-290.5 -117.5q-169 0 -289.5 117.5t-120.5 283.5z" />
<glyph unicode="&#x69c;" d="M87 656q0 166 120.5 283t289.5 117q170 0 290.5 -117t120.5 -283t-120.5 -283.5t-290.5 -117.5q-169 0 -289.5 117.5t-120.5 283.5z" />
<glyph unicode="&#x69c;" d="M87 656q0 166 120.5 283t289.5 117q170 0 290.5 -117t120.5 -283t-120.5 -283.5t-290.5 -117.5q-169 0 -289.5 117.5t-120.5 283.5z" />
<glyph unicode="&#x69c;" d="M87 656q0 166 120.5 283t289.5 117q170 0 290.5 -117t120.5 -283t-120.5 -283.5t-290.5 -117.5q-169 0 -289.5 117.5t-120.5 283.5z" />
<glyph unicode="&#x69d;" d="M87 656q0 166 120.5 283t289.5 117q170 0 290.5 -117t120.5 -283t-120.5 -283.5t-290.5 -117.5q-169 0 -289.5 117.5t-120.5 283.5z" />
<glyph unicode="&#x69d;" d="M87 656q0 166 120.5 283t289.5 117q170 0 290.5 -117t120.5 -283t-120.5 -283.5t-290.5 -117.5q-169 0 -289.5 117.5t-120.5 283.5z" />
<glyph unicode="&#x69d;" d="M87 656q0 166 120.5 283t289.5 117q170 0 290.5 -117t120.5 -283t-120.5 -283.5t-290.5 -117.5q-169 0 -289.5 117.5t-120.5 283.5z" />
<glyph unicode="&#x69e;" d="M87 656q0 166 120.5 283t289.5 117q170 0 290.5 -117t120.5 -283t-120.5 -283.5t-290.5 -117.5q-169 0 -289.5 117.5t-120.5 283.5z" />
<glyph unicode="&#x69e;" d="M87 656q0 166 120.5 283t289.5 117q170 0 290.5 -117t120.5 -283t-120.5 -283.5t-290.5 -117.5q-169 0 -289.5 117.5t-120.5 283.5z" />
<glyph unicode="&#x69e;" d="M87 656q0 166 120.5 283t289.5 117q170 0 290.5 -117t120.5 -283t-120.5 -283.5t-290.5 -117.5q-169 0 -289.5 117.5t-120.5 283.5z" />
<glyph unicode="&#x69f;" d="M87 656q0 166 120.5 283t289.5 117q170 0 290.5 -117t120.5 -283t-120.5 -283.5t-290.5 -117.5q-169 0 -289.5 117.5t-120.5 283.5z" />
<glyph unicode="&#x6a0;" d="M87 656q0 166 120.5 283t289.5 117q170 0 290.5 -117t120.5 -283t-120.5 -283.5t-290.5 -117.5q-169 0 -289.5 117.5t-120.5 283.5z" />
<glyph unicode="&#x6a0;" d="M87 656q0 166 120.5 283t289.5 117q170 0 290.5 -117t120.5 -283t-120.5 -283.5t-290.5 -117.5q-169 0 -289.5 117.5t-120.5 283.5z" />
<glyph unicode="&#x6a0;" d="M87 656q0 166 120.5 283t289.5 117q170 0 290.5 -117t120.5 -283t-120.5 -283.5t-290.5 -117.5q-169 0 -289.5 117.5t-120.5 283.5z" />
<glyph unicode="&#x6a2;" d="M87 656q0 166 120.5 283t289.5 117q170 0 290.5 -117t120.5 -283t-120.5 -283.5t-290.5 -117.5q-169 0 -289.5 117.5t-120.5 283.5z" />
<glyph unicode="&#x6a2;" d="M87 656q0 166 120.5 283t289.5 117q170 0 290.5 -117t120.5 -283t-120.5 -283.5t-290.5 -117.5q-169 0 -289.5 117.5t-120.5 283.5z" />
<glyph unicode="&#x6a2;" d="M87 656q0 166 120.5 283t289.5 117q170 0 290.5 -117t120.5 -283t-120.5 -283.5t-290.5 -117.5q-169 0 -289.5 117.5t-120.5 283.5z" />
<glyph unicode="&#x6a3;" d="M87 656q0 166 120.5 283t289.5 117q170 0 290.5 -117t120.5 -283t-120.5 -283.5t-290.5 -117.5q-169 0 -289.5 117.5t-120.5 283.5z" />
<glyph unicode="&#x6a3;" d="M87 656q0 166 120.5 283t289.5 117q170 0 290.5 -117t120.5 -283t-120.5 -283.5t-290.5 -117.5q-169 0 -289.5 117.5t-120.5 283.5z" />
<glyph unicode="&#x6a3;" d="M87 656q0 166 120.5 283t289.5 117q170 0 290.5 -117t120.5 -283t-120.5 -283.5t-290.5 -117.5q-169 0 -289.5 117.5t-120.5 283.5z" />
<glyph unicode="&#x6a5;" d="M87 656q0 166 120.5 283t289.5 117q170 0 290.5 -117t120.5 -283t-120.5 -283.5t-290.5 -117.5q-169 0 -289.5 117.5t-120.5 283.5z" />
<glyph unicode="&#x6a5;" d="M87 656q0 166 120.5 283t289.5 117q170 0 290.5 -117t120.5 -283t-120.5 -283.5t-290.5 -117.5q-169 0 -289.5 117.5t-120.5 283.5z" />
<glyph unicode="&#x6a5;" d="M87 656q0 166 120.5 283t289.5 117q170 0 290.5 -117t120.5 -283t-120.5 -283.5t-290.5 -117.5q-169 0 -289.5 117.5t-120.5 283.5z" />
<glyph unicode="&#x6a7;" d="M87 656q0 166 120.5 283t289.5 117q170 0 290.5 -117t120.5 -283t-120.5 -283.5t-290.5 -117.5q-169 0 -289.5 117.5t-120.5 283.5z" />
<glyph unicode="&#x6a8;" d="M87 656q0 166 120.5 283t289.5 117q170 0 290.5 -117t120.5 -283t-120.5 -283.5t-290.5 -117.5q-169 0 -289.5 117.5t-120.5 283.5z" />
<glyph unicode="&#x6aa;" d="M87 656q0 166 120.5 283t289.5 117q170 0 290.5 -117t120.5 -283t-120.5 -283.5t-290.5 -117.5q-169 0 -289.5 117.5t-120.5 283.5z" />
<glyph unicode="&#x6aa;" d="M87 656q0 166 120.5 283t289.5 117q170 0 290.5 -117t120.5 -283t-120.5 -283.5t-290.5 -117.5q-169 0 -289.5 117.5t-120.5 283.5z" />
<glyph unicode="&#x6aa;" d="M87 656q0 166 120.5 283t289.5 117q170 0 290.5 -117t120.5 -283t-120.5 -283.5t-290.5 -117.5q-169 0 -289.5 117.5t-120.5 283.5z" />
<glyph unicode="&#x6ab;" d="M87 656q0 166 120.5 283t289.5 117q170 0 290.5 -117t120.5 -283t-120.5 -283.5t-290.5 -117.5q-169 0 -289.5 117.5t-120.5 283.5z" />
<glyph unicode="&#x6ab;" d="M87 656q0 166 120.5 283t289.5 117q170 0 290.5 -117t120.5 -283t-120.5 -283.5t-290.5 -117.5q-169 0 -289.5 117.5t-120.5 283.5z" />
<glyph unicode="&#x6ab;" d="M87 656q0 166 120.5 283t289.5 117q170 0 290.5 -117t120.5 -283t-120.5 -283.5t-290.5 -117.5q-169 0 -289.5 117.5t-120.5 283.5z" />
<glyph unicode="&#x6ac;" d="M87 656q0 166 120.5 283t289.5 117q170 0 290.5 -117t120.5 -283t-120.5 -283.5t-290.5 -117.5q-169 0 -289.5 117.5t-120.5 283.5z" />
<glyph unicode="&#x6ac;" d="M87 656q0 166 120.5 283t289.5 117q170 0 290.5 -117t120.5 -283t-120.5 -283.5t-290.5 -117.5q-169 0 -289.5 117.5t-120.5 283.5z" />
<glyph unicode="&#x6ac;" d="M87 656q0 166 120.5 283t289.5 117q170 0 290.5 -117t120.5 -283t-120.5 -283.5t-290.5 -117.5q-169 0 -289.5 117.5t-120.5 283.5z" />
<glyph unicode="&#x6ad;" arabic-form="isolated" d="M87 656q0 166 120.5 283t289.5 117q170 0 290.5 -117t120.5 -283t-120.5 -283.5t-290.5 -117.5q-169 0 -289.5 117.5t-120.5 283.5z" />
<glyph unicode="&#x6ae;" d="M87 656q0 166 120.5 283t289.5 117q170 0 290.5 -117t120.5 -283t-120.5 -283.5t-290.5 -117.5q-169 0 -289.5 117.5t-120.5 283.5z" />
<glyph unicode="&#x6ae;" d="M87 656q0 166 120.5 283t289.5 117q170 0 290.5 -117t120.5 -283t-120.5 -283.5t-290.5 -117.5q-169 0 -289.5 117.5t-120.5 283.5z" />
<glyph unicode="&#x6ae;" d="M87 656q0 166 120.5 283t289.5 117q170 0 290.5 -117t120.5 -283t-120.5 -283.5t-290.5 -117.5q-169 0 -289.5 117.5t-120.5 283.5z" />
<glyph unicode="&#x6b0;" d="M87 656q0 166 120.5 283t289.5 117q170 0 290.5 -117t120.5 -283t-120.5 -283.5t-290.5 -117.5q-169 0 -289.5 117.5t-120.5 283.5z" />
<glyph unicode="&#x6b0;" d="M87 656q0 166 120.5 283t289.5 117q170 0 290.5 -117t120.5 -283t-120.5 -283.5t-290.5 -117.5q-169 0 -289.5 117.5t-120.5 283.5z" />
<glyph unicode="&#x6b0;" d="M87 656q0 166 120.5 283t289.5 117q170 0 290.5 -117t120.5 -283t-120.5 -283.5t-290.5 -117.5q-169 0 -289.5 117.5t-120.5 283.5z" />
<glyph unicode="&#x6b2;" d="M87 656q0 166 120.5 283t289.5 117q170 0 290.5 -117t120.5 -283t-120.5 -283.5t-290.5 -117.5q-169 0 -289.5 117.5t-120.5 283.5z" />
<glyph unicode="&#x6b2;" d="M87 656q0 166 120.5 283t289.5 117q170 0 290.5 -117t120.5 -283t-120.5 -283.5t-290.5 -117.5q-169 0 -289.5 117.5t-120.5 283.5z" />
<glyph unicode="&#x6b2;" d="M87 656q0 166 120.5 283t289.5 117q170 0 290.5 -117t120.5 -283t-120.5 -283.5t-290.5 -117.5q-169 0 -289.5 117.5t-120.5 283.5z" />
<glyph unicode="&#x6b4;" d="M87 656q0 166 120.5 283t289.5 117q170 0 290.5 -117t120.5 -283t-120.5 -283.5t-290.5 -117.5q-169 0 -289.5 117.5t-120.5 283.5z" />
<glyph unicode="&#x6b4;" d="M87 656q0 166 120.5 283t289.5 117q170 0 290.5 -117t120.5 -283t-120.5 -283.5t-290.5 -117.5q-169 0 -289.5 117.5t-120.5 283.5z" />
<glyph unicode="&#x6b4;" d="M87 656q0 166 120.5 283t289.5 117q170 0 290.5 -117t120.5 -283t-120.5 -283.5t-290.5 -117.5q-169 0 -289.5 117.5t-120.5 283.5z" />
<glyph unicode="&#x6b5;" d="M87 656q0 166 120.5 283t289.5 117q170 0 290.5 -117t120.5 -283t-120.5 -283.5t-290.5 -117.5q-169 0 -289.5 117.5t-120.5 283.5z" />
<glyph unicode="&#x6b5;" d="M87 656q0 166 120.5 283t289.5 117q170 0 290.5 -117t120.5 -283t-120.5 -283.5t-290.5 -117.5q-169 0 -289.5 117.5t-120.5 283.5z" />
<glyph unicode="&#x6b5;" d="M87 656q0 166 120.5 283t289.5 117q170 0 290.5 -117t120.5 -283t-120.5 -283.5t-290.5 -117.5q-169 0 -289.5 117.5t-120.5 283.5z" />
<glyph unicode="&#x6b6;" d="M87 656q0 166 120.5 283t289.5 117q170 0 290.5 -117t120.5 -283t-120.5 -283.5t-290.5 -117.5q-169 0 -289.5 117.5t-120.5 283.5z" />
<glyph unicode="&#x6b6;" d="M87 656q0 166 120.5 283t289.5 117q170 0 290.5 -117t120.5 -283t-120.5 -283.5t-290.5 -117.5q-169 0 -289.5 117.5t-120.5 283.5z" />
<glyph unicode="&#x6b6;" d="M87 656q0 166 120.5 283t289.5 117q170 0 290.5 -117t120.5 -283t-120.5 -283.5t-290.5 -117.5q-169 0 -289.5 117.5t-120.5 283.5z" />
<glyph unicode="&#x6b7;" d="M87 656q0 166 120.5 283t289.5 117q170 0 290.5 -117t120.5 -283t-120.5 -283.5t-290.5 -117.5q-169 0 -289.5 117.5t-120.5 283.5z" />
<glyph unicode="&#x6b7;" d="M87 656q0 166 120.5 283t289.5 117q170 0 290.5 -117t120.5 -283t-120.5 -283.5t-290.5 -117.5q-169 0 -289.5 117.5t-120.5 283.5z" />
<glyph unicode="&#x6b7;" d="M87 656q0 166 120.5 283t289.5 117q170 0 290.5 -117t120.5 -283t-120.5 -283.5t-290.5 -117.5q-169 0 -289.5 117.5t-120.5 283.5z" />
<glyph unicode="&#x6b8;" d="M87 656q0 166 120.5 283t289.5 117q170 0 290.5 -117t120.5 -283t-120.5 -283.5t-290.5 -117.5q-169 0 -289.5 117.5t-120.5 283.5z" />
<glyph unicode="&#x6b8;" d="M87 656q0 166 120.5 283t289.5 117q170 0 290.5 -117t120.5 -283t-120.5 -283.5t-290.5 -117.5q-169 0 -289.5 117.5t-120.5 283.5z" />
<glyph unicode="&#x6b8;" d="M87 656q0 166 120.5 283t289.5 117q170 0 290.5 -117t120.5 -283t-120.5 -283.5t-290.5 -117.5q-169 0 -289.5 117.5t-120.5 283.5z" />
<glyph unicode="&#x6b9;" d="M87 656q0 166 120.5 283t289.5 117q170 0 290.5 -117t120.5 -283t-120.5 -283.5t-290.5 -117.5q-169 0 -289.5 117.5t-120.5 283.5z" />
<glyph unicode="&#x6b9;" d="M87 656q0 166 120.5 283t289.5 117q170 0 290.5 -117t120.5 -283t-120.5 -283.5t-290.5 -117.5q-169 0 -289.5 117.5t-120.5 283.5z" />
<glyph unicode="&#x6b9;" d="M87 656q0 166 120.5 283t289.5 117q170 0 290.5 -117t120.5 -283t-120.5 -283.5t-290.5 -117.5q-169 0 -289.5 117.5t-120.5 283.5z" />
<glyph unicode="&#x6bc;" d="M87 656q0 166 120.5 283t289.5 117q170 0 290.5 -117t120.5 -283t-120.5 -283.5t-290.5 -117.5q-169 0 -289.5 117.5t-120.5 283.5z" />
<glyph unicode="&#x6bc;" d="M87 656q0 166 120.5 283t289.5 117q170 0 290.5 -117t120.5 -283t-120.5 -283.5t-290.5 -117.5q-169 0 -289.5 117.5t-120.5 283.5z" />
<glyph unicode="&#x6bc;" d="M87 656q0 166 120.5 283t289.5 117q170 0 290.5 -117t120.5 -283t-120.5 -283.5t-290.5 -117.5q-169 0 -289.5 117.5t-120.5 283.5z" />
<glyph unicode="&#x6bd;" d="M87 656q0 166 120.5 283t289.5 117q170 0 290.5 -117t120.5 -283t-120.5 -283.5t-290.5 -117.5q-169 0 -289.5 117.5t-120.5 283.5z" />
<glyph unicode="&#x6bf;" d="M87 656q0 166 120.5 283t289.5 117q170 0 290.5 -117t120.5 -283t-120.5 -283.5t-290.5 -117.5q-169 0 -289.5 117.5t-120.5 283.5z" />
<glyph unicode="&#x6bf;" d="M87 656q0 166 120.5 283t289.5 117q170 0 290.5 -117t120.5 -283t-120.5 -283.5t-290.5 -117.5q-169 0 -289.5 117.5t-120.5 283.5z" />
<glyph unicode="&#x6bf;" d="M87 656q0 166 120.5 283t289.5 117q170 0 290.5 -117t120.5 -283t-120.5 -283.5t-290.5 -117.5q-169 0 -289.5 117.5t-120.5 283.5z" />
<glyph unicode="&#x6c4;" d="M87 656q0 166 120.5 283t289.5 117q170 0 290.5 -117t120.5 -283t-120.5 -283.5t-290.5 -117.5q-169 0 -289.5 117.5t-120.5 283.5z" />
<glyph unicode="&#x6ca;" d="M87 656q0 166 120.5 283t289.5 117q170 0 290.5 -117t120.5 -283t-120.5 -283.5t-290.5 -117.5q-169 0 -289.5 117.5t-120.5 283.5z" />
<glyph unicode="&#x6cd;" d="M87 656q0 166 120.5 283t289.5 117q170 0 290.5 -117t120.5 -283t-120.5 -283.5t-290.5 -117.5q-169 0 -289.5 117.5t-120.5 283.5z" />
<glyph unicode="&#x6ce;" d="M87 656q0 166 120.5 283t289.5 117q170 0 290.5 -117t120.5 -283t-120.5 -283.5t-290.5 -117.5q-169 0 -289.5 117.5t-120.5 283.5z" />
<glyph unicode="&#x6ce;" d="M87 656q0 166 120.5 283t289.5 117q170 0 290.5 -117t120.5 -283t-120.5 -283.5t-290.5 -117.5q-169 0 -289.5 117.5t-120.5 283.5z" />
<glyph unicode="&#x6ce;" d="M87 656q0 166 120.5 283t289.5 117q170 0 290.5 -117t120.5 -283t-120.5 -283.5t-290.5 -117.5q-169 0 -289.5 117.5t-120.5 283.5z" />
<glyph unicode="&#x6cf;" d="M87 656q0 166 120.5 283t289.5 117q170 0 290.5 -117t120.5 -283t-120.5 -283.5t-290.5 -117.5q-169 0 -289.5 117.5t-120.5 283.5z" />
<glyph unicode="&#x6d1;" d="M87 656q0 166 120.5 283t289.5 117q170 0 290.5 -117t120.5 -283t-120.5 -283.5t-290.5 -117.5q-169 0 -289.5 117.5t-120.5 283.5z" />
<glyph unicode="&#x6fa;" d="M87 656q0 166 120.5 283t289.5 117q170 0 290.5 -117t120.5 -283t-120.5 -283.5t-290.5 -117.5q-169 0 -289.5 117.5t-120.5 283.5z" />
<glyph unicode="&#x6fa;" d="M87 656q0 166 120.5 283t289.5 117q170 0 290.5 -117t120.5 -283t-120.5 -283.5t-290.5 -117.5q-169 0 -289.5 117.5t-120.5 283.5z" />
<glyph unicode="&#x6fa;" d="M87 656q0 166 120.5 283t289.5 117q170 0 290.5 -117t120.5 -283t-120.5 -283.5t-290.5 -117.5q-169 0 -289.5 117.5t-120.5 283.5z" />
<glyph unicode="&#x6fb;" d="M87 656q0 166 120.5 283t289.5 117q170 0 290.5 -117t120.5 -283t-120.5 -283.5t-290.5 -117.5q-169 0 -289.5 117.5t-120.5 283.5z" />
<glyph unicode="&#x6fb;" d="M87 656q0 166 120.5 283t289.5 117q170 0 290.5 -117t120.5 -283t-120.5 -283.5t-290.5 -117.5q-169 0 -289.5 117.5t-120.5 283.5z" />
<glyph unicode="&#x6fb;" d="M87 656q0 166 120.5 283t289.5 117q170 0 290.5 -117t120.5 -283t-120.5 -283.5t-290.5 -117.5q-169 0 -289.5 117.5t-120.5 283.5z" />
<glyph unicode="&#x6fc;" d="M87 656q0 166 120.5 283t289.5 117q170 0 290.5 -117t120.5 -283t-120.5 -283.5t-290.5 -117.5q-169 0 -289.5 117.5t-120.5 283.5z" />
<glyph unicode="&#x6fc;" d="M87 656q0 166 120.5 283t289.5 117q170 0 290.5 -117t120.5 -283t-120.5 -283.5t-290.5 -117.5q-169 0 -289.5 117.5t-120.5 283.5z" />
<glyph unicode="&#x6fc;" d="M87 656q0 166 120.5 283t289.5 117q170 0 290.5 -117t120.5 -283t-120.5 -283.5t-290.5 -117.5q-169 0 -289.5 117.5t-120.5 283.5z" />
<glyph unicode="&#x671;" arabic-form="final" d="M87 656q0 166 120.5 283t289.5 117q170 0 290.5 -117t120.5 -283t-120.5 -283.5t-290.5 -117.5q-169 0 -289.5 117.5t-120.5 283.5z" />
<glyph unicode="&#x67b;" arabic-form="final" d="M87 656q0 166 120.5 283t289.5 117q170 0 290.5 -117t120.5 -283t-120.5 -283.5t-290.5 -117.5q-169 0 -289.5 117.5t-120.5 283.5z" />
<glyph unicode="&#x67b;" arabic-form="initial" d="M87 656q0 166 120.5 283t289.5 117q170 0 290.5 -117t120.5 -283t-120.5 -283.5t-290.5 -117.5q-169 0 -289.5 117.5t-120.5 283.5z" />
<glyph unicode="&#x67b;" arabic-form="medial" d="M87 656q0 166 120.5 283t289.5 117q170 0 290.5 -117t120.5 -283t-120.5 -283.5t-290.5 -117.5q-169 0 -289.5 117.5t-120.5 283.5z" />
<glyph unicode="&#x67e;" arabic-form="final" d="M87 656q0 166 120.5 283t289.5 117q170 0 290.5 -117t120.5 -283t-120.5 -283.5t-290.5 -117.5q-169 0 -289.5 117.5t-120.5 283.5z" />
<glyph unicode="&#x67e;" arabic-form="initial" d="M87 656q0 166 120.5 283t289.5 117q170 0 290.5 -117t120.5 -283t-120.5 -283.5t-290.5 -117.5q-169 0 -289.5 117.5t-120.5 283.5z" />
<glyph unicode="&#x67e;" arabic-form="medial" d="M87 656q0 166 120.5 283t289.5 117q170 0 290.5 -117t120.5 -283t-120.5 -283.5t-290.5 -117.5q-169 0 -289.5 117.5t-120.5 283.5z" />
<glyph unicode="&#x680;" arabic-form="final" d="M87 656q0 166 120.5 283t289.5 117q170 0 290.5 -117t120.5 -283t-120.5 -283.5t-290.5 -117.5q-169 0 -289.5 117.5t-120.5 283.5z" />
<glyph unicode="&#x680;" arabic-form="initial" d="M87 656q0 166 120.5 283t289.5 117q170 0 290.5 -117t120.5 -283t-120.5 -283.5t-290.5 -117.5q-169 0 -289.5 117.5t-120.5 283.5z" />
<glyph unicode="&#x680;" arabic-form="medial" d="M87 656q0 166 120.5 283t289.5 117q170 0 290.5 -117t120.5 -283t-120.5 -283.5t-290.5 -117.5q-169 0 -289.5 117.5t-120.5 283.5z" />
<glyph unicode="&#x67a;" arabic-form="final" d="M87 656q0 166 120.5 283t289.5 117q170 0 290.5 -117t120.5 -283t-120.5 -283.5t-290.5 -117.5q-169 0 -289.5 117.5t-120.5 283.5z" />
<glyph unicode="&#x67a;" arabic-form="initial" d="M87 656q0 166 120.5 283t289.5 117q170 0 290.5 -117t120.5 -283t-120.5 -283.5t-290.5 -117.5q-169 0 -289.5 117.5t-120.5 283.5z" />
<glyph unicode="&#x67a;" arabic-form="medial" d="M87 656q0 166 120.5 283t289.5 117q170 0 290.5 -117t120.5 -283t-120.5 -283.5t-290.5 -117.5q-169 0 -289.5 117.5t-120.5 283.5z" />
<glyph unicode="&#x67f;" arabic-form="final" d="M87 656q0 166 120.5 283t289.5 117q170 0 290.5 -117t120.5 -283t-120.5 -283.5t-290.5 -117.5q-169 0 -289.5 117.5t-120.5 283.5z" />
<glyph unicode="&#x67f;" arabic-form="initial" d="M87 656q0 166 120.5 283t289.5 117q170 0 290.5 -117t120.5 -283t-120.5 -283.5t-290.5 -117.5q-169 0 -289.5 117.5t-120.5 283.5z" />
<glyph unicode="&#x67f;" arabic-form="medial" d="M87 656q0 166 120.5 283t289.5 117q170 0 290.5 -117t120.5 -283t-120.5 -283.5t-290.5 -117.5q-169 0 -289.5 117.5t-120.5 283.5z" />
<glyph unicode="&#x679;" arabic-form="final" d="M87 656q0 166 120.5 283t289.5 117q170 0 290.5 -117t120.5 -283t-120.5 -283.5t-290.5 -117.5q-169 0 -289.5 117.5t-120.5 283.5z" />
<glyph unicode="&#x679;" arabic-form="initial" d="M87 656q0 166 120.5 283t289.5 117q170 0 290.5 -117t120.5 -283t-120.5 -283.5t-290.5 -117.5q-169 0 -289.5 117.5t-120.5 283.5z" />
<glyph unicode="&#x679;" arabic-form="medial" d="M87 656q0 166 120.5 283t289.5 117q170 0 290.5 -117t120.5 -283t-120.5 -283.5t-290.5 -117.5q-169 0 -289.5 117.5t-120.5 283.5z" />
<glyph unicode="&#x6a4;" arabic-form="final" d="M87 656q0 166 120.5 283t289.5 117q170 0 290.5 -117t120.5 -283t-120.5 -283.5t-290.5 -117.5q-169 0 -289.5 117.5t-120.5 283.5z" />
<glyph unicode="&#x6a4;" arabic-form="initial" d="M87 656q0 166 120.5 283t289.5 117q170 0 290.5 -117t120.5 -283t-120.5 -283.5t-290.5 -117.5q-169 0 -289.5 117.5t-120.5 283.5z" />
<glyph unicode="&#x6a4;" arabic-form="medial" d="M87 656q0 166 120.5 283t289.5 117q170 0 290.5 -117t120.5 -283t-120.5 -283.5t-290.5 -117.5q-169 0 -289.5 117.5t-120.5 283.5z" />
<glyph unicode="&#x6a6;" arabic-form="final" d="M87 656q0 166 120.5 283t289.5 117q170 0 290.5 -117t120.5 -283t-120.5 -283.5t-290.5 -117.5q-169 0 -289.5 117.5t-120.5 283.5z" />
<glyph unicode="&#x6a6;" arabic-form="initial" d="M87 656q0 166 120.5 283t289.5 117q170 0 290.5 -117t120.5 -283t-120.5 -283.5t-290.5 -117.5q-169 0 -289.5 117.5t-120.5 283.5z" />
<glyph unicode="&#x6a6;" arabic-form="medial" d="M87 656q0 166 120.5 283t289.5 117q170 0 290.5 -117t120.5 -283t-120.5 -283.5t-290.5 -117.5q-169 0 -289.5 117.5t-120.5 283.5z" />
<glyph unicode="&#x684;" arabic-form="final" d="M87 656q0 166 120.5 283t289.5 117q170 0 290.5 -117t120.5 -283t-120.5 -283.5t-290.5 -117.5q-169 0 -289.5 117.5t-120.5 283.5z" />
<glyph unicode="&#x684;" arabic-form="initial" d="M87 656q0 166 120.5 283t289.5 117q170 0 290.5 -117t120.5 -283t-120.5 -283.5t-290.5 -117.5q-169 0 -289.5 117.5t-120.5 283.5z" />
<glyph unicode="&#x684;" arabic-form="medial" d="M87 656q0 166 120.5 283t289.5 117q170 0 290.5 -117t120.5 -283t-120.5 -283.5t-290.5 -117.5q-169 0 -289.5 117.5t-120.5 283.5z" />
<glyph unicode="&#x683;" arabic-form="final" d="M87 656q0 166 120.5 283t289.5 117q170 0 290.5 -117t120.5 -283t-120.5 -283.5t-290.5 -117.5q-169 0 -289.5 117.5t-120.5 283.5z" />
<glyph unicode="&#x683;" arabic-form="initial" d="M87 656q0 166 120.5 283t289.5 117q170 0 290.5 -117t120.5 -283t-120.5 -283.5t-290.5 -117.5q-169 0 -289.5 117.5t-120.5 283.5z" />
<glyph unicode="&#x683;" arabic-form="medial" d="M87 656q0 166 120.5 283t289.5 117q170 0 290.5 -117t120.5 -283t-120.5 -283.5t-290.5 -117.5q-169 0 -289.5 117.5t-120.5 283.5z" />
<glyph unicode="&#x686;" arabic-form="final" d="M87 656q0 166 120.5 283t289.5 117q170 0 290.5 -117t120.5 -283t-120.5 -283.5t-290.5 -117.5q-169 0 -289.5 117.5t-120.5 283.5z" />
<glyph unicode="&#x686;" arabic-form="initial" d="M87 656q0 166 120.5 283t289.5 117q170 0 290.5 -117t120.5 -283t-120.5 -283.5t-290.5 -117.5q-169 0 -289.5 117.5t-120.5 283.5z" />
<glyph unicode="&#x686;" arabic-form="medial" d="M87 656q0 166 120.5 283t289.5 117q170 0 290.5 -117t120.5 -283t-120.5 -283.5t-290.5 -117.5q-169 0 -289.5 117.5t-120.5 283.5z" />
<glyph unicode="&#x687;" arabic-form="final" d="M87 656q0 166 120.5 283t289.5 117q170 0 290.5 -117t120.5 -283t-120.5 -283.5t-290.5 -117.5q-169 0 -289.5 117.5t-120.5 283.5z" />
<glyph unicode="&#x687;" arabic-form="initial" d="M87 656q0 166 120.5 283t289.5 117q170 0 290.5 -117t120.5 -283t-120.5 -283.5t-290.5 -117.5q-169 0 -289.5 117.5t-120.5 283.5z" />
<glyph unicode="&#x687;" arabic-form="medial" d="M87 656q0 166 120.5 283t289.5 117q170 0 290.5 -117t120.5 -283t-120.5 -283.5t-290.5 -117.5q-169 0 -289.5 117.5t-120.5 283.5z" />
<glyph unicode="&#x68d;" arabic-form="final" d="M87 656q0 166 120.5 283t289.5 117q170 0 290.5 -117t120.5 -283t-120.5 -283.5t-290.5 -117.5q-169 0 -289.5 117.5t-120.5 283.5z" />
<glyph unicode="&#x68c;" arabic-form="final" d="M87 656q0 166 120.5 283t289.5 117q170 0 290.5 -117t120.5 -283t-120.5 -283.5t-290.5 -117.5q-169 0 -289.5 117.5t-120.5 283.5z" />
<glyph unicode="&#x68e;" arabic-form="final" d="M87 656q0 166 120.5 283t289.5 117q170 0 290.5 -117t120.5 -283t-120.5 -283.5t-290.5 -117.5q-169 0 -289.5 117.5t-120.5 283.5z" />
<glyph unicode="&#x688;" arabic-form="final" d="M87 656q0 166 120.5 283t289.5 117q170 0 290.5 -117t120.5 -283t-120.5 -283.5t-290.5 -117.5q-169 0 -289.5 117.5t-120.5 283.5z" />
<glyph unicode="&#x698;" arabic-form="final" d="M87 656q0 166 120.5 283t289.5 117q170 0 290.5 -117t120.5 -283t-120.5 -283.5t-290.5 -117.5q-169 0 -289.5 117.5t-120.5 283.5z" />
<glyph unicode="&#x691;" arabic-form="final" d="M87 656q0 166 120.5 283t289.5 117q170 0 290.5 -117t120.5 -283t-120.5 -283.5t-290.5 -117.5q-169 0 -289.5 117.5t-120.5 283.5z" />
<glyph unicode="&#x6a9;" arabic-form="isolated" d="M87 656q0 166 120.5 283t289.5 117q170 0 290.5 -117t120.5 -283t-120.5 -283.5t-290.5 -117.5q-169 0 -289.5 117.5t-120.5 283.5z" />
<glyph unicode="&#x6a9;" arabic-form="final" d="M87 656q0 166 120.5 283t289.5 117q170 0 290.5 -117t120.5 -283t-120.5 -283.5t-290.5 -117.5q-169 0 -289.5 117.5t-120.5 283.5z" />
<glyph unicode="&#x6a9;" arabic-form="initial" d="M87 656q0 166 120.5 283t289.5 117q170 0 290.5 -117t120.5 -283t-120.5 -283.5t-290.5 -117.5q-169 0 -289.5 117.5t-120.5 283.5z" />
<glyph unicode="&#x6a9;" arabic-form="medial" d="M87 656q0 166 120.5 283t289.5 117q170 0 290.5 -117t120.5 -283t-120.5 -283.5t-290.5 -117.5q-169 0 -289.5 117.5t-120.5 283.5z" />
<glyph unicode="&#x6af;" arabic-form="final" d="M87 656q0 166 120.5 283t289.5 117q170 0 290.5 -117t120.5 -283t-120.5 -283.5t-290.5 -117.5q-169 0 -289.5 117.5t-120.5 283.5z" />
<glyph unicode="&#x6af;" arabic-form="initial" d="M87 656q0 166 120.5 283t289.5 117q170 0 290.5 -117t120.5 -283t-120.5 -283.5t-290.5 -117.5q-169 0 -289.5 117.5t-120.5 283.5z" />
<glyph unicode="&#x6af;" arabic-form="medial" d="M87 656q0 166 120.5 283t289.5 117q170 0 290.5 -117t120.5 -283t-120.5 -283.5t-290.5 -117.5q-169 0 -289.5 117.5t-120.5 283.5z" />
<glyph unicode="&#x6b3;" arabic-form="final" d="M87 656q0 166 120.5 283t289.5 117q170 0 290.5 -117t120.5 -283t-120.5 -283.5t-290.5 -117.5q-169 0 -289.5 117.5t-120.5 283.5z" />
<glyph unicode="&#x6b3;" arabic-form="initial" d="M87 656q0 166 120.5 283t289.5 117q170 0 290.5 -117t120.5 -283t-120.5 -283.5t-290.5 -117.5q-169 0 -289.5 117.5t-120.5 283.5z" />
<glyph unicode="&#x6b3;" arabic-form="medial" d="M87 656q0 166 120.5 283t289.5 117q170 0 290.5 -117t120.5 -283t-120.5 -283.5t-290.5 -117.5q-169 0 -289.5 117.5t-120.5 283.5z" />
<glyph unicode="&#x6b1;" arabic-form="final" d="M87 656q0 166 120.5 283t289.5 117q170 0 290.5 -117t120.5 -283t-120.5 -283.5t-290.5 -117.5q-169 0 -289.5 117.5t-120.5 283.5z" />
<glyph unicode="&#x6b1;" arabic-form="initial" d="M87 656q0 166 120.5 283t289.5 117q170 0 290.5 -117t120.5 -283t-120.5 -283.5t-290.5 -117.5q-169 0 -289.5 117.5t-120.5 283.5z" />
<glyph unicode="&#x6b1;" arabic-form="medial" d="M87 656q0 166 120.5 283t289.5 117q170 0 290.5 -117t120.5 -283t-120.5 -283.5t-290.5 -117.5q-169 0 -289.5 117.5t-120.5 283.5z" />
<glyph unicode="&#x6ba;" arabic-form="final" d="M87 656q0 166 120.5 283t289.5 117q170 0 290.5 -117t120.5 -283t-120.5 -283.5t-290.5 -117.5q-169 0 -289.5 117.5t-120.5 283.5z" />
<glyph unicode="&#x6bb;" arabic-form="final" d="M87 656q0 166 120.5 283t289.5 117q170 0 290.5 -117t120.5 -283t-120.5 -283.5t-290.5 -117.5q-169 0 -289.5 117.5t-120.5 283.5z" />
<glyph unicode="&#x6c0;" arabic-form="final" d="M87 656q0 166 120.5 283t289.5 117q170 0 290.5 -117t120.5 -283t-120.5 -283.5t-290.5 -117.5q-169 0 -289.5 117.5t-120.5 283.5z" />
<glyph unicode="&#x6c1;" arabic-form="isolated" d="M87 656q0 166 120.5 283t289.5 117q170 0 290.5 -117t120.5 -283t-120.5 -283.5t-290.5 -117.5q-169 0 -289.5 117.5t-120.5 283.5z" />
<glyph unicode="&#x6c1;" arabic-form="initial" d="M87 656q0 166 120.5 283t289.5 117q170 0 290.5 -117t120.5 -283t-120.5 -283.5t-290.5 -117.5q-169 0 -289.5 117.5t-120.5 283.5z" />
<glyph unicode="&#x6c1;" arabic-form="medial" d="M87 656q0 166 120.5 283t289.5 117q170 0 290.5 -117t120.5 -283t-120.5 -283.5t-290.5 -117.5q-169 0 -289.5 117.5t-120.5 283.5z" />
<glyph unicode="&#x6be;" arabic-form="isolated" d="M87 656q0 166 120.5 283t289.5 117q170 0 290.5 -117t120.5 -283t-120.5 -283.5t-290.5 -117.5q-169 0 -289.5 117.5t-120.5 283.5z" />
<glyph unicode="&#x6d2;" arabic-form="final" d="M87 656q0 166 120.5 283t289.5 117q170 0 290.5 -117t120.5 -283t-120.5 -283.5t-290.5 -117.5q-169 0 -289.5 117.5t-120.5 283.5z" />
<glyph unicode="&#x6d3;" arabic-form="final" d="M87 656q0 166 120.5 283t289.5 117q170 0 290.5 -117t120.5 -283t-120.5 -283.5t-290.5 -117.5q-169 0 -289.5 117.5t-120.5 283.5z" />
<glyph unicode="&#x6ad;" arabic-form="final" d="M87 656q0 166 120.5 283t289.5 117q170 0 290.5 -117t120.5 -283t-120.5 -283.5t-290.5 -117.5q-169 0 -289.5 117.5t-120.5 283.5z" />
<glyph unicode="&#x6ad;" arabic-form="initial" d="M87 656q0 166 120.5 283t289.5 117q170 0 290.5 -117t120.5 -283t-120.5 -283.5t-290.5 -117.5q-169 0 -289.5 117.5t-120.5 283.5z" />
<glyph unicode="&#x6ad;" arabic-form="medial" d="M87 656q0 166 120.5 283t289.5 117q170 0 290.5 -117t120.5 -283t-120.5 -283.5t-290.5 -117.5q-169 0 -289.5 117.5t-120.5 283.5z" />
<glyph unicode="&#x6c7;" arabic-form="final" d="M87 656q0 166 120.5 283t289.5 117q170 0 290.5 -117t120.5 -283t-120.5 -283.5t-290.5 -117.5q-169 0 -289.5 117.5t-120.5 283.5z" />
<glyph unicode="&#x6c6;" arabic-form="final" d="M87 656q0 166 120.5 283t289.5 117q170 0 290.5 -117t120.5 -283t-120.5 -283.5t-290.5 -117.5q-169 0 -289.5 117.5t-120.5 283.5z" />
<glyph unicode="&#x6c8;" arabic-form="final" d="M87 656q0 166 120.5 283t289.5 117q170 0 290.5 -117t120.5 -283t-120.5 -283.5t-290.5 -117.5q-169 0 -289.5 117.5t-120.5 283.5z" />
<glyph unicode="&#x6cb;" arabic-form="final" d="M87 656q0 166 120.5 283t289.5 117q170 0 290.5 -117t120.5 -283t-120.5 -283.5t-290.5 -117.5q-169 0 -289.5 117.5t-120.5 283.5z" />
<glyph unicode="&#x6c5;" arabic-form="final" d="M87 656q0 166 120.5 283t289.5 117q170 0 290.5 -117t120.5 -283t-120.5 -283.5t-290.5 -117.5q-169 0 -289.5 117.5t-120.5 283.5z" />
<glyph unicode="&#x6c9;" arabic-form="final" d="M87 656q0 166 120.5 283t289.5 117q170 0 290.5 -117t120.5 -283t-120.5 -283.5t-290.5 -117.5q-169 0 -289.5 117.5t-120.5 283.5z" />
<glyph unicode="&#x6d0;" arabic-form="final" d="M87 656q0 166 120.5 283t289.5 117q170 0 290.5 -117t120.5 -283t-120.5 -283.5t-290.5 -117.5q-169 0 -289.5 117.5t-120.5 283.5z" />
<glyph unicode="&#x6d0;" arabic-form="initial" d="M87 656q0 166 120.5 283t289.5 117q170 0 290.5 -117t120.5 -283t-120.5 -283.5t-290.5 -117.5q-169 0 -289.5 117.5t-120.5 283.5z" />
<glyph unicode="&#x6d0;" arabic-form="medial" d="M87 656q0 166 120.5 283t289.5 117q170 0 290.5 -117t120.5 -283t-120.5 -283.5t-290.5 -117.5q-169 0 -289.5 117.5t-120.5 283.5z" />
<glyph unicode="&#x6cc;" arabic-form="isolated" d="M87 656q0 166 120.5 283t289.5 117q170 0 290.5 -117t120.5 -283t-120.5 -283.5t-290.5 -117.5q-169 0 -289.5 117.5t-120.5 283.5z" />
<glyph unicode="&#x6cc;" arabic-form="final" d="M87 656q0 166 120.5 283t289.5 117q170 0 290.5 -117t120.5 -283t-120.5 -283.5t-290.5 -117.5q-169 0 -289.5 117.5t-120.5 283.5z" />
<glyph unicode="&#x621;" arabic-form="isolated" d="M87 656q0 166 120.5 283t289.5 117q170 0 290.5 -117t120.5 -283t-120.5 -283.5t-290.5 -117.5q-169 0 -289.5 117.5t-120.5 283.5z" />
<glyph unicode="&#x622;" arabic-form="isolated" d="M87 656q0 166 120.5 283t289.5 117q170 0 290.5 -117t120.5 -283t-120.5 -283.5t-290.5 -117.5q-169 0 -289.5 117.5t-120.5 283.5z" />
<glyph unicode="&#x622;" arabic-form="final" d="M87 656q0 166 120.5 283t289.5 117q170 0 290.5 -117t120.5 -283t-120.5 -283.5t-290.5 -117.5q-169 0 -289.5 117.5t-120.5 283.5z" />
<glyph unicode="&#x623;" arabic-form="final" d="M87 656q0 166 120.5 283t289.5 117q170 0 290.5 -117t120.5 -283t-120.5 -283.5t-290.5 -117.5q-169 0 -289.5 117.5t-120.5 283.5z" />
<glyph unicode="&#x624;" arabic-form="final" d="M87 656q0 166 120.5 283t289.5 117q170 0 290.5 -117t120.5 -283t-120.5 -283.5t-290.5 -117.5q-169 0 -289.5 117.5t-120.5 283.5z" />
<glyph unicode="&#x625;" arabic-form="final" d="M87 656q0 166 120.5 283t289.5 117q170 0 290.5 -117t120.5 -283t-120.5 -283.5t-290.5 -117.5q-169 0 -289.5 117.5t-120.5 283.5z" />
<glyph unicode="&#x626;" arabic-form="final" d="M87 656q0 166 120.5 283t289.5 117q170 0 290.5 -117t120.5 -283t-120.5 -283.5t-290.5 -117.5q-169 0 -289.5 117.5t-120.5 283.5z" />
<glyph unicode="&#x626;" arabic-form="initial" d="M87 656q0 166 120.5 283t289.5 117q170 0 290.5 -117t120.5 -283t-120.5 -283.5t-290.5 -117.5q-169 0 -289.5 117.5t-120.5 283.5z" />
<glyph unicode="&#x626;" arabic-form="medial" d="M87 656q0 166 120.5 283t289.5 117q170 0 290.5 -117t120.5 -283t-120.5 -283.5t-290.5 -117.5q-169 0 -289.5 117.5t-120.5 283.5z" />
<glyph unicode="&#x627;" arabic-form="final" d="M87 656q0 166 120.5 283t289.5 117q170 0 290.5 -117t120.5 -283t-120.5 -283.5t-290.5 -117.5q-169 0 -289.5 117.5t-120.5 283.5z" />
<glyph unicode="&#x628;" arabic-form="final" d="M87 656q0 166 120.5 283t289.5 117q170 0 290.5 -117t120.5 -283t-120.5 -283.5t-290.5 -117.5q-169 0 -289.5 117.5t-120.5 283.5z" />
<glyph unicode="&#x628;" arabic-form="initial" d="M87 656q0 166 120.5 283t289.5 117q170 0 290.5 -117t120.5 -283t-120.5 -283.5t-290.5 -117.5q-169 0 -289.5 117.5t-120.5 283.5z" />
<glyph unicode="&#x628;" arabic-form="medial" d="M87 656q0 166 120.5 283t289.5 117q170 0 290.5 -117t120.5 -283t-120.5 -283.5t-290.5 -117.5q-169 0 -289.5 117.5t-120.5 283.5z" />
<glyph unicode="&#x629;" arabic-form="final" d="M87 656q0 166 120.5 283t289.5 117q170 0 290.5 -117t120.5 -283t-120.5 -283.5t-290.5 -117.5q-169 0 -289.5 117.5t-120.5 283.5z" />
<glyph unicode="&#x62a;" arabic-form="final" d="M87 656q0 166 120.5 283t289.5 117q170 0 290.5 -117t120.5 -283t-120.5 -283.5t-290.5 -117.5q-169 0 -289.5 117.5t-120.5 283.5z" />
<glyph unicode="&#x62a;" arabic-form="initial" d="M87 656q0 166 120.5 283t289.5 117q170 0 290.5 -117t120.5 -283t-120.5 -283.5t-290.5 -117.5q-169 0 -289.5 117.5t-120.5 283.5z" />
<glyph unicode="&#x62a;" arabic-form="medial" d="M87 656q0 166 120.5 283t289.5 117q170 0 290.5 -117t120.5 -283t-120.5 -283.5t-290.5 -117.5q-169 0 -289.5 117.5t-120.5 283.5z" />
<glyph unicode="&#x62b;" arabic-form="final" d="M87 656q0 166 120.5 283t289.5 117q170 0 290.5 -117t120.5 -283t-120.5 -283.5t-290.5 -117.5q-169 0 -289.5 117.5t-120.5 283.5z" />
<glyph unicode="&#x62b;" arabic-form="initial" d="M87 656q0 166 120.5 283t289.5 117q170 0 290.5 -117t120.5 -283t-120.5 -283.5t-290.5 -117.5q-169 0 -289.5 117.5t-120.5 283.5z" />
<glyph unicode="&#x62b;" arabic-form="medial" d="M87 656q0 166 120.5 283t289.5 117q170 0 290.5 -117t120.5 -283t-120.5 -283.5t-290.5 -117.5q-169 0 -289.5 117.5t-120.5 283.5z" />
<glyph unicode="&#x62c;" arabic-form="final" d="M87 656q0 166 120.5 283t289.5 117q170 0 290.5 -117t120.5 -283t-120.5 -283.5t-290.5 -117.5q-169 0 -289.5 117.5t-120.5 283.5z" />
<glyph unicode="&#x62c;" arabic-form="initial" d="M87 656q0 166 120.5 283t289.5 117q170 0 290.5 -117t120.5 -283t-120.5 -283.5t-290.5 -117.5q-169 0 -289.5 117.5t-120.5 283.5z" />
<glyph unicode="&#x62c;" arabic-form="medial" d="M87 656q0 166 120.5 283t289.5 117q170 0 290.5 -117t120.5 -283t-120.5 -283.5t-290.5 -117.5q-169 0 -289.5 117.5t-120.5 283.5z" />
<glyph unicode="&#x62d;" arabic-form="final" d="M87 656q0 166 120.5 283t289.5 117q170 0 290.5 -117t120.5 -283t-120.5 -283.5t-290.5 -117.5q-169 0 -289.5 117.5t-120.5 283.5z" />
<glyph unicode="&#x62d;" arabic-form="initial" d="M87 656q0 166 120.5 283t289.5 117q170 0 290.5 -117t120.5 -283t-120.5 -283.5t-290.5 -117.5q-169 0 -289.5 117.5t-120.5 283.5z" />
<glyph unicode="&#x62d;" arabic-form="medial" d="M87 656q0 166 120.5 283t289.5 117q170 0 290.5 -117t120.5 -283t-120.5 -283.5t-290.5 -117.5q-169 0 -289.5 117.5t-120.5 283.5z" />
<glyph unicode="&#x62e;" arabic-form="final" d="M87 656q0 166 120.5 283t289.5 117q170 0 290.5 -117t120.5 -283t-120.5 -283.5t-290.5 -117.5q-169 0 -289.5 117.5t-120.5 283.5z" />
<glyph unicode="&#x62e;" arabic-form="initial" d="M87 656q0 166 120.5 283t289.5 117q170 0 290.5 -117t120.5 -283t-120.5 -283.5t-290.5 -117.5q-169 0 -289.5 117.5t-120.5 283.5z" />
<glyph unicode="&#x62e;" arabic-form="medial" d="M87 656q0 166 120.5 283t289.5 117q170 0 290.5 -117t120.5 -283t-120.5 -283.5t-290.5 -117.5q-169 0 -289.5 117.5t-120.5 283.5z" />
<glyph unicode="&#x62f;" arabic-form="final" d="M87 656q0 166 120.5 283t289.5 117q170 0 290.5 -117t120.5 -283t-120.5 -283.5t-290.5 -117.5q-169 0 -289.5 117.5t-120.5 283.5z" />
<glyph unicode="&#x630;" arabic-form="final" d="M87 656q0 166 120.5 283t289.5 117q170 0 290.5 -117t120.5 -283t-120.5 -283.5t-290.5 -117.5q-169 0 -289.5 117.5t-120.5 283.5z" />
<glyph unicode="&#x631;" arabic-form="final" d="M87 656q0 166 120.5 283t289.5 117q170 0 290.5 -117t120.5 -283t-120.5 -283.5t-290.5 -117.5q-169 0 -289.5 117.5t-120.5 283.5z" />
<glyph unicode="&#x632;" arabic-form="final" d="M87 656q0 166 120.5 283t289.5 117q170 0 290.5 -117t120.5 -283t-120.5 -283.5t-290.5 -117.5q-169 0 -289.5 117.5t-120.5 283.5z" />
<glyph unicode="&#x633;" arabic-form="final" d="M87 656q0 166 120.5 283t289.5 117q170 0 290.5 -117t120.5 -283t-120.5 -283.5t-290.5 -117.5q-169 0 -289.5 117.5t-120.5 283.5z" />
<glyph unicode="&#x633;" arabic-form="initial" d="M87 656q0 166 120.5 283t289.5 117q170 0 290.5 -117t120.5 -283t-120.5 -283.5t-290.5 -117.5q-169 0 -289.5 117.5t-120.5 283.5z" />
<glyph unicode="&#x633;" arabic-form="medial" d="M87 656q0 166 120.5 283t289.5 117q170 0 290.5 -117t120.5 -283t-120.5 -283.5t-290.5 -117.5q-169 0 -289.5 117.5t-120.5 283.5z" />
<glyph unicode="&#x634;" arabic-form="final" d="M87 656q0 166 120.5 283t289.5 117q170 0 290.5 -117t120.5 -283t-120.5 -283.5t-290.5 -117.5q-169 0 -289.5 117.5t-120.5 283.5z" />
<glyph unicode="&#x634;" arabic-form="initial" d="M87 656q0 166 120.5 283t289.5 117q170 0 290.5 -117t120.5 -283t-120.5 -283.5t-290.5 -117.5q-169 0 -289.5 117.5t-120.5 283.5z" />
<glyph unicode="&#x634;" arabic-form="medial" d="M87 656q0 166 120.5 283t289.5 117q170 0 290.5 -117t120.5 -283t-120.5 -283.5t-290.5 -117.5q-169 0 -289.5 117.5t-120.5 283.5z" />
<glyph unicode="&#x635;" arabic-form="final" d="M87 656q0 166 120.5 283t289.5 117q170 0 290.5 -117t120.5 -283t-120.5 -283.5t-290.5 -117.5q-169 0 -289.5 117.5t-120.5 283.5z" />
<glyph unicode="&#x635;" arabic-form="initial" d="M87 656q0 166 120.5 283t289.5 117q170 0 290.5 -117t120.5 -283t-120.5 -283.5t-290.5 -117.5q-169 0 -289.5 117.5t-120.5 283.5z" />
<glyph unicode="&#x635;" arabic-form="medial" d="M87 656q0 166 120.5 283t289.5 117q170 0 290.5 -117t120.5 -283t-120.5 -283.5t-290.5 -117.5q-169 0 -289.5 117.5t-120.5 283.5z" />
<glyph unicode="&#x636;" arabic-form="final" d="M87 656q0 166 120.5 283t289.5 117q170 0 290.5 -117t120.5 -283t-120.5 -283.5t-290.5 -117.5q-169 0 -289.5 117.5t-120.5 283.5z" />
<glyph unicode="&#x636;" arabic-form="initial" d="M87 656q0 166 120.5 283t289.5 117q170 0 290.5 -117t120.5 -283t-120.5 -283.5t-290.5 -117.5q-169 0 -289.5 117.5t-120.5 283.5z" />
<glyph unicode="&#x636;" arabic-form="medial" d="M87 656q0 166 120.5 283t289.5 117q170 0 290.5 -117t120.5 -283t-120.5 -283.5t-290.5 -117.5q-169 0 -289.5 117.5t-120.5 283.5z" />
<glyph unicode="&#x637;" arabic-form="final" d="M87 656q0 166 120.5 283t289.5 117q170 0 290.5 -117t120.5 -283t-120.5 -283.5t-290.5 -117.5q-169 0 -289.5 117.5t-120.5 283.5z" />
<glyph unicode="&#x637;" arabic-form="initial" d="M87 656q0 166 120.5 283t289.5 117q170 0 290.5 -117t120.5 -283t-120.5 -283.5t-290.5 -117.5q-169 0 -289.5 117.5t-120.5 283.5z" />
<glyph unicode="&#x637;" arabic-form="medial" d="M87 656q0 166 120.5 283t289.5 117q170 0 290.5 -117t120.5 -283t-120.5 -283.5t-290.5 -117.5q-169 0 -289.5 117.5t-120.5 283.5z" />
<glyph unicode="&#x638;" arabic-form="final" d="M87 656q0 166 120.5 283t289.5 117q170 0 290.5 -117t120.5 -283t-120.5 -283.5t-290.5 -117.5q-169 0 -289.5 117.5t-120.5 283.5z" />
<glyph unicode="&#x638;" arabic-form="initial" d="M87 656q0 166 120.5 283t289.5 117q170 0 290.5 -117t120.5 -283t-120.5 -283.5t-290.5 -117.5q-169 0 -289.5 117.5t-120.5 283.5z" />
<glyph unicode="&#x638;" arabic-form="medial" d="M87 656q0 166 120.5 283t289.5 117q170 0 290.5 -117t120.5 -283t-120.5 -283.5t-290.5 -117.5q-169 0 -289.5 117.5t-120.5 283.5z" />
<glyph unicode="&#x639;" arabic-form="final" d="M87 656q0 166 120.5 283t289.5 117q170 0 290.5 -117t120.5 -283t-120.5 -283.5t-290.5 -117.5q-169 0 -289.5 117.5t-120.5 283.5z" />
<glyph unicode="&#x639;" arabic-form="initial" d="M87 656q0 166 120.5 283t289.5 117q170 0 290.5 -117t120.5 -283t-120.5 -283.5t-290.5 -117.5q-169 0 -289.5 117.5t-120.5 283.5z" />
<glyph unicode="&#x639;" arabic-form="medial" d="M87 656q0 166 120.5 283t289.5 117q170 0 290.5 -117t120.5 -283t-120.5 -283.5t-290.5 -117.5q-169 0 -289.5 117.5t-120.5 283.5z" />
<glyph unicode="&#x63a;" arabic-form="final" d="M87 656q0 166 120.5 283t289.5 117q170 0 290.5 -117t120.5 -283t-120.5 -283.5t-290.5 -117.5q-169 0 -289.5 117.5t-120.5 283.5z" />
<glyph unicode="&#x63a;" arabic-form="initial" d="M87 656q0 166 120.5 283t289.5 117q170 0 290.5 -117t120.5 -283t-120.5 -283.5t-290.5 -117.5q-169 0 -289.5 117.5t-120.5 283.5z" />
<glyph unicode="&#x63a;" arabic-form="medial" d="M87 656q0 166 120.5 283t289.5 117q170 0 290.5 -117t120.5 -283t-120.5 -283.5t-290.5 -117.5q-169 0 -289.5 117.5t-120.5 283.5z" />
<glyph unicode="&#x641;" arabic-form="final" d="M87 656q0 166 120.5 283t289.5 117q170 0 290.5 -117t120.5 -283t-120.5 -283.5t-290.5 -117.5q-169 0 -289.5 117.5t-120.5 283.5z" />
<glyph unicode="&#x641;" arabic-form="initial" d="M87 656q0 166 120.5 283t289.5 117q170 0 290.5 -117t120.5 -283t-120.5 -283.5t-290.5 -117.5q-169 0 -289.5 117.5t-120.5 283.5z" />
<glyph unicode="&#x641;" arabic-form="medial" d="M87 656q0 166 120.5 283t289.5 117q170 0 290.5 -117t120.5 -283t-120.5 -283.5t-290.5 -117.5q-169 0 -289.5 117.5t-120.5 283.5z" />
<glyph unicode="&#x642;" arabic-form="final" d="M87 656q0 166 120.5 283t289.5 117q170 0 290.5 -117t120.5 -283t-120.5 -283.5t-290.5 -117.5q-169 0 -289.5 117.5t-120.5 283.5z" />
<glyph unicode="&#x642;" arabic-form="initial" d="M87 656q0 166 120.5 283t289.5 117q170 0 290.5 -117t120.5 -283t-120.5 -283.5t-290.5 -117.5q-169 0 -289.5 117.5t-120.5 283.5z" />
<glyph unicode="&#x642;" arabic-form="medial" d="M87 656q0 166 120.5 283t289.5 117q170 0 290.5 -117t120.5 -283t-120.5 -283.5t-290.5 -117.5q-169 0 -289.5 117.5t-120.5 283.5z" />
<glyph unicode="&#x643;" arabic-form="final" d="M87 656q0 166 120.5 283t289.5 117q170 0 290.5 -117t120.5 -283t-120.5 -283.5t-290.5 -117.5q-169 0 -289.5 117.5t-120.5 283.5z" />
<glyph unicode="&#x643;" arabic-form="initial" d="M87 656q0 166 120.5 283t289.5 117q170 0 290.5 -117t120.5 -283t-120.5 -283.5t-290.5 -117.5q-169 0 -289.5 117.5t-120.5 283.5z" />
<glyph unicode="&#x643;" arabic-form="medial" d="M87 656q0 166 120.5 283t289.5 117q170 0 290.5 -117t120.5 -283t-120.5 -283.5t-290.5 -117.5q-169 0 -289.5 117.5t-120.5 283.5z" />
<glyph unicode="&#x644;" arabic-form="final" d="M87 656q0 166 120.5 283t289.5 117q170 0 290.5 -117t120.5 -283t-120.5 -283.5t-290.5 -117.5q-169 0 -289.5 117.5t-120.5 283.5z" />
<glyph unicode="&#x644;" arabic-form="initial" d="M87 656q0 166 120.5 283t289.5 117q170 0 290.5 -117t120.5 -283t-120.5 -283.5t-290.5 -117.5q-169 0 -289.5 117.5t-120.5 283.5z" />
<glyph unicode="&#x644;" arabic-form="medial" d="M87 656q0 166 120.5 283t289.5 117q170 0 290.5 -117t120.5 -283t-120.5 -283.5t-290.5 -117.5q-169 0 -289.5 117.5t-120.5 283.5z" />
<glyph unicode="&#x645;" arabic-form="final" d="M87 656q0 166 120.5 283t289.5 117q170 0 290.5 -117t120.5 -283t-120.5 -283.5t-290.5 -117.5q-169 0 -289.5 117.5t-120.5 283.5z" />
<glyph unicode="&#x645;" arabic-form="initial" d="M87 656q0 166 120.5 283t289.5 117q170 0 290.5 -117t120.5 -283t-120.5 -283.5t-290.5 -117.5q-169 0 -289.5 117.5t-120.5 283.5z" />
<glyph unicode="&#x645;" arabic-form="medial" d="M87 656q0 166 120.5 283t289.5 117q170 0 290.5 -117t120.5 -283t-120.5 -283.5t-290.5 -117.5q-169 0 -289.5 117.5t-120.5 283.5z" />
<glyph unicode="&#x646;" arabic-form="final" d="M87 656q0 166 120.5 283t289.5 117q170 0 290.5 -117t120.5 -283t-120.5 -283.5t-290.5 -117.5q-169 0 -289.5 117.5t-120.5 283.5z" />
<glyph unicode="&#x646;" arabic-form="initial" d="M87 656q0 166 120.5 283t289.5 117q170 0 290.5 -117t120.5 -283t-120.5 -283.5t-290.5 -117.5q-169 0 -289.5 117.5t-120.5 283.5z" />
<glyph unicode="&#x646;" arabic-form="medial" d="M87 656q0 166 120.5 283t289.5 117q170 0 290.5 -117t120.5 -283t-120.5 -283.5t-290.5 -117.5q-169 0 -289.5 117.5t-120.5 283.5z" />
<glyph unicode="&#x647;" arabic-form="isolated" d="M87 656q0 166 120.5 283t289.5 117q170 0 290.5 -117t120.5 -283t-120.5 -283.5t-290.5 -117.5q-169 0 -289.5 117.5t-120.5 283.5z" />
<glyph unicode="&#x647;" arabic-form="final" d="M87 656q0 166 120.5 283t289.5 117q170 0 290.5 -117t120.5 -283t-120.5 -283.5t-290.5 -117.5q-169 0 -289.5 117.5t-120.5 283.5z" />
<glyph unicode="&#x647;" arabic-form="medial" d="M87 656q0 166 120.5 283t289.5 117q170 0 290.5 -117t120.5 -283t-120.5 -283.5t-290.5 -117.5q-169 0 -289.5 117.5t-120.5 283.5z" />
<glyph unicode="&#x648;" arabic-form="final" d="M87 656q0 166 120.5 283t289.5 117q170 0 290.5 -117t120.5 -283t-120.5 -283.5t-290.5 -117.5q-169 0 -289.5 117.5t-120.5 283.5z" />
<glyph unicode="&#x649;" arabic-form="final" d="M87 656q0 166 120.5 283t289.5 117q170 0 290.5 -117t120.5 -283t-120.5 -283.5t-290.5 -117.5q-169 0 -289.5 117.5t-120.5 283.5z" />
<glyph unicode="&#x64a;" arabic-form="final" d="M87 656q0 166 120.5 283t289.5 117q170 0 290.5 -117t120.5 -283t-120.5 -283.5t-290.5 -117.5q-169 0 -289.5 117.5t-120.5 283.5z" />
<glyph unicode="&#x64a;" arabic-form="initial" d="M87 656q0 166 120.5 283t289.5 117q170 0 290.5 -117t120.5 -283t-120.5 -283.5t-290.5 -117.5q-169 0 -289.5 117.5t-120.5 283.5z" />
<glyph unicode="&#x64a;" arabic-form="medial" d="M87 656q0 166 120.5 283t289.5 117q170 0 290.5 -117t120.5 -283t-120.5 -283.5t-290.5 -117.5q-169 0 -289.5 117.5t-120.5 283.5z" />
<glyph unicode="&#xd;" horiz-adv-x="569" />
<glyph unicode=" "  horiz-adv-x="569" />
<glyph unicode="&#x09;" horiz-adv-x="569" />
<glyph unicode="&#xa0;" horiz-adv-x="569" />
<glyph unicode="!" d="M87 656q0 166 120.5 283t289.5 117q170 0 290.5 -117t120.5 -283t-120.5 -283.5t-290.5 -117.5q-169 0 -289.5 117.5t-120.5 283.5z" />
<glyph unicode="&#x22;" d="M87 656q0 166 120.5 283t289.5 117q170 0 290.5 -117t120.5 -283t-120.5 -283.5t-290.5 -117.5q-169 0 -289.5 117.5t-120.5 283.5z" />
<glyph unicode="#" d="M87 656q0 166 120.5 283t289.5 117q170 0 290.5 -117t120.5 -283t-120.5 -283.5t-290.5 -117.5q-169 0 -289.5 117.5t-120.5 283.5z" />
<glyph unicode="$" d="M87 656q0 166 120.5 283t289.5 117q170 0 290.5 -117t120.5 -283t-120.5 -283.5t-290.5 -117.5q-169 0 -289.5 117.5t-120.5 283.5z" />
<glyph unicode="%" d="M87 656q0 166 120.5 283t289.5 117q170 0 290.5 -117t120.5 -283t-120.5 -283.5t-290.5 -117.5q-169 0 -289.5 117.5t-120.5 283.5z" />
<glyph unicode="&#x26;" d="M87 656q0 166 120.5 283t289.5 117q170 0 290.5 -117t120.5 -283t-120.5 -283.5t-290.5 -117.5q-169 0 -289.5 117.5t-120.5 283.5z" />
<glyph unicode="'" d="M87 656q0 166 120.5 283t289.5 117q170 0 290.5 -117t120.5 -283t-120.5 -283.5t-290.5 -117.5q-169 0 -289.5 117.5t-120.5 283.5z" />
<glyph unicode="(" d="M87 656q0 166 120.5 283t289.5 117q170 0 290.5 -117t120.5 -283t-120.5 -283.5t-290.5 -117.5q-169 0 -289.5 117.5t-120.5 283.5z" />
<glyph unicode=")" d="M87 656q0 166 120.5 283t289.5 117q170 0 290.5 -117t120.5 -283t-120.5 -283.5t-290.5 -117.5q-169 0 -289.5 117.5t-120.5 283.5z" />
<glyph unicode="*" d="M87 656q0 166 120.5 283t289.5 117q170 0 290.5 -117t120.5 -283t-120.5 -283.5t-290.5 -117.5q-169 0 -289.5 117.5t-120.5 283.5z" />
<glyph unicode="+" d="M87 656q0 166 120.5 283t289.5 117q170 0 290.5 -117t120.5 -283t-120.5 -283.5t-290.5 -117.5q-169 0 -289.5 117.5t-120.5 283.5z" />
<glyph unicode="," d="M87 656q0 166 120.5 283t289.5 117q170 0 290.5 -117t120.5 -283t-120.5 -283.5t-290.5 -117.5q-169 0 -289.5 117.5t-120.5 283.5z" />
<glyph unicode="-" d="M87 656q0 166 120.5 283t289.5 117q170 0 290.5 -117t120.5 -283t-120.5 -283.5t-290.5 -117.5q-169 0 -289.5 117.5t-120.5 283.5z" />
<glyph unicode="." d="M87 656q0 166 120.5 283t289.5 117q170 0 290.5 -117t120.5 -283t-120.5 -283.5t-290.5 -117.5q-169 0 -289.5 117.5t-120.5 283.5z" />
<glyph unicode="/" d="M87 656q0 166 120.5 283t289.5 117q170 0 290.5 -117t120.5 -283t-120.5 -283.5t-290.5 -117.5q-169 0 -289.5 117.5t-120.5 283.5z" />
<glyph unicode="0" d="M87 656q0 166 120.5 283t289.5 117q170 0 290.5 -117t120.5 -283t-120.5 -283.5t-290.5 -117.5q-169 0 -289.5 117.5t-120.5 283.5z" />
<glyph unicode="1" d="M87 656q0 166 120.5 283t289.5 117q170 0 290.5 -117t120.5 -283t-120.5 -283.5t-290.5 -117.5q-169 0 -289.5 117.5t-120.5 283.5z" />
<glyph unicode="2" d="M87 656q0 166 120.5 283t289.5 117q170 0 290.5 -117t120.5 -283t-120.5 -283.5t-290.5 -117.5q-169 0 -289.5 117.5t-120.5 283.5z" />
<glyph unicode="3" d="M87 656q0 166 120.5 283t289.5 117q170 0 290.5 -117t120.5 -283t-120.5 -283.5t-290.5 -117.5q-169 0 -289.5 117.5t-120.5 283.5z" />
<glyph unicode="4" d="M87 656q0 166 120.5 283t289.5 117q170 0 290.5 -117t120.5 -283t-120.5 -283.5t-290.5 -117.5q-169 0 -289.5 117.5t-120.5 283.5z" />
<glyph unicode="5" d="M87 656q0 166 120.5 283t289.5 117q170 0 290.5 -117t120.5 -283t-120.5 -283.5t-290.5 -117.5q-169 0 -289.5 117.5t-120.5 283.5z" />
<glyph unicode="6" d="M87 656q0 166 120.5 283t289.5 117q170 0 290.5 -117t120.5 -283t-120.5 -283.5t-290.5 -117.5q-169 0 -289.5 117.5t-120.5 283.5z" />
<glyph unicode="7" d="M87 656q0 166 120.5 283t289.5 117q170 0 290.5 -117t120.5 -283t-120.5 -283.5t-290.5 -117.5q-169 0 -289.5 117.5t-120.5 283.5z" />
<glyph unicode="8" d="M87 656q0 166 120.5 283t289.5 117q170 0 290.5 -117t120.5 -283t-120.5 -283.5t-290.5 -117.5q-169 0 -289.5 117.5t-120.5 283.5z" />
<glyph unicode="9" d="M87 656q0 166 120.5 283t289.5 117q170 0 290.5 -117t120.5 -283t-120.5 -283.5t-290.5 -117.5q-169 0 -289.5 117.5t-120.5 283.5z" />
<glyph unicode=":" d="M87 656q0 166 120.5 283t289.5 117q170 0 290.5 -117t120.5 -283t-120.5 -283.5t-290.5 -117.5q-169 0 -289.5 117.5t-120.5 283.5z" />
<glyph unicode=";" d="M87 656q0 166 120.5 283t289.5 117q170 0 290.5 -117t120.5 -283t-120.5 -283.5t-290.5 -117.5q-169 0 -289.5 117.5t-120.5 283.5z" />
<glyph unicode="&#x3c;" d="M87 656q0 166 120.5 283t289.5 117q170 0 290.5 -117t120.5 -283t-120.5 -283.5t-290.5 -117.5q-169 0 -289.5 117.5t-120.5 283.5z" />
<glyph unicode="=" d="M87 656q0 166 120.5 283t289.5 117q170 0 290.5 -117t120.5 -283t-120.5 -283.5t-290.5 -117.5q-169 0 -289.5 117.5t-120.5 283.5z" />
<glyph unicode="&#x3e;" d="M87 656q0 166 120.5 283t289.5 117q170 0 290.5 -117t120.5 -283t-120.5 -283.5t-290.5 -117.5q-169 0 -289.5 117.5t-120.5 283.5z" />
<glyph unicode="?" d="M87 656q0 166 120.5 283t289.5 117q170 0 290.5 -117t120.5 -283t-120.5 -283.5t-290.5 -117.5q-169 0 -289.5 117.5t-120.5 283.5z" />
<glyph unicode="@" d="M87 656q0 166 120.5 283t289.5 117q170 0 290.5 -117t120.5 -283t-120.5 -283.5t-290.5 -117.5q-169 0 -289.5 117.5t-120.5 283.5z" />
<glyph unicode="A" d="M87 656q0 166 120.5 283t289.5 117q170 0 290.5 -117t120.5 -283t-120.5 -283.5t-290.5 -117.5q-169 0 -289.5 117.5t-120.5 283.5z" />
<glyph unicode="B" d="M87 656q0 166 120.5 283t289.5 117q170 0 290.5 -117t120.5 -283t-120.5 -283.5t-290.5 -117.5q-169 0 -289.5 117.5t-120.5 283.5z" />
<glyph unicode="C" d="M87 656q0 166 120.5 283t289.5 117q170 0 290.5 -117t120.5 -283t-120.5 -283.5t-290.5 -117.5q-169 0 -289.5 117.5t-120.5 283.5z" />
<glyph unicode="D" d="M87 656q0 166 120.5 283t289.5 117q170 0 290.5 -117t120.5 -283t-120.5 -283.5t-290.5 -117.5q-169 0 -289.5 117.5t-120.5 283.5z" />
<glyph unicode="E" d="M87 656q0 166 120.5 283t289.5 117q170 0 290.5 -117t120.5 -283t-120.5 -283.5t-290.5 -117.5q-169 0 -289.5 117.5t-120.5 283.5z" />
<glyph unicode="F" d="M87 656q0 166 120.5 283t289.5 117q170 0 290.5 -117t120.5 -283t-120.5 -283.5t-290.5 -117.5q-169 0 -289.5 117.5t-120.5 283.5z" />
<glyph unicode="G" d="M87 656q0 166 120.5 283t289.5 117q170 0 290.5 -117t120.5 -283t-120.5 -283.5t-290.5 -117.5q-169 0 -289.5 117.5t-120.5 283.5z" />
<glyph unicode="H" d="M87 656q0 166 120.5 283t289.5 117q170 0 290.5 -117t120.5 -283t-120.5 -283.5t-290.5 -117.5q-169 0 -289.5 117.5t-120.5 283.5z" />
<glyph unicode="I" d="M87 656q0 166 120.5 283t289.5 117q170 0 290.5 -117t120.5 -283t-120.5 -283.5t-290.5 -117.5q-169 0 -289.5 117.5t-120.5 283.5z" />
<glyph unicode="J" d="M87 656q0 166 120.5 283t289.5 117q170 0 290.5 -117t120.5 -283t-120.5 -283.5t-290.5 -117.5q-169 0 -289.5 117.5t-120.5 283.5z" />
<glyph unicode="K" d="M87 656q0 166 120.5 283t289.5 117q170 0 290.5 -117t120.5 -283t-120.5 -283.5t-290.5 -117.5q-169 0 -289.5 117.5t-120.5 283.5z" />
<glyph unicode="L" d="M87 656q0 166 120.5 283t289.5 117q170 0 290.5 -117t120.5 -283t-120.5 -283.5t-290.5 -117.5q-169 0 -289.5 117.5t-120.5 283.5z" />
<glyph unicode="M" d="M87 656q0 166 120.5 283t289.5 117q170 0 290.5 -117t120.5 -283t-120.5 -283.5t-290.5 -117.5q-169 0 -289.5 117.5t-120.5 283.5z" />
<glyph unicode="N" d="M87 656q0 166 120.5 283t289.5 117q170 0 290.5 -117t120.5 -283t-120.5 -283.5t-290.5 -117.5q-169 0 -289.5 117.5t-120.5 283.5z" />
<glyph unicode="O" d="M87 656q0 166 120.5 283t289.5 117q170 0 290.5 -117t120.5 -283t-120.5 -283.5t-290.5 -117.5q-169 0 -289.5 117.5t-120.5 283.5z" />
<glyph unicode="P" d="M87 656q0 166 120.5 283t289.5 117q170 0 290.5 -117t120.5 -283t-120.5 -283.5t-290.5 -117.5q-169 0 -289.5 117.5t-120.5 283.5z" />
<glyph unicode="Q" d="M87 656q0 166 120.5 283t289.5 117q170 0 290.5 -117t120.5 -283t-120.5 -283.5t-290.5 -117.5q-169 0 -289.5 117.5t-120.5 283.5z" />
<glyph unicode="R" d="M87 656q0 166 120.5 283t289.5 117q170 0 290.5 -117t120.5 -283t-120.5 -283.5t-290.5 -117.5q-169 0 -289.5 117.5t-120.5 283.5z" />
<glyph unicode="S" d="M87 656q0 166 120.5 283t289.5 117q170 0 290.5 -117t120.5 -283t-120.5 -283.5t-290.5 -117.5q-169 0 -289.5 117.5t-120.5 283.5z" />
<glyph unicode="T" d="M87 656q0 166 120.5 283t289.5 117q170 0 290.5 -117t120.5 -283t-120.5 -283.5t-290.5 -117.5q-169 0 -289.5 117.5t-120.5 283.5z" />
<glyph unicode="U" d="M87 656q0 166 120.5 283t289.5 117q170 0 290.5 -117t120.5 -283t-120.5 -283.5t-290.5 -117.5q-169 0 -289.5 117.5t-120.5 283.5z" />
<glyph unicode="V" d="M87 656q0 166 120.5 283t289.5 117q170 0 290.5 -117t120.5 -283t-120.5 -283.5t-290.5 -117.5q-169 0 -289.5 117.5t-120.5 283.5z" />
<glyph unicode="W" d="M87 656q0 166 120.5 283t289.5 117q170 0 290.5 -117t120.5 -283t-120.5 -283.5t-290.5 -117.5q-169 0 -289.5 117.5t-120.5 283.5z" />
<glyph unicode="X" d="M87 656q0 166 120.5 283t289.5 117q170 0 290.5 -117t120.5 -283t-120.5 -283.5t-290.5 -117.5q-169 0 -289.5 117.5t-120.5 283.5z" />
<glyph unicode="Y" d="M87 656q0 166 120.5 283t289.5 117q170 0 290.5 -117t120.5 -283t-120.5 -283.5t-290.5 -117.5q-169 0 -289.5 117.5t-120.5 283.5z" />
<glyph unicode="Z" d="M87 656q0 166 120.5 283t289.5 117q170 0 290.5 -117t120.5 -283t-120.5 -283.5t-290.5 -117.5q-169 0 -289.5 117.5t-120.5 283.5z" />
<glyph unicode="[" d="M87 656q0 166 120.5 283t289.5 117q170 0 290.5 -117t120.5 -283t-120.5 -283.5t-290.5 -117.5q-169 0 -289.5 117.5t-120.5 283.5z" />
<glyph unicode="\" d="M87 656q0 166 120.5 283t289.5 117q170 0 290.5 -117t120.5 -283t-120.5 -283.5t-290.5 -117.5q-169 0 -289.5 117.5t-120.5 283.5z" />
<glyph unicode="]" d="M87 656q0 166 120.5 283t289.5 117q170 0 290.5 -117t120.5 -283t-120.5 -283.5t-290.5 -117.5q-169 0 -289.5 117.5t-120.5 283.5z" />
<glyph unicode="^" d="M87 656q0 166 120.5 283t289.5 117q170 0 290.5 -117t120.5 -283t-120.5 -283.5t-290.5 -117.5q-169 0 -289.5 117.5t-120.5 283.5z" />
<glyph unicode="_" d="M87 656q0 166 120.5 283t289.5 117q170 0 290.5 -117t120.5 -283t-120.5 -283.5t-290.5 -117.5q-169 0 -289.5 117.5t-120.5 283.5z" />
<glyph unicode="`" d="M87 656q0 166 120.5 283t289.5 117q170 0 290.5 -117t120.5 -283t-120.5 -283.5t-290.5 -117.5q-169 0 -289.5 117.5t-120.5 283.5z" />
<glyph unicode="a" d="M87 656q0 166 120.5 283t289.5 117q170 0 290.5 -117t120.5 -283t-120.5 -283.5t-290.5 -117.5q-169 0 -289.5 117.5t-120.5 283.5z" />
<glyph unicode="b" d="M87 656q0 166 120.5 283t289.5 117q170 0 290.5 -117t120.5 -283t-120.5 -283.5t-290.5 -117.5q-169 0 -289.5 117.5t-120.5 283.5z" />
<glyph unicode="c" d="M87 656q0 166 120.5 283t289.5 117q170 0 290.5 -117t120.5 -283t-120.5 -283.5t-290.5 -117.5q-169 0 -289.5 117.5t-120.5 283.5z" />
<glyph unicode="d" d="M87 656q0 166 120.5 283t289.5 117q170 0 290.5 -117t120.5 -283t-120.5 -283.5t-290.5 -117.5q-169 0 -289.5 117.5t-120.5 283.5z" />
<glyph unicode="e" d="M87 656q0 166 120.5 283t289.5 117q170 0 290.5 -117t120.5 -283t-120.5 -283.5t-290.5 -117.5q-169 0 -289.5 117.5t-120.5 283.5z" />
<glyph unicode="f" d="M87 656q0 166 120.5 283t289.5 117q170 0 290.5 -117t120.5 -283t-120.5 -283.5t-290.5 -117.5q-169 0 -289.5 117.5t-120.5 283.5z" />
<glyph unicode="g" d="M87 656q0 166 120.5 283t289.5 117q170 0 290.5 -117t120.5 -283t-120.5 -283.5t-290.5 -117.5q-169 0 -289.5 117.5t-120.5 283.5z" />
<glyph unicode="h" d="M87 656q0 166 120.5 283t289.5 117q170 0 290.5 -117t120.5 -283t-120.5 -283.5t-290.5 -117.5q-169 0 -289.5 117.5t-120.5 283.5z" />
<glyph unicode="i" d="M87 656q0 166 120.5 283t289.5 117q170 0 290.5 -117t120.5 -283t-120.5 -283.5t-290.5 -117.5q-169 0 -289.5 117.5t-120.5 283.5z" />
<glyph unicode="j" d="M87 656q0 166 120.5 283t289.5 117q170 0 290.5 -117t120.5 -283t-120.5 -283.5t-290.5 -117.5q-169 0 -289.5 117.5t-120.5 283.5z" />
<glyph unicode="k" d="M87 656q0 166 120.5 283t289.5 117q170 0 290.5 -117t120.5 -283t-120.5 -283.5t-290.5 -117.5q-169 0 -289.5 117.5t-120.5 283.5z" />
<glyph unicode="l" d="M87 656q0 166 120.5 283t289.5 117q170 0 290.5 -117t120.5 -283t-120.5 -283.5t-290.5 -117.5q-169 0 -289.5 117.5t-120.5 283.5z" />
<glyph unicode="m" d="M87 656q0 166 120.5 283t289.5 117q170 0 290.5 -117t120.5 -283t-120.5 -283.5t-290.5 -117.5q-169 0 -289.5 117.5t-120.5 283.5z" />
<glyph unicode="n" d="M87 656q0 166 120.5 283t289.5 117q170 0 290.5 -117t120.5 -283t-120.5 -283.5t-290.5 -117.5q-169 0 -289.5 117.5t-120.5 283.5z" />
<glyph unicode="o" d="M87 656q0 166 120.5 283t289.5 117q170 0 290.5 -117t120.5 -283t-120.5 -283.5t-290.5 -117.5q-169 0 -289.5 117.5t-120.5 283.5z" />
<glyph unicode="p" d="M87 656q0 166 120.5 283t289.5 117q170 0 290.5 -117t120.5 -283t-120.5 -283.5t-290.5 -117.5q-169 0 -289.5 117.5t-120.5 283.5z" />
<glyph unicode="q" d="M87 656q0 166 120.5 283t289.5 117q170 0 290.5 -117t120.5 -283t-120.5 -283.5t-290.5 -117.5q-169 0 -289.5 117.5t-120.5 283.5z" />
<glyph unicode="r" d="M87 656q0 166 120.5 283t289.5 117q170 0 290.5 -117t120.5 -283t-120.5 -283.5t-290.5 -117.5q-169 0 -289.5 117.5t-120.5 283.5z" />
<glyph unicode="s" d="M87 656q0 166 120.5 283t289.5 117q170 0 290.5 -117t120.5 -283t-120.5 -283.5t-290.5 -117.5q-169 0 -289.5 117.5t-120.5 283.5z" />
<glyph unicode="t" d="M87 656q0 166 120.5 283t289.5 117q170 0 290.5 -117t120.5 -283t-120.5 -283.5t-290.5 -117.5q-169 0 -289.5 117.5t-120.5 283.5z" />
<glyph unicode="u" d="M87 656q0 166 120.5 283t289.5 117q170 0 290.5 -117t120.5 -283t-120.5 -283.5t-290.5 -117.5q-169 0 -289.5 117.5t-120.5 283.5z" />
<glyph unicode="v" d="M87 656q0 166 120.5 283t289.5 117q170 0 290.5 -117t120.5 -283t-120.5 -283.5t-290.5 -117.5q-169 0 -289.5 117.5t-120.5 283.5z" />
<glyph unicode="w" d="M87 656q0 166 120.5 283t289.5 117q170 0 290.5 -117t120.5 -283t-120.5 -283.5t-290.5 -117.5q-169 0 -289.5 117.5t-120.5 283.5z" />
<glyph unicode="x" d="M87 656q0 166 120.5 283t289.5 117q170 0 290.5 -117t120.5 -283t-120.5 -283.5t-290.5 -117.5q-169 0 -289.5 117.5t-120.5 283.5z" />
<glyph unicode="y" d="M87 656q0 166 120.5 283t289.5 117q170 0 290.5 -117t120.5 -283t-120.5 -283.5t-290.5 -117.5q-169 0 -289.5 117.5t-120.5 283.5z" />
<glyph unicode="z" d="M87 656q0 166 120.5 283t289.5 117q170 0 290.5 -117t120.5 -283t-120.5 -283.5t-290.5 -117.5q-169 0 -289.5 117.5t-120.5 283.5z" />
<glyph unicode="{" d="M87 656q0 166 120.5 283t289.5 117q170 0 290.5 -117t120.5 -283t-120.5 -283.5t-290.5 -117.5q-169 0 -289.5 117.5t-120.5 283.5z" />
<glyph unicode="|" d="M87 656q0 166 120.5 283t289.5 117q170 0 290.5 -117t120.5 -283t-120.5 -283.5t-290.5 -117.5q-169 0 -289.5 117.5t-120.5 283.5z" />
<glyph unicode="}" d="M87 656q0 166 120.5 283t289.5 117q170 0 290.5 -117t120.5 -283t-120.5 -283.5t-290.5 -117.5q-169 0 -289.5 117.5t-120.5 283.5z" />
<glyph unicode="~" d="M87 656q0 166 120.5 283t289.5 117q170 0 290.5 -117t120.5 -283t-120.5 -283.5t-290.5 -117.5q-169 0 -289.5 117.5t-120.5 283.5z" />
<glyph unicode="&#xa1;" d="M87 656q0 166 120.5 283t289.5 117q170 0 290.5 -117t120.5 -283t-120.5 -283.5t-290.5 -117.5q-169 0 -289.5 117.5t-120.5 283.5z" />
<glyph unicode="&#xa2;" d="M87 656q0 166 120.5 283t289.5 117q170 0 290.5 -117t120.5 -283t-120.5 -283.5t-290.5 -117.5q-169 0 -289.5 117.5t-120.5 283.5z" />
<glyph unicode="&#xa3;" d="M87 656q0 166 120.5 283t289.5 117q170 0 290.5 -117t120.5 -283t-120.5 -283.5t-290.5 -117.5q-169 0 -289.5 117.5t-120.5 283.5z" />
<glyph unicode="&#xa4;" d="M87 656q0 166 120.5 283t289.5 117q170 0 290.5 -117t120.5 -283t-120.5 -283.5t-290.5 -117.5q-169 0 -289.5 117.5t-120.5 283.5z" />
<glyph unicode="&#xa5;" d="M87 656q0 166 120.5 283t289.5 117q170 0 290.5 -117t120.5 -283t-120.5 -283.5t-290.5 -117.5q-169 0 -289.5 117.5t-120.5 283.5z" />
<glyph unicode="&#xa6;" d="M87 656q0 166 120.5 283t289.5 117q170 0 290.5 -117t120.5 -283t-120.5 -283.5t-290.5 -117.5q-169 0 -289.5 117.5t-120.5 283.5z" />
<glyph unicode="&#xa7;" d="M87 656q0 166 120.5 283t289.5 117q170 0 290.5 -117t120.5 -283t-120.5 -283.5t-290.5 -117.5q-169 0 -289.5 117.5t-120.5 283.5z" />
<glyph unicode="&#xa8;" d="M87 656q0 166 120.5 283t289.5 117q170 0 290.5 -117t120.5 -283t-120.5 -283.5t-290.5 -117.5q-169 0 -289.5 117.5t-120.5 283.5z" />
<glyph unicode="&#xa9;" d="M87 656q0 166 120.5 283t289.5 117q170 0 290.5 -117t120.5 -283t-120.5 -283.5t-290.5 -117.5q-169 0 -289.5 117.5t-120.5 283.5z" />
<glyph unicode="&#xaa;" d="M87 656q0 166 120.5 283t289.5 117q170 0 290.5 -117t120.5 -283t-120.5 -283.5t-290.5 -117.5q-169 0 -289.5 117.5t-120.5 283.5z" />
<glyph unicode="&#xab;" d="M87 656q0 166 120.5 283t289.5 117q170 0 290.5 -117t120.5 -283t-120.5 -283.5t-290.5 -117.5q-169 0 -289.5 117.5t-120.5 283.5z" />
<glyph unicode="&#xac;" d="M87 656q0 166 120.5 283t289.5 117q170 0 290.5 -117t120.5 -283t-120.5 -283.5t-290.5 -117.5q-169 0 -289.5 117.5t-120.5 283.5z" />
<glyph unicode="&#xae;" d="M87 656q0 166 120.5 283t289.5 117q170 0 290.5 -117t120.5 -283t-120.5 -283.5t-290.5 -117.5q-169 0 -289.5 117.5t-120.5 283.5z" />
<glyph unicode="&#xaf;" d="M87 656q0 166 120.5 283t289.5 117q170 0 290.5 -117t120.5 -283t-120.5 -283.5t-290.5 -117.5q-169 0 -289.5 117.5t-120.5 283.5z" />
<glyph unicode="&#xb0;" d="M87 656q0 166 120.5 283t289.5 117q170 0 290.5 -117t120.5 -283t-120.5 -283.5t-290.5 -117.5q-169 0 -289.5 117.5t-120.5 283.5z" />
<glyph unicode="&#xb1;" d="M87 656q0 166 120.5 283t289.5 117q170 0 290.5 -117t120.5 -283t-120.5 -283.5t-290.5 -117.5q-169 0 -289.5 117.5t-120.5 283.5z" />
<glyph unicode="&#xb2;" d="M87 656q0 166 120.5 283t289.5 117q170 0 290.5 -117t120.5 -283t-120.5 -283.5t-290.5 -117.5q-169 0 -289.5 117.5t-120.5 283.5z" />
<glyph unicode="&#xb3;" d="M87 656q0 166 120.5 283t289.5 117q170 0 290.5 -117t120.5 -283t-120.5 -283.5t-290.5 -117.5q-169 0 -289.5 117.5t-120.5 283.5z" />
<glyph unicode="&#xb4;" d="M87 656q0 166 120.5 283t289.5 117q170 0 290.5 -117t120.5 -283t-120.5 -283.5t-290.5 -117.5q-169 0 -289.5 117.5t-120.5 283.5z" />
<glyph unicode="&#xb5;" d="M87 656q0 166 120.5 283t289.5 117q170 0 290.5 -117t120.5 -283t-120.5 -283.5t-290.5 -117.5q-169 0 -289.5 117.5t-120.5 283.5z" />
<glyph unicode="&#xb6;" d="M87 656q0 166 120.5 283t289.5 117q170 0 290.5 -117t120.5 -283t-120.5 -283.5t-290.5 -117.5q-169 0 -289.5 117.5t-120.5 283.5z" />
<glyph unicode="&#xb7;" d="M87 656q0 166 120.5 283t289.5 117q170 0 290.5 -117t120.5 -283t-120.5 -283.5t-290.5 -117.5q-169 0 -289.5 117.5t-120.5 283.5z" />
<glyph unicode="&#xb8;" d="M87 656q0 166 120.5 283t289.5 117q170 0 290.5 -117t120.5 -283t-120.5 -283.5t-290.5 -117.5q-169 0 -289.5 117.5t-120.5 283.5z" />
<glyph unicode="&#xb9;" d="M87 656q0 166 120.5 283t289.5 117q170 0 290.5 -117t120.5 -283t-120.5 -283.5t-290.5 -117.5q-169 0 -289.5 117.5t-120.5 283.5z" />
<glyph unicode="&#xba;" d="M87 656q0 166 120.5 283t289.5 117q170 0 290.5 -117t120.5 -283t-120.5 -283.5t-290.5 -117.5q-169 0 -289.5 117.5t-120.5 283.5z" />
<glyph unicode="&#xbb;" d="M87 656q0 166 120.5 283t289.5 117q170 0 290.5 -117t120.5 -283t-120.5 -283.5t-290.5 -117.5q-169 0 -289.5 117.5t-120.5 283.5z" />
<glyph unicode="&#xbc;" d="M87 656q0 166 120.5 283t289.5 117q170 0 290.5 -117t120.5 -283t-120.5 -283.5t-290.5 -117.5q-169 0 -289.5 117.5t-120.5 283.5z" />
<glyph unicode="&#xbd;" d="M87 656q0 166 120.5 283t289.5 117q170 0 290.5 -117t120.5 -283t-120.5 -283.5t-290.5 -117.5q-169 0 -289.5 117.5t-120.5 283.5z" />
<glyph unicode="&#xbe;" d="M87 656q0 166 120.5 283t289.5 117q170 0 290.5 -117t120.5 -283t-120.5 -283.5t-290.5 -117.5q-169 0 -289.5 117.5t-120.5 283.5z" />
<glyph unicode="&#xbf;" d="M87 656q0 166 120.5 283t289.5 117q170 0 290.5 -117t120.5 -283t-120.5 -283.5t-290.5 -117.5q-169 0 -289.5 117.5t-120.5 283.5z" />
<glyph unicode="&#xc0;" d="M87 656q0 166 120.5 283t289.5 117q170 0 290.5 -117t120.5 -283t-120.5 -283.5t-290.5 -117.5q-169 0 -289.5 117.5t-120.5 283.5z" />
<glyph unicode="&#xc1;" d="M87 656q0 166 120.5 283t289.5 117q170 0 290.5 -117t120.5 -283t-120.5 -283.5t-290.5 -117.5q-169 0 -289.5 117.5t-120.5 283.5z" />
<glyph unicode="&#xc2;" d="M87 656q0 166 120.5 283t289.5 117q170 0 290.5 -117t120.5 -283t-120.5 -283.5t-290.5 -117.5q-169 0 -289.5 117.5t-120.5 283.5z" />
<glyph unicode="&#xc3;" d="M87 656q0 166 120.5 283t289.5 117q170 0 290.5 -117t120.5 -283t-120.5 -283.5t-290.5 -117.5q-169 0 -289.5 117.5t-120.5 283.5z" />
<glyph unicode="&#xc4;" d="M87 656q0 166 120.5 283t289.5 117q170 0 290.5 -117t120.5 -283t-120.5 -283.5t-290.5 -117.5q-169 0 -289.5 117.5t-120.5 283.5z" />
<glyph unicode="&#xc5;" d="M87 656q0 166 120.5 283t289.5 117q170 0 290.5 -117t120.5 -283t-120.5 -283.5t-290.5 -117.5q-169 0 -289.5 117.5t-120.5 283.5z" />
<glyph unicode="&#xc6;" d="M87 656q0 166 120.5 283t289.5 117q170 0 290.5 -117t120.5 -283t-120.5 -283.5t-290.5 -117.5q-169 0 -289.5 117.5t-120.5 283.5z" />
<glyph unicode="&#xc7;" d="M87 656q0 166 120.5 283t289.5 117q170 0 290.5 -117t120.5 -283t-120.5 -283.5t-290.5 -117.5q-169 0 -289.5 117.5t-120.5 283.5z" />
<glyph unicode="&#xc8;" d="M87 656q0 166 120.5 283t289.5 117q170 0 290.5 -117t120.5 -283t-120.5 -283.5t-290.5 -117.5q-169 0 -289.5 117.5t-120.5 283.5z" />
<glyph unicode="&#xc9;" d="M87 656q0 166 120.5 283t289.5 117q170 0 290.5 -117t120.5 -283t-120.5 -283.5t-290.5 -117.5q-169 0 -289.5 117.5t-120.5 283.5z" />
<glyph unicode="&#xca;" d="M87 656q0 166 120.5 283t289.5 117q170 0 290.5 -117t120.5 -283t-120.5 -283.5t-290.5 -117.5q-169 0 -289.5 117.5t-120.5 283.5z" />
<glyph unicode="&#xcb;" d="M87 656q0 166 120.5 283t289.5 117q170 0 290.5 -117t120.5 -283t-120.5 -283.5t-290.5 -117.5q-169 0 -289.5 117.5t-120.5 283.5z" />
<glyph unicode="&#xcc;" d="M87 656q0 166 120.5 283t289.5 117q170 0 290.5 -117t120.5 -283t-120.5 -283.5t-290.5 -117.5q-169 0 -289.5 117.5t-120.5 283.5z" />
<glyph unicode="&#xcd;" d="M87 656q0 166 120.5 283t289.5 117q170 0 290.5 -117t120.5 -283t-120.5 -283.5t-290.5 -117.5q-169 0 -289.5 117.5t-120.5 283.5z" />
<glyph unicode="&#xce;" d="M87 656q0 166 120.5 283t289.5 117q170 0 290.5 -117t120.5 -283t-120.5 -283.5t-290.5 -117.5q-169 0 -289.5 117.5t-120.5 283.5z" />
<glyph unicode="&#xcf;" d="M87 656q0 166 120.5 283t289.5 117q170 0 290.5 -117t120.5 -283t-120.5 -283.5t-290.5 -117.5q-169 0 -289.5 117.5t-120.5 283.5z" />
<glyph unicode="&#xd0;" d="M87 656q0 166 120.5 283t289.5 117q170 0 290.5 -117t120.5 -283t-120.5 -283.5t-290.5 -117.5q-169 0 -289.5 117.5t-120.5 283.5z" />
<glyph unicode="&#xd1;" d="M87 656q0 166 120.5 283t289.5 117q170 0 290.5 -117t120.5 -283t-120.5 -283.5t-290.5 -117.5q-169 0 -289.5 117.5t-120.5 283.5z" />
<glyph unicode="&#xd2;" d="M87 656q0 166 120.5 283t289.5 117q170 0 290.5 -117t120.5 -283t-120.5 -283.5t-290.5 -117.5q-169 0 -289.5 117.5t-120.5 283.5z" />
<glyph unicode="&#xd3;" d="M87 656q0 166 120.5 283t289.5 117q170 0 290.5 -117t120.5 -283t-120.5 -283.5t-290.5 -117.5q-169 0 -289.5 117.5t-120.5 283.5z" />
<glyph unicode="&#xd4;" d="M87 656q0 166 120.5 283t289.5 117q170 0 290.5 -117t120.5 -283t-120.5 -283.5t-290.5 -117.5q-169 0 -289.5 117.5t-120.5 283.5z" />
<glyph unicode="&#xd5;" d="M87 656q0 166 120.5 283t289.5 117q170 0 290.5 -117t120.5 -283t-120.5 -283.5t-290.5 -117.5q-169 0 -289.5 117.5t-120.5 283.5z" />
<glyph unicode="&#xd6;" d="M87 656q0 166 120.5 283t289.5 117q170 0 290.5 -117t120.5 -283t-120.5 -283.5t-290.5 -117.5q-169 0 -289.5 117.5t-120.5 283.5z" />
<glyph unicode="&#xd7;" d="M87 656q0 166 120.5 283t289.5 117q170 0 290.5 -117t120.5 -283t-120.5 -283.5t-290.5 -117.5q-169 0 -289.5 117.5t-120.5 283.5z" />
<glyph unicode="&#xd8;" d="M87 656q0 166 120.5 283t289.5 117q170 0 290.5 -117t120.5 -283t-120.5 -283.5t-290.5 -117.5q-169 0 -289.5 117.5t-120.5 283.5z" />
<glyph unicode="&#xd9;" d="M87 656q0 166 120.5 283t289.5 117q170 0 290.5 -117t120.5 -283t-120.5 -283.5t-290.5 -117.5q-169 0 -289.5 117.5t-120.5 283.5z" />
<glyph unicode="&#xda;" d="M87 656q0 166 120.5 283t289.5 117q170 0 290.5 -117t120.5 -283t-120.5 -283.5t-290.5 -117.5q-169 0 -289.5 117.5t-120.5 283.5z" />
<glyph unicode="&#xdb;" d="M87 656q0 166 120.5 283t289.5 117q170 0 290.5 -117t120.5 -283t-120.5 -283.5t-290.5 -117.5q-169 0 -289.5 117.5t-120.5 283.5z" />
<glyph unicode="&#xdc;" d="M87 656q0 166 120.5 283t289.5 117q170 0 290.5 -117t120.5 -283t-120.5 -283.5t-290.5 -117.5q-169 0 -289.5 117.5t-120.5 283.5z" />
<glyph unicode="&#xdd;" d="M87 656q0 166 120.5 283t289.5 117q170 0 290.5 -117t120.5 -283t-120.5 -283.5t-290.5 -117.5q-169 0 -289.5 117.5t-120.5 283.5z" />
<glyph unicode="&#xde;" d="M87 656q0 166 120.5 283t289.5 117q170 0 290.5 -117t120.5 -283t-120.5 -283.5t-290.5 -117.5q-169 0 -289.5 117.5t-120.5 283.5z" />
<glyph unicode="&#xdf;" d="M87 656q0 166 120.5 283t289.5 117q170 0 290.5 -117t120.5 -283t-120.5 -283.5t-290.5 -117.5q-169 0 -289.5 117.5t-120.5 283.5z" />
<glyph unicode="&#xe0;" d="M87 656q0 166 120.5 283t289.5 117q170 0 290.5 -117t120.5 -283t-120.5 -283.5t-290.5 -117.5q-169 0 -289.5 117.5t-120.5 283.5z" />
<glyph unicode="&#xe1;" d="M87 656q0 166 120.5 283t289.5 117q170 0 290.5 -117t120.5 -283t-120.5 -283.5t-290.5 -117.5q-169 0 -289.5 117.5t-120.5 283.5z" />
<glyph unicode="&#xe2;" d="M87 656q0 166 120.5 283t289.5 117q170 0 290.5 -117t120.5 -283t-120.5 -283.5t-290.5 -117.5q-169 0 -289.5 117.5t-120.5 283.5z" />
<glyph unicode="&#xe3;" d="M87 656q0 166 120.5 283t289.5 117q170 0 290.5 -117t120.5 -283t-120.5 -283.5t-290.5 -117.5q-169 0 -289.5 117.5t-120.5 283.5z" />
<glyph unicode="&#xe4;" d="M87 656q0 166 120.5 283t289.5 117q170 0 290.5 -117t120.5 -283t-120.5 -283.5t-290.5 -117.5q-169 0 -289.5 117.5t-120.5 283.5z" />
<glyph unicode="&#xe5;" d="M87 656q0 166 120.5 283t289.5 117q170 0 290.5 -117t120.5 -283t-120.5 -283.5t-290.5 -117.5q-169 0 -289.5 117.5t-120.5 283.5z" />
<glyph unicode="&#xe6;" d="M87 656q0 166 120.5 283t289.5 117q170 0 290.5 -117t120.5 -283t-120.5 -283.5t-290.5 -117.5q-169 0 -289.5 117.5t-120.5 283.5z" />
<glyph unicode="&#xe7;" d="M87 656q0 166 120.5 283t289.5 117q170 0 290.5 -117t120.5 -283t-120.5 -283.5t-290.5 -117.5q-169 0 -289.5 117.5t-120.5 283.5z" />
<glyph unicode="&#xe8;" d="M87 656q0 166 120.5 283t289.5 117q170 0 290.5 -117t120.5 -283t-120.5 -283.5t-290.5 -117.5q-169 0 -289.5 117.5t-120.5 283.5z" />
<glyph unicode="&#xe9;" d="M87 656q0 166 120.5 283t289.5 117q170 0 290.5 -117t120.5 -283t-120.5 -283.5t-290.5 -117.5q-169 0 -289.5 117.5t-120.5 283.5z" />
<glyph unicode="&#xea;" d="M87 656q0 166 120.5 283t289.5 117q170 0 290.5 -117t120.5 -283t-120.5 -283.5t-290.5 -117.5q-169 0 -289.5 117.5t-120.5 283.5z" />
<glyph unicode="&#xeb;" d="M87 656q0 166 120.5 283t289.5 117q170 0 290.5 -117t120.5 -283t-120.5 -283.5t-290.5 -117.5q-169 0 -289.5 117.5t-120.5 283.5z" />
<glyph unicode="&#xec;" d="M87 656q0 166 120.5 283t289.5 117q170 0 290.5 -117t120.5 -283t-120.5 -283.5t-290.5 -117.5q-169 0 -289.5 117.5t-120.5 283.5z" />
<glyph unicode="&#xed;" d="M87 656q0 166 120.5 283t289.5 117q170 0 290.5 -117t120.5 -283t-120.5 -283.5t-290.5 -117.5q-169 0 -289.5 117.5t-120.5 283.5z" />
<glyph unicode="&#xee;" d="M87 656q0 166 120.5 283t289.5 117q170 0 290.5 -117t120.5 -283t-120.5 -283.5t-290.5 -117.5q-169 0 -289.5 117.5t-120.5 283.5z" />
<glyph unicode="&#xef;" d="M87 656q0 166 120.5 283t289.5 117q170 0 290.5 -117t120.5 -283t-120.5 -283.5t-290.5 -117.5q-169 0 -289.5 117.5t-120.5 283.5z" />
<glyph unicode="&#xf0;" d="M87 656q0 166 120.5 283t289.5 117q170 0 290.5 -117t120.5 -283t-120.5 -283.5t-290.5 -117.5q-169 0 -289.5 117.5t-120.5 283.5z" />
<glyph unicode="&#xf1;" d="M87 656q0 166 120.5 283t289.5 117q170 0 290.5 -117t120.5 -283t-120.5 -283.5t-290.5 -117.5q-169 0 -289.5 117.5t-120.5 283.5z" />
<glyph unicode="&#xf2;" d="M87 656q0 166 120.5 283t289.5 117q170 0 290.5 -117t120.5 -283t-120.5 -283.5t-290.5 -117.5q-169 0 -289.5 117.5t-120.5 283.5z" />
<glyph unicode="&#xf3;" d="M87 656q0 166 120.5 283t289.5 117q170 0 290.5 -117t120.5 -283t-120.5 -283.5t-290.5 -117.5q-169 0 -289.5 117.5t-120.5 283.5z" />
<glyph unicode="&#xf4;" d="M87 656q0 166 120.5 283t289.5 117q170 0 290.5 -117t120.5 -283t-120.5 -283.5t-290.5 -117.5q-169 0 -289.5 117.5t-120.5 283.5z" />
<glyph unicode="&#xf5;" d="M87 656q0 166 120.5 283t289.5 117q170 0 290.5 -117t120.5 -283t-120.5 -283.5t-290.5 -117.5q-169 0 -289.5 117.5t-120.5 283.5z" />
<glyph unicode="&#xf6;" d="M87 656q0 166 120.5 283t289.5 117q170 0 290.5 -117t120.5 -283t-120.5 -283.5t-290.5 -117.5q-169 0 -289.5 117.5t-120.5 283.5z" />
<glyph unicode="&#xf7;" d="M87 656q0 166 120.5 283t289.5 117q170 0 290.5 -117t120.5 -283t-120.5 -283.5t-290.5 -117.5q-169 0 -289.5 117.5t-120.5 283.5z" />
<glyph unicode="&#xf8;" d="M87 656q0 166 120.5 283t289.5 117q170 0 290.5 -117t120.5 -283t-120.5 -283.5t-290.5 -117.5q-169 0 -289.5 117.5t-120.5 283.5z" />
<glyph unicode="&#xf9;" d="M87 656q0 166 120.5 283t289.5 117q170 0 290.5 -117t120.5 -283t-120.5 -283.5t-290.5 -117.5q-169 0 -289.5 117.5t-120.5 283.5z" />
<glyph unicode="&#xfa;" d="M87 656q0 166 120.5 283t289.5 117q170 0 290.5 -117t120.5 -283t-120.5 -283.5t-290.5 -117.5q-169 0 -289.5 117.5t-120.5 283.5z" />
<glyph unicode="&#xfb;" d="M87 656q0 166 120.5 283t289.5 117q170 0 290.5 -117t120.5 -283t-120.5 -283.5t-290.5 -117.5q-169 0 -289.5 117.5t-120.5 283.5z" />
<glyph unicode="&#xfc;" d="M87 656q0 166 120.5 283t289.5 117q170 0 290.5 -117t120.5 -283t-120.5 -283.5t-290.5 -117.5q-169 0 -289.5 117.5t-120.5 283.5z" />
<glyph unicode="&#xfd;" d="M87 656q0 166 120.5 283t289.5 117q170 0 290.5 -117t120.5 -283t-120.5 -283.5t-290.5 -117.5q-169 0 -289.5 117.5t-120.5 283.5z" />
<glyph unicode="&#xfe;" d="M87 656q0 166 120.5 283t289.5 117q170 0 290.5 -117t120.5 -283t-120.5 -283.5t-290.5 -117.5q-169 0 -289.5 117.5t-120.5 283.5z" />
<glyph unicode="&#xff;" d="M87 656q0 166 120.5 283t289.5 117q170 0 290.5 -117t120.5 -283t-120.5 -283.5t-290.5 -117.5q-169 0 -289.5 117.5t-120.5 283.5z" />
<glyph unicode="&#x100;" d="M87 656q0 166 120.5 283t289.5 117q170 0 290.5 -117t120.5 -283t-120.5 -283.5t-290.5 -117.5q-169 0 -289.5 117.5t-120.5 283.5z" />
<glyph unicode="&#x101;" d="M87 656q0 166 120.5 283t289.5 117q170 0 290.5 -117t120.5 -283t-120.5 -283.5t-290.5 -117.5q-169 0 -289.5 117.5t-120.5 283.5z" />
<glyph unicode="&#x102;" d="M87 656q0 166 120.5 283t289.5 117q170 0 290.5 -117t120.5 -283t-120.5 -283.5t-290.5 -117.5q-169 0 -289.5 117.5t-120.5 283.5z" />
<glyph unicode="&#x103;" d="M87 656q0 166 120.5 283t289.5 117q170 0 290.5 -117t120.5 -283t-120.5 -283.5t-290.5 -117.5q-169 0 -289.5 117.5t-120.5 283.5z" />
<glyph unicode="&#x104;" d="M87 656q0 166 120.5 283t289.5 117q170 0 290.5 -117t120.5 -283t-120.5 -283.5t-290.5 -117.5q-169 0 -289.5 117.5t-120.5 283.5z" />
<glyph unicode="&#x105;" d="M87 656q0 166 120.5 283t289.5 117q170 0 290.5 -117t120.5 -283t-120.5 -283.5t-290.5 -117.5q-169 0 -289.5 117.5t-120.5 283.5z" />
<glyph unicode="&#x106;" d="M87 656q0 166 120.5 283t289.5 117q170 0 290.5 -117t120.5 -283t-120.5 -283.5t-290.5 -117.5q-169 0 -289.5 117.5t-120.5 283.5z" />
<glyph unicode="&#x107;" d="M87 656q0 166 120.5 283t289.5 117q170 0 290.5 -117t120.5 -283t-120.5 -283.5t-290.5 -117.5q-169 0 -289.5 117.5t-120.5 283.5z" />
<glyph unicode="&#x108;" d="M87 656q0 166 120.5 283t289.5 117q170 0 290.5 -117t120.5 -283t-120.5 -283.5t-290.5 -117.5q-169 0 -289.5 117.5t-120.5 283.5z" />
<glyph unicode="&#x109;" d="M87 656q0 166 120.5 283t289.5 117q170 0 290.5 -117t120.5 -283t-120.5 -283.5t-290.5 -117.5q-169 0 -289.5 117.5t-120.5 283.5z" />
<glyph unicode="&#x10a;" d="M87 656q0 166 120.5 283t289.5 117q170 0 290.5 -117t120.5 -283t-120.5 -283.5t-290.5 -117.5q-169 0 -289.5 117.5t-120.5 283.5z" />
<glyph unicode="&#x10b;" d="M87 656q0 166 120.5 283t289.5 117q170 0 290.5 -117t120.5 -283t-120.5 -283.5t-290.5 -117.5q-169 0 -289.5 117.5t-120.5 283.5z" />
<glyph unicode="&#x10c;" d="M87 656q0 166 120.5 283t289.5 117q170 0 290.5 -117t120.5 -283t-120.5 -283.5t-290.5 -117.5q-169 0 -289.5 117.5t-120.5 283.5z" />
<glyph unicode="&#x10d;" d="M87 656q0 166 120.5 283t289.5 117q170 0 290.5 -117t120.5 -283t-120.5 -283.5t-290.5 -117.5q-169 0 -289.5 117.5t-120.5 283.5z" />
<glyph unicode="&#x10e;" d="M87 656q0 166 120.5 283t289.5 117q170 0 290.5 -117t120.5 -283t-120.5 -283.5t-290.5 -117.5q-169 0 -289.5 117.5t-120.5 283.5z" />
<glyph unicode="&#x10f;" d="M87 656q0 166 120.5 283t289.5 117q170 0 290.5 -117t120.5 -283t-120.5 -283.5t-290.5 -117.5q-169 0 -289.5 117.5t-120.5 283.5z" />
<glyph unicode="&#x110;" d="M87 656q0 166 120.5 283t289.5 117q170 0 290.5 -117t120.5 -283t-120.5 -283.5t-290.5 -117.5q-169 0 -289.5 117.5t-120.5 283.5z" />
<glyph unicode="&#x111;" d="M87 656q0 166 120.5 283t289.5 117q170 0 290.5 -117t120.5 -283t-120.5 -283.5t-290.5 -117.5q-169 0 -289.5 117.5t-120.5 283.5z" />
<glyph unicode="&#x112;" d="M87 656q0 166 120.5 283t289.5 117q170 0 290.5 -117t120.5 -283t-120.5 -283.5t-290.5 -117.5q-169 0 -289.5 117.5t-120.5 283.5z" />
<glyph unicode="&#x113;" d="M87 656q0 166 120.5 283t289.5 117q170 0 290.5 -117t120.5 -283t-120.5 -283.5t-290.5 -117.5q-169 0 -289.5 117.5t-120.5 283.5z" />
<glyph unicode="&#x114;" d="M87 656q0 166 120.5 283t289.5 117q170 0 290.5 -117t120.5 -283t-120.5 -283.5t-290.5 -117.5q-169 0 -289.5 117.5t-120.5 283.5z" />
<glyph unicode="&#x115;" d="M87 656q0 166 120.5 283t289.5 117q170 0 290.5 -117t120.5 -283t-120.5 -283.5t-290.5 -117.5q-169 0 -289.5 117.5t-120.5 283.5z" />
<glyph unicode="&#x116;" d="M87 656q0 166 120.5 283t289.5 117q170 0 290.5 -117t120.5 -283t-120.5 -283.5t-290.5 -117.5q-169 0 -289.5 117.5t-120.5 283.5z" />
<glyph unicode="&#x117;" d="M87 656q0 166 120.5 283t289.5 117q170 0 290.5 -117t120.5 -283t-120.5 -283.5t-290.5 -117.5q-169 0 -289.5 117.5t-120.5 283.5z" />
<glyph unicode="&#x118;" d="M87 656q0 166 120.5 283t289.5 117q170 0 290.5 -117t120.5 -283t-120.5 -283.5t-290.5 -117.5q-169 0 -289.5 117.5t-120.5 283.5z" />
<glyph unicode="&#x119;" d="M87 656q0 166 120.5 283t289.5 117q170 0 290.5 -117t120.5 -283t-120.5 -283.5t-290.5 -117.5q-169 0 -289.5 117.5t-120.5 283.5z" />
<glyph unicode="&#x11a;" d="M87 656q0 166 120.5 283t289.5 117q170 0 290.5 -117t120.5 -283t-120.5 -283.5t-290.5 -117.5q-169 0 -289.5 117.5t-120.5 283.5z" />
<glyph unicode="&#x11b;" d="M87 656q0 166 120.5 283t289.5 117q170 0 290.5 -117t120.5 -283t-120.5 -283.5t-290.5 -117.5q-169 0 -289.5 117.5t-120.5 283.5z" />
<glyph unicode="&#x11c;" d="M87 656q0 166 120.5 283t289.5 117q170 0 290.5 -117t120.5 -283t-120.5 -283.5t-290.5 -117.5q-169 0 -289.5 117.5t-120.5 283.5z" />
<glyph unicode="&#x11d;" d="M87 656q0 166 120.5 283t289.5 117q170 0 290.5 -117t120.5 -283t-120.5 -283.5t-290.5 -117.5q-169 0 -289.5 117.5t-120.5 283.5z" />
<glyph unicode="&#x11e;" d="M87 656q0 166 120.5 283t289.5 117q170 0 290.5 -117t120.5 -283t-120.5 -283.5t-290.5 -117.5q-169 0 -289.5 117.5t-120.5 283.5z" />
<glyph unicode="&#x11f;" d="M87 656q0 166 120.5 283t289.5 117q170 0 290.5 -117t120.5 -283t-120.5 -283.5t-290.5 -117.5q-169 0 -289.5 117.5t-120.5 283.5z" />
<glyph unicode="&#x120;" d="M87 656q0 166 120.5 283t289.5 117q170 0 290.5 -117t120.5 -283t-120.5 -283.5t-290.5 -117.5q-169 0 -289.5 117.5t-120.5 283.5z" />
<glyph unicode="&#x121;" d="M87 656q0 166 120.5 283t289.5 117q170 0 290.5 -117t120.5 -283t-120.5 -283.5t-290.5 -117.5q-169 0 -289.5 117.5t-120.5 283.5z" />
<glyph unicode="&#x122;" d="M87 656q0 166 120.5 283t289.5 117q170 0 290.5 -117t120.5 -283t-120.5 -283.5t-290.5 -117.5q-169 0 -289.5 117.5t-120.5 283.5z" />
<glyph unicode="&#x123;" d="M87 656q0 166 120.5 283t289.5 117q170 0 290.5 -117t120.5 -283t-120.5 -283.5t-290.5 -117.5q-169 0 -289.5 117.5t-120.5 283.5z" />
<glyph unicode="&#x124;" d="M87 656q0 166 120.5 283t289.5 117q170 0 290.5 -117t120.5 -283t-120.5 -283.5t-290.5 -117.5q-169 0 -289.5 117.5t-120.5 283.5z" />
<glyph unicode="&#x125;" d="M87 656q0 166 120.5 283t289.5 117q170 0 290.5 -117t120.5 -283t-120.5 -283.5t-290.5 -117.5q-169 0 -289.5 117.5t-120.5 283.5z" />
<glyph unicode="&#x126;" d="M87 656q0 166 120.5 283t289.5 117q170 0 290.5 -117t120.5 -283t-120.5 -283.5t-290.5 -117.5q-169 0 -289.5 117.5t-120.5 283.5z" />
<glyph unicode="&#x127;" d="M87 656q0 166 120.5 283t289.5 117q170 0 290.5 -117t120.5 -283t-120.5 -283.5t-290.5 -117.5q-169 0 -289.5 117.5t-120.5 283.5z" />
<glyph unicode="&#x128;" d="M87 656q0 166 120.5 283t289.5 117q170 0 290.5 -117t120.5 -283t-120.5 -283.5t-290.5 -117.5q-169 0 -289.5 117.5t-120.5 283.5z" />
<glyph unicode="&#x129;" d="M87 656q0 166 120.5 283t289.5 117q170 0 290.5 -117t120.5 -283t-120.5 -283.5t-290.5 -117.5q-169 0 -289.5 117.5t-120.5 283.5z" />
<glyph unicode="&#x12a;" d="M87 656q0 166 120.5 283t289.5 117q170 0 290.5 -117t120.5 -283t-120.5 -283.5t-290.5 -117.5q-169 0 -289.5 117.5t-120.5 283.5z" />
<glyph unicode="&#x12b;" d="M87 656q0 166 120.5 283t289.5 117q170 0 290.5 -117t120.5 -283t-120.5 -283.5t-290.5 -117.5q-169 0 -289.5 117.5t-120.5 283.5z" />
<glyph unicode="&#x12c;" d="M87 656q0 166 120.5 283t289.5 117q170 0 290.5 -117t120.5 -283t-120.5 -283.5t-290.5 -117.5q-169 0 -289.5 117.5t-120.5 283.5z" />
<glyph unicode="&#x12d;" d="M87 656q0 166 120.5 283t289.5 117q170 0 290.5 -117t120.5 -283t-120.5 -283.5t-290.5 -117.5q-169 0 -289.5 117.5t-120.5 283.5z" />
<glyph unicode="&#x12e;" d="M87 656q0 166 120.5 283t289.5 117q170 0 290.5 -117t120.5 -283t-120.5 -283.5t-290.5 -117.5q-169 0 -289.5 117.5t-120.5 283.5z" />
<glyph unicode="&#x12f;" d="M87 656q0 166 120.5 283t289.5 117q170 0 290.5 -117t120.5 -283t-120.5 -283.5t-290.5 -117.5q-169 0 -289.5 117.5t-120.5 283.5z" />
<glyph unicode="&#x130;" d="M87 656q0 166 120.5 283t289.5 117q170 0 290.5 -117t120.5 -283t-120.5 -283.5t-290.5 -117.5q-169 0 -289.5 117.5t-120.5 283.5z" />
<glyph unicode="&#x131;" d="M87 656q0 166 120.5 283t289.5 117q170 0 290.5 -117t120.5 -283t-120.5 -283.5t-290.5 -117.5q-169 0 -289.5 117.5t-120.5 283.5z" />
<glyph unicode="&#x132;" d="M87 656q0 166 120.5 283t289.5 117q170 0 290.5 -117t120.5 -283t-120.5 -283.5t-290.5 -117.5q-169 0 -289.5 117.5t-120.5 283.5z" />
<glyph unicode="&#x133;" d="M87 656q0 166 120.5 283t289.5 117q170 0 290.5 -117t120.5 -283t-120.5 -283.5t-290.5 -117.5q-169 0 -289.5 117.5t-120.5 283.5z" />
<glyph unicode="&#x134;" d="M87 656q0 166 120.5 283t289.5 117q170 0 290.5 -117t120.5 -283t-120.5 -283.5t-290.5 -117.5q-169 0 -289.5 117.5t-120.5 283.5z" />
<glyph unicode="&#x135;" d="M87 656q0 166 120.5 283t289.5 117q170 0 290.5 -117t120.5 -283t-120.5 -283.5t-290.5 -117.5q-169 0 -289.5 117.5t-120.5 283.5z" />
<glyph unicode="&#x136;" d="M87 656q0 166 120.5 283t289.5 117q170 0 290.5 -117t120.5 -283t-120.5 -283.5t-290.5 -117.5q-169 0 -289.5 117.5t-120.5 283.5z" />
<glyph unicode="&#x137;" d="M87 656q0 166 120.5 283t289.5 117q170 0 290.5 -117t120.5 -283t-120.5 -283.5t-290.5 -117.5q-169 0 -289.5 117.5t-120.5 283.5z" />
<glyph unicode="&#x138;" d="M87 656q0 166 120.5 283t289.5 117q170 0 290.5 -117t120.5 -283t-120.5 -283.5t-290.5 -117.5q-169 0 -289.5 117.5t-120.5 283.5z" />
<glyph unicode="&#x139;" d="M87 656q0 166 120.5 283t289.5 117q170 0 290.5 -117t120.5 -283t-120.5 -283.5t-290.5 -117.5q-169 0 -289.5 117.5t-120.5 283.5z" />
<glyph unicode="&#x13a;" d="M87 656q0 166 120.5 283t289.5 117q170 0 290.5 -117t120.5 -283t-120.5 -283.5t-290.5 -117.5q-169 0 -289.5 117.5t-120.5 283.5z" />
<glyph unicode="&#x13b;" d="M87 656q0 166 120.5 283t289.5 117q170 0 290.5 -117t120.5 -283t-120.5 -283.5t-290.5 -117.5q-169 0 -289.5 117.5t-120.5 283.5z" />
<glyph unicode="&#x13c;" d="M87 656q0 166 120.5 283t289.5 117q170 0 290.5 -117t120.5 -283t-120.5 -283.5t-290.5 -117.5q-169 0 -289.5 117.5t-120.5 283.5z" />
<glyph unicode="&#x13d;" d="M87 656q0 166 120.5 283t289.5 117q170 0 290.5 -117t120.5 -283t-120.5 -283.5t-290.5 -117.5q-169 0 -289.5 117.5t-120.5 283.5z" />
<glyph unicode="&#x13e;" d="M87 656q0 166 120.5 283t289.5 117q170 0 290.5 -117t120.5 -283t-120.5 -283.5t-290.5 -117.5q-169 0 -289.5 117.5t-120.5 283.5z" />
<glyph unicode="&#x13f;" d="M87 656q0 166 120.5 283t289.5 117q170 0 290.5 -117t120.5 -283t-120.5 -283.5t-290.5 -117.5q-169 0 -289.5 117.5t-120.5 283.5z" />
<glyph unicode="&#x140;" d="M87 656q0 166 120.5 283t289.5 117q170 0 290.5 -117t120.5 -283t-120.5 -283.5t-290.5 -117.5q-169 0 -289.5 117.5t-120.5 283.5z" />
<glyph unicode="&#x141;" d="M87 656q0 166 120.5 283t289.5 117q170 0 290.5 -117t120.5 -283t-120.5 -283.5t-290.5 -117.5q-169 0 -289.5 117.5t-120.5 283.5z" />
<glyph unicode="&#x142;" d="M87 656q0 166 120.5 283t289.5 117q170 0 290.5 -117t120.5 -283t-120.5 -283.5t-290.5 -117.5q-169 0 -289.5 117.5t-120.5 283.5z" />
<glyph unicode="&#x143;" d="M87 656q0 166 120.5 283t289.5 117q170 0 290.5 -117t120.5 -283t-120.5 -283.5t-290.5 -117.5q-169 0 -289.5 117.5t-120.5 283.5z" />
<glyph unicode="&#x144;" d="M87 656q0 166 120.5 283t289.5 117q170 0 290.5 -117t120.5 -283t-120.5 -283.5t-290.5 -117.5q-169 0 -289.5 117.5t-120.5 283.5z" />
<glyph unicode="&#x145;" d="M87 656q0 166 120.5 283t289.5 117q170 0 290.5 -117t120.5 -283t-120.5 -283.5t-290.5 -117.5q-169 0 -289.5 117.5t-120.5 283.5z" />
<glyph unicode="&#x146;" d="M87 656q0 166 120.5 283t289.5 117q170 0 290.5 -117t120.5 -283t-120.5 -283.5t-290.5 -117.5q-169 0 -289.5 117.5t-120.5 283.5z" />
<glyph unicode="&#x147;" d="M87 656q0 166 120.5 283t289.5 117q170 0 290.5 -117t120.5 -283t-120.5 -283.5t-290.5 -117.5q-169 0 -289.5 117.5t-120.5 283.5z" />
<glyph unicode="&#x148;" d="M87 656q0 166 120.5 283t289.5 117q170 0 290.5 -117t120.5 -283t-120.5 -283.5t-290.5 -117.5q-169 0 -289.5 117.5t-120.5 283.5z" />
<glyph unicode="&#x149;" d="M87 656q0 166 120.5 283t289.5 117q170 0 290.5 -117t120.5 -283t-120.5 -283.5t-290.5 -117.5q-169 0 -289.5 117.5t-120.5 283.5z" />
<glyph unicode="&#x14a;" d="M87 656q0 166 120.5 283t289.5 117q170 0 290.5 -117t120.5 -283t-120.5 -283.5t-290.5 -117.5q-169 0 -289.5 117.5t-120.5 283.5z" />
<glyph unicode="&#x14b;" d="M87 656q0 166 120.5 283t289.5 117q170 0 290.5 -117t120.5 -283t-120.5 -283.5t-290.5 -117.5q-169 0 -289.5 117.5t-120.5 283.5z" />
<glyph unicode="&#x14c;" d="M87 656q0 166 120.5 283t289.5 117q170 0 290.5 -117t120.5 -283t-120.5 -283.5t-290.5 -117.5q-169 0 -289.5 117.5t-120.5 283.5z" />
<glyph unicode="&#x14d;" d="M87 656q0 166 120.5 283t289.5 117q170 0 290.5 -117t120.5 -283t-120.5 -283.5t-290.5 -117.5q-169 0 -289.5 117.5t-120.5 283.5z" />
<glyph unicode="&#x14e;" d="M87 656q0 166 120.5 283t289.5 117q170 0 290.5 -117t120.5 -283t-120.5 -283.5t-290.5 -117.5q-169 0 -289.5 117.5t-120.5 283.5z" />
<glyph unicode="&#x14f;" d="M87 656q0 166 120.5 283t289.5 117q170 0 290.5 -117t120.5 -283t-120.5 -283.5t-290.5 -117.5q-169 0 -289.5 117.5t-120.5 283.5z" />
<glyph unicode="&#x150;" d="M87 656q0 166 120.5 283t289.5 117q170 0 290.5 -117t120.5 -283t-120.5 -283.5t-290.5 -117.5q-169 0 -289.5 117.5t-120.5 283.5z" />
<glyph unicode="&#x151;" d="M87 656q0 166 120.5 283t289.5 117q170 0 290.5 -117t120.5 -283t-120.5 -283.5t-290.5 -117.5q-169 0 -289.5 117.5t-120.5 283.5z" />
<glyph unicode="&#x152;" d="M87 656q0 166 120.5 283t289.5 117q170 0 290.5 -117t120.5 -283t-120.5 -283.5t-290.5 -117.5q-169 0 -289.5 117.5t-120.5 283.5z" />
<glyph unicode="&#x153;" d="M87 656q0 166 120.5 283t289.5 117q170 0 290.5 -117t120.5 -283t-120.5 -283.5t-290.5 -117.5q-169 0 -289.5 117.5t-120.5 283.5z" />
<glyph unicode="&#x154;" d="M87 656q0 166 120.5 283t289.5 117q170 0 290.5 -117t120.5 -283t-120.5 -283.5t-290.5 -117.5q-169 0 -289.5 117.5t-120.5 283.5z" />
<glyph unicode="&#x155;" d="M87 656q0 166 120.5 283t289.5 117q170 0 290.5 -117t120.5 -283t-120.5 -283.5t-290.5 -117.5q-169 0 -289.5 117.5t-120.5 283.5z" />
<glyph unicode="&#x156;" d="M87 656q0 166 120.5 283t289.5 117q170 0 290.5 -117t120.5 -283t-120.5 -283.5t-290.5 -117.5q-169 0 -289.5 117.5t-120.5 283.5z" />
<glyph unicode="&#x157;" d="M87 656q0 166 120.5 283t289.5 117q170 0 290.5 -117t120.5 -283t-120.5 -283.5t-290.5 -117.5q-169 0 -289.5 117.5t-120.5 283.5z" />
<glyph unicode="&#x158;" d="M87 656q0 166 120.5 283t289.5 117q170 0 290.5 -117t120.5 -283t-120.5 -283.5t-290.5 -117.5q-169 0 -289.5 117.5t-120.5 283.5z" />
<glyph unicode="&#x159;" d="M87 656q0 166 120.5 283t289.5 117q170 0 290.5 -117t120.5 -283t-120.5 -283.5t-290.5 -117.5q-169 0 -289.5 117.5t-120.5 283.5z" />
<glyph unicode="&#x15a;" d="M87 656q0 166 120.5 283t289.5 117q170 0 290.5 -117t120.5 -283t-120.5 -283.5t-290.5 -117.5q-169 0 -289.5 117.5t-120.5 283.5z" />
<glyph unicode="&#x15b;" d="M87 656q0 166 120.5 283t289.5 117q170 0 290.5 -117t120.5 -283t-120.5 -283.5t-290.5 -117.5q-169 0 -289.5 117.5t-120.5 283.5z" />
<glyph unicode="&#x15c;" d="M87 656q0 166 120.5 283t289.5 117q170 0 290.5 -117t120.5 -283t-120.5 -283.5t-290.5 -117.5q-169 0 -289.5 117.5t-120.5 283.5z" />
<glyph unicode="&#x15d;" d="M87 656q0 166 120.5 283t289.5 117q170 0 290.5 -117t120.5 -283t-120.5 -283.5t-290.5 -117.5q-169 0 -289.5 117.5t-120.5 283.5z" />
<glyph unicode="&#x15e;" d="M87 656q0 166 120.5 283t289.5 117q170 0 290.5 -117t120.5 -283t-120.5 -283.5t-290.5 -117.5q-169 0 -289.5 117.5t-120.5 283.5z" />
<glyph unicode="&#x15f;" d="M87 656q0 166 120.5 283t289.5 117q170 0 290.5 -117t120.5 -283t-120.5 -283.5t-290.5 -117.5q-169 0 -289.5 117.5t-120.5 283.5z" />
<glyph unicode="&#x160;" d="M87 656q0 166 120.5 283t289.5 117q170 0 290.5 -117t120.5 -283t-120.5 -283.5t-290.5 -117.5q-169 0 -289.5 117.5t-120.5 283.5z" />
<glyph unicode="&#x161;" d="M87 656q0 166 120.5 283t289.5 117q170 0 290.5 -117t120.5 -283t-120.5 -283.5t-290.5 -117.5q-169 0 -289.5 117.5t-120.5 283.5z" />
<glyph unicode="&#x162;" d="M87 656q0 166 120.5 283t289.5 117q170 0 290.5 -117t120.5 -283t-120.5 -283.5t-290.5 -117.5q-169 0 -289.5 117.5t-120.5 283.5z" />
<glyph unicode="&#x163;" d="M87 656q0 166 120.5 283t289.5 117q170 0 290.5 -117t120.5 -283t-120.5 -283.5t-290.5 -117.5q-169 0 -289.5 117.5t-120.5 283.5z" />
<glyph unicode="&#x164;" d="M87 656q0 166 120.5 283t289.5 117q170 0 290.5 -117t120.5 -283t-120.5 -283.5t-290.5 -117.5q-169 0 -289.5 117.5t-120.5 283.5z" />
<glyph unicode="&#x165;" d="M87 656q0 166 120.5 283t289.5 117q170 0 290.5 -117t120.5 -283t-120.5 -283.5t-290.5 -117.5q-169 0 -289.5 117.5t-120.5 283.5z" />
<glyph unicode="&#x166;" d="M87 656q0 166 120.5 283t289.5 117q170 0 290.5 -117t120.5 -283t-120.5 -283.5t-290.5 -117.5q-169 0 -289.5 117.5t-120.5 283.5z" />
<glyph unicode="&#x167;" d="M87 656q0 166 120.5 283t289.5 117q170 0 290.5 -117t120.5 -283t-120.5 -283.5t-290.5 -117.5q-169 0 -289.5 117.5t-120.5 283.5z" />
<glyph unicode="&#x168;" d="M87 656q0 166 120.5 283t289.5 117q170 0 290.5 -117t120.5 -283t-120.5 -283.5t-290.5 -117.5q-169 0 -289.5 117.5t-120.5 283.5z" />
<glyph unicode="&#x169;" d="M87 656q0 166 120.5 283t289.5 117q170 0 290.5 -117t120.5 -283t-120.5 -283.5t-290.5 -117.5q-169 0 -289.5 117.5t-120.5 283.5z" />
<glyph unicode="&#x16a;" d="M87 656q0 166 120.5 283t289.5 117q170 0 290.5 -117t120.5 -283t-120.5 -283.5t-290.5 -117.5q-169 0 -289.5 117.5t-120.5 283.5z" />
<glyph unicode="&#x16b;" d="M87 656q0 166 120.5 283t289.5 117q170 0 290.5 -117t120.5 -283t-120.5 -283.5t-290.5 -117.5q-169 0 -289.5 117.5t-120.5 283.5z" />
<glyph unicode="&#x16c;" d="M87 656q0 166 120.5 283t289.5 117q170 0 290.5 -117t120.5 -283t-120.5 -283.5t-290.5 -117.5q-169 0 -289.5 117.5t-120.5 283.5z" />
<glyph unicode="&#x16d;" d="M87 656q0 166 120.5 283t289.5 117q170 0 290.5 -117t120.5 -283t-120.5 -283.5t-290.5 -117.5q-169 0 -289.5 117.5t-120.5 283.5z" />
<glyph unicode="&#x16e;" d="M87 656q0 166 120.5 283t289.5 117q170 0 290.5 -117t120.5 -283t-120.5 -283.5t-290.5 -117.5q-169 0 -289.5 117.5t-120.5 283.5z" />
<glyph unicode="&#x16f;" d="M87 656q0 166 120.5 283t289.5 117q170 0 290.5 -117t120.5 -283t-120.5 -283.5t-290.5 -117.5q-169 0 -289.5 117.5t-120.5 283.5z" />
<glyph unicode="&#x170;" d="M87 656q0 166 120.5 283t289.5 117q170 0 290.5 -117t120.5 -283t-120.5 -283.5t-290.5 -117.5q-169 0 -289.5 117.5t-120.5 283.5z" />
<glyph unicode="&#x171;" d="M87 656q0 166 120.5 283t289.5 117q170 0 290.5 -117t120.5 -283t-120.5 -283.5t-290.5 -117.5q-169 0 -289.5 117.5t-120.5 283.5z" />
<glyph unicode="&#x172;" d="M87 656q0 166 120.5 283t289.5 117q170 0 290.5 -117t120.5 -283t-120.5 -283.5t-290.5 -117.5q-169 0 -289.5 117.5t-120.5 283.5z" />
<glyph unicode="&#x173;" d="M87 656q0 166 120.5 283t289.5 117q170 0 290.5 -117t120.5 -283t-120.5 -283.5t-290.5 -117.5q-169 0 -289.5 117.5t-120.5 283.5z" />
<glyph unicode="&#x174;" d="M87 656q0 166 120.5 283t289.5 117q170 0 290.5 -117t120.5 -283t-120.5 -283.5t-290.5 -117.5q-169 0 -289.5 117.5t-120.5 283.5z" />
<glyph unicode="&#x175;" d="M87 656q0 166 120.5 283t289.5 117q170 0 290.5 -117t120.5 -283t-120.5 -283.5t-290.5 -117.5q-169 0 -289.5 117.5t-120.5 283.5z" />
<glyph unicode="&#x176;" d="M87 656q0 166 120.5 283t289.5 117q170 0 290.5 -117t120.5 -283t-120.5 -283.5t-290.5 -117.5q-169 0 -289.5 117.5t-120.5 283.5z" />
<glyph unicode="&#x177;" d="M87 656q0 166 120.5 283t289.5 117q170 0 290.5 -117t120.5 -283t-120.5 -283.5t-290.5 -117.5q-169 0 -289.5 117.5t-120.5 283.5z" />
<glyph unicode="&#x178;" d="M87 656q0 166 120.5 283t289.5 117q170 0 290.5 -117t120.5 -283t-120.5 -283.5t-290.5 -117.5q-169 0 -289.5 117.5t-120.5 283.5z" />
<glyph unicode="&#x179;" d="M87 656q0 166 120.5 283t289.5 117q170 0 290.5 -117t120.5 -283t-120.5 -283.5t-290.5 -117.5q-169 0 -289.5 117.5t-120.5 283.5z" />
<glyph unicode="&#x17a;" d="M87 656q0 166 120.5 283t289.5 117q170 0 290.5 -117t120.5 -283t-120.5 -283.5t-290.5 -117.5q-169 0 -289.5 117.5t-120.5 283.5z" />
<glyph unicode="&#x17b;" d="M87 656q0 166 120.5 283t289.5 117q170 0 290.5 -117t120.5 -283t-120.5 -283.5t-290.5 -117.5q-169 0 -289.5 117.5t-120.5 283.5z" />
<glyph unicode="&#x17c;" d="M87 656q0 166 120.5 283t289.5 117q170 0 290.5 -117t120.5 -283t-120.5 -283.5t-290.5 -117.5q-169 0 -289.5 117.5t-120.5 283.5z" />
<glyph unicode="&#x17d;" d="M87 656q0 166 120.5 283t289.5 117q170 0 290.5 -117t120.5 -283t-120.5 -283.5t-290.5 -117.5q-169 0 -289.5 117.5t-120.5 283.5z" />
<glyph unicode="&#x17e;" d="M87 656q0 166 120.5 283t289.5 117q170 0 290.5 -117t120.5 -283t-120.5 -283.5t-290.5 -117.5q-169 0 -289.5 117.5t-120.5 283.5z" />
<glyph unicode="&#x17f;" d="M87 656q0 166 120.5 283t289.5 117q170 0 290.5 -117t120.5 -283t-120.5 -283.5t-290.5 -117.5q-169 0 -289.5 117.5t-120.5 283.5z" />
<glyph unicode="&#x18f;" d="M87 656q0 166 120.5 283t289.5 117q170 0 290.5 -117t120.5 -283t-120.5 -283.5t-290.5 -117.5q-169 0 -289.5 117.5t-120.5 283.5z" />
<glyph unicode="&#x192;" d="M87 656q0 166 120.5 283t289.5 117q170 0 290.5 -117t120.5 -283t-120.5 -283.5t-290.5 -117.5q-169 0 -289.5 117.5t-120.5 283.5z" />
<glyph unicode="&#x1a0;" d="M87 656q0 166 120.5 283t289.5 117q170 0 290.5 -117t120.5 -283t-120.5 -283.5t-290.5 -117.5q-169 0 -289.5 117.5t-120.5 283.5z" />
<glyph unicode="&#x1a1;" d="M87 656q0 166 120.5 283t289.5 117q170 0 290.5 -117t120.5 -283t-120.5 -283.5t-290.5 -117.5q-169 0 -289.5 117.5t-120.5 283.5z" />
<glyph unicode="&#x1af;" d="M87 656q0 166 120.5 283t289.5 117q170 0 290.5 -117t120.5 -283t-120.5 -283.5t-290.5 -117.5q-169 0 -289.5 117.5t-120.5 283.5z" />
<glyph unicode="&#x1b0;" d="M87 656q0 166 120.5 283t289.5 117q170 0 290.5 -117t120.5 -283t-120.5 -283.5t-290.5 -117.5q-169 0 -289.5 117.5t-120.5 283.5z" />
<glyph unicode="&#x1cd;" d="M87 656q0 166 120.5 283t289.5 117q170 0 290.5 -117t120.5 -283t-120.5 -283.5t-290.5 -117.5q-169 0 -289.5 117.5t-120.5 283.5z" />
<glyph unicode="&#x1ce;" d="M87 656q0 166 120.5 283t289.5 117q170 0 290.5 -117t120.5 -283t-120.5 -283.5t-290.5 -117.5q-169 0 -289.5 117.5t-120.5 283.5z" />
<glyph unicode="&#x1cf;" d="M87 656q0 166 120.5 283t289.5 117q170 0 290.5 -117t120.5 -283t-120.5 -283.5t-290.5 -117.5q-169 0 -289.5 117.5t-120.5 283.5z" />
<glyph unicode="&#x1d0;" d="M87 656q0 166 120.5 283t289.5 117q170 0 290.5 -117t120.5 -283t-120.5 -283.5t-290.5 -117.5q-169 0 -289.5 117.5t-120.5 283.5z" />
<glyph unicode="&#x1d1;" d="M87 656q0 166 120.5 283t289.5 117q170 0 290.5 -117t120.5 -283t-120.5 -283.5t-290.5 -117.5q-169 0 -289.5 117.5t-120.5 283.5z" />
<glyph unicode="&#x1d2;" d="M87 656q0 166 120.5 283t289.5 117q170 0 290.5 -117t120.5 -283t-120.5 -283.5t-290.5 -117.5q-169 0 -289.5 117.5t-120.5 283.5z" />
<glyph unicode="&#x1d3;" d="M87 656q0 166 120.5 283t289.5 117q170 0 290.5 -117t120.5 -283t-120.5 -283.5t-290.5 -117.5q-169 0 -289.5 117.5t-120.5 283.5z" />
<glyph unicode="&#x1d4;" d="M87 656q0 166 120.5 283t289.5 117q170 0 290.5 -117t120.5 -283t-120.5 -283.5t-290.5 -117.5q-169 0 -289.5 117.5t-120.5 283.5z" />
<glyph unicode="&#x1d5;" d="M87 656q0 166 120.5 283t289.5 117q170 0 290.5 -117t120.5 -283t-120.5 -283.5t-290.5 -117.5q-169 0 -289.5 117.5t-120.5 283.5z" />
<glyph unicode="&#x1d6;" d="M87 656q0 166 120.5 283t289.5 117q170 0 290.5 -117t120.5 -283t-120.5 -283.5t-290.5 -117.5q-169 0 -289.5 117.5t-120.5 283.5z" />
<glyph unicode="&#x1d7;" d="M87 656q0 166 120.5 283t289.5 117q170 0 290.5 -117t120.5 -283t-120.5 -283.5t-290.5 -117.5q-169 0 -289.5 117.5t-120.5 283.5z" />
<glyph unicode="&#x1d8;" d="M87 656q0 166 120.5 283t289.5 117q170 0 290.5 -117t120.5 -283t-120.5 -283.5t-290.5 -117.5q-169 0 -289.5 117.5t-120.5 283.5z" />
<glyph unicode="&#x1d9;" d="M87 656q0 166 120.5 283t289.5 117q170 0 290.5 -117t120.5 -283t-120.5 -283.5t-290.5 -117.5q-169 0 -289.5 117.5t-120.5 283.5z" />
<glyph unicode="&#x1da;" d="M87 656q0 166 120.5 283t289.5 117q170 0 290.5 -117t120.5 -283t-120.5 -283.5t-290.5 -117.5q-169 0 -289.5 117.5t-120.5 283.5z" />
<glyph unicode="&#x1db;" d="M87 656q0 166 120.5 283t289.5 117q170 0 290.5 -117t120.5 -283t-120.5 -283.5t-290.5 -117.5q-169 0 -289.5 117.5t-120.5 283.5z" />
<glyph unicode="&#x1dc;" d="M87 656q0 166 120.5 283t289.5 117q170 0 290.5 -117t120.5 -283t-120.5 -283.5t-290.5 -117.5q-169 0 -289.5 117.5t-120.5 283.5z" />
<glyph unicode="&#x1fa;" d="M87 656q0 166 120.5 283t289.5 117q170 0 290.5 -117t120.5 -283t-120.5 -283.5t-290.5 -117.5q-169 0 -289.5 117.5t-120.5 283.5z" />
<glyph unicode="&#x1fb;" d="M87 656q0 166 120.5 283t289.5 117q170 0 290.5 -117t120.5 -283t-120.5 -283.5t-290.5 -117.5q-169 0 -289.5 117.5t-120.5 283.5z" />
<glyph unicode="&#x1fc;" d="M87 656q0 166 120.5 283t289.5 117q170 0 290.5 -117t120.5 -283t-120.5 -283.5t-290.5 -117.5q-169 0 -289.5 117.5t-120.5 283.5z" />
<glyph unicode="&#x1fd;" d="M87 656q0 166 120.5 283t289.5 117q170 0 290.5 -117t120.5 -283t-120.5 -283.5t-290.5 -117.5q-169 0 -289.5 117.5t-120.5 283.5z" />
<glyph unicode="&#x1fe;" d="M87 656q0 166 120.5 283t289.5 117q170 0 290.5 -117t120.5 -283t-120.5 -283.5t-290.5 -117.5q-169 0 -289.5 117.5t-120.5 283.5z" />
<glyph unicode="&#x1ff;" d="M87 656q0 166 120.5 283t289.5 117q170 0 290.5 -117t120.5 -283t-120.5 -283.5t-290.5 -117.5q-169 0 -289.5 117.5t-120.5 283.5z" />
<glyph unicode="&#x259;" d="M87 656q0 166 120.5 283t289.5 117q170 0 290.5 -117t120.5 -283t-120.5 -283.5t-290.5 -117.5q-169 0 -289.5 117.5t-120.5 283.5z" />
<glyph unicode="&#x2c6;" d="M87 656q0 166 120.5 283t289.5 117q170 0 290.5 -117t120.5 -283t-120.5 -283.5t-290.5 -117.5q-169 0 -289.5 117.5t-120.5 283.5z" />
<glyph unicode="&#x2c7;" d="M87 656q0 166 120.5 283t289.5 117q170 0 290.5 -117t120.5 -283t-120.5 -283.5t-290.5 -117.5q-169 0 -289.5 117.5t-120.5 283.5z" />
<glyph unicode="&#x2c9;" d="M87 656q0 166 120.5 283t289.5 117q170 0 290.5 -117t120.5 -283t-120.5 -283.5t-290.5 -117.5q-169 0 -289.5 117.5t-120.5 283.5z" />
<glyph unicode="&#x2d8;" d="M87 656q0 166 120.5 283t289.5 117q170 0 290.5 -117t120.5 -283t-120.5 -283.5t-290.5 -117.5q-169 0 -289.5 117.5t-120.5 283.5z" />
<glyph unicode="&#x2d9;" d="M87 656q0 166 120.5 283t289.5 117q170 0 290.5 -117t120.5 -283t-120.5 -283.5t-290.5 -117.5q-169 0 -289.5 117.5t-120.5 283.5z" />
<glyph unicode="&#x2da;" d="M87 656q0 166 120.5 283t289.5 117q170 0 290.5 -117t120.5 -283t-120.5 -283.5t-290.5 -117.5q-169 0 -289.5 117.5t-120.5 283.5z" />
<glyph unicode="&#x2db;" d="M87 656q0 166 120.5 283t289.5 117q170 0 290.5 -117t120.5 -283t-120.5 -283.5t-290.5 -117.5q-169 0 -289.5 117.5t-120.5 283.5z" />
<glyph unicode="&#x2dc;" d="M87 656q0 166 120.5 283t289.5 117q170 0 290.5 -117t120.5 -283t-120.5 -283.5t-290.5 -117.5q-169 0 -289.5 117.5t-120.5 283.5z" />
<glyph unicode="&#x2dd;" d="M87 656q0 166 120.5 283t289.5 117q170 0 290.5 -117t120.5 -283t-120.5 -283.5t-290.5 -117.5q-169 0 -289.5 117.5t-120.5 283.5z" />
<glyph unicode="&#x300;" d="M87 656q0 166 120.5 283t289.5 117q170 0 290.5 -117t120.5 -283t-120.5 -283.5t-290.5 -117.5q-169 0 -289.5 117.5t-120.5 283.5z" />
<glyph unicode="&#x301;" d="M87 656q0 166 120.5 283t289.5 117q170 0 290.5 -117t120.5 -283t-120.5 -283.5t-290.5 -117.5q-169 0 -289.5 117.5t-120.5 283.5z" />
<glyph unicode="&#x303;" d="M87 656q0 166 120.5 283t289.5 117q170 0 290.5 -117t120.5 -283t-120.5 -283.5t-290.5 -117.5q-169 0 -289.5 117.5t-120.5 283.5z" />
<glyph unicode="&#x309;" d="M87 656q0 166 120.5 283t289.5 117q170 0 290.5 -117t120.5 -283t-120.5 -283.5t-290.5 -117.5q-169 0 -289.5 117.5t-120.5 283.5z" />
<glyph unicode="&#x323;" d="M87 656q0 166 120.5 283t289.5 117q170 0 290.5 -117t120.5 -283t-120.5 -283.5t-290.5 -117.5q-169 0 -289.5 117.5t-120.5 283.5z" />
<glyph unicode="&#x384;" d="M87 656q0 166 120.5 283t289.5 117q170 0 290.5 -117t120.5 -283t-120.5 -283.5t-290.5 -117.5q-169 0 -289.5 117.5t-120.5 283.5z" />
<glyph unicode="&#x385;" d="M87 656q0 166 120.5 283t289.5 117q170 0 290.5 -117t120.5 -283t-120.5 -283.5t-290.5 -117.5q-169 0 -289.5 117.5t-120.5 283.5z" />
<glyph unicode="&#x386;" d="M87 656q0 166 120.5 283t289.5 117q170 0 290.5 -117t120.5 -283t-120.5 -283.5t-290.5 -117.5q-169 0 -289.5 117.5t-120.5 283.5z" />
<glyph unicode="&#x387;" d="M87 656q0 166 120.5 283t289.5 117q170 0 290.5 -117t120.5 -283t-120.5 -283.5t-290.5 -117.5q-169 0 -289.5 117.5t-120.5 283.5z" />
<glyph unicode="&#x388;" d="M87 656q0 166 120.5 283t289.5 117q170 0 290.5 -117t120.5 -283t-120.5 -283.5t-290.5 -117.5q-169 0 -289.5 117.5t-120.5 283.5z" />
<glyph unicode="&#x389;" d="M87 656q0 166 120.5 283t289.5 117q170 0 290.5 -117t120.5 -283t-120.5 -283.5t-290.5 -117.5q-169 0 -289.5 117.5t-120.5 283.5z" />
<glyph unicode="&#x38a;" d="M87 656q0 166 120.5 283t289.5 117q170 0 290.5 -117t120.5 -283t-120.5 -283.5t-290.5 -117.5q-169 0 -289.5 117.5t-120.5 283.5z" />
<glyph unicode="&#x38c;" d="M87 656q0 166 120.5 283t289.5 117q170 0 290.5 -117t120.5 -283t-120.5 -283.5t-290.5 -117.5q-169 0 -289.5 117.5t-120.5 283.5z" />
<glyph unicode="&#x38e;" d="M87 656q0 166 120.5 283t289.5 117q170 0 290.5 -117t120.5 -283t-120.5 -283.5t-290.5 -117.5q-169 0 -289.5 117.5t-120.5 283.5z" />
<glyph unicode="&#x38f;" d="M87 656q0 166 120.5 283t289.5 117q170 0 290.5 -117t120.5 -283t-120.5 -283.5t-290.5 -117.5q-169 0 -289.5 117.5t-120.5 283.5z" />
<glyph unicode="&#x390;" d="M87 656q0 166 120.5 283t289.5 117q170 0 290.5 -117t120.5 -283t-120.5 -283.5t-290.5 -117.5q-169 0 -289.5 117.5t-120.5 283.5z" />
<glyph unicode="&#x391;" d="M87 656q0 166 120.5 283t289.5 117q170 0 290.5 -117t120.5 -283t-120.5 -283.5t-290.5 -117.5q-169 0 -289.5 117.5t-120.5 283.5z" />
<glyph unicode="&#x392;" d="M87 656q0 166 120.5 283t289.5 117q170 0 290.5 -117t120.5 -283t-120.5 -283.5t-290.5 -117.5q-169 0 -289.5 117.5t-120.5 283.5z" />
<glyph unicode="&#x393;" d="M87 656q0 166 120.5 283t289.5 117q170 0 290.5 -117t120.5 -283t-120.5 -283.5t-290.5 -117.5q-169 0 -289.5 117.5t-120.5 283.5z" />
<glyph unicode="&#x394;" d="M87 656q0 166 120.5 283t289.5 117q170 0 290.5 -117t120.5 -283t-120.5 -283.5t-290.5 -117.5q-169 0 -289.5 117.5t-120.5 283.5z" />
<glyph unicode="&#x395;" d="M87 656q0 166 120.5 283t289.5 117q170 0 290.5 -117t120.5 -283t-120.5 -283.5t-290.5 -117.5q-169 0 -289.5 117.5t-120.5 283.5z" />
<glyph unicode="&#x396;" d="M87 656q0 166 120.5 283t289.5 117q170 0 290.5 -117t120.5 -283t-120.5 -283.5t-290.5 -117.5q-169 0 -289.5 117.5t-120.5 283.5z" />
<glyph unicode="&#x397;" d="M87 656q0 166 120.5 283t289.5 117q170 0 290.5 -117t120.5 -283t-120.5 -283.5t-290.5 -117.5q-169 0 -289.5 117.5t-120.5 283.5z" />
<glyph unicode="&#x398;" d="M87 656q0 166 120.5 283t289.5 117q170 0 290.5 -117t120.5 -283t-120.5 -283.5t-290.5 -117.5q-169 0 -289.5 117.5t-120.5 283.5z" />
<glyph unicode="&#x399;" d="M87 656q0 166 120.5 283t289.5 117q170 0 290.5 -117t120.5 -283t-120.5 -283.5t-290.5 -117.5q-169 0 -289.5 117.5t-120.5 283.5z" />
<glyph unicode="&#x39a;" d="M87 656q0 166 120.5 283t289.5 117q170 0 290.5 -117t120.5 -283t-120.5 -283.5t-290.5 -117.5q-169 0 -289.5 117.5t-120.5 283.5z" />
<glyph unicode="&#x39b;" d="M87 656q0 166 120.5 283t289.5 117q170 0 290.5 -117t120.5 -283t-120.5 -283.5t-290.5 -117.5q-169 0 -289.5 117.5t-120.5 283.5z" />
<glyph unicode="&#x39c;" d="M87 656q0 166 120.5 283t289.5 117q170 0 290.5 -117t120.5 -283t-120.5 -283.5t-290.5 -117.5q-169 0 -289.5 117.5t-120.5 283.5z" />
<glyph unicode="&#x39d;" d="M87 656q0 166 120.5 283t289.5 117q170 0 290.5 -117t120.5 -283t-120.5 -283.5t-290.5 -117.5q-169 0 -289.5 117.5t-120.5 283.5z" />
<glyph unicode="&#x39e;" d="M87 656q0 166 120.5 283t289.5 117q170 0 290.5 -117t120.5 -283t-120.5 -283.5t-290.5 -117.5q-169 0 -289.5 117.5t-120.5 283.5z" />
<glyph unicode="&#x39f;" d="M87 656q0 166 120.5 283t289.5 117q170 0 290.5 -117t120.5 -283t-120.5 -283.5t-290.5 -117.5q-169 0 -289.5 117.5t-120.5 283.5z" />
<glyph unicode="&#x3a0;" d="M87 656q0 166 120.5 283t289.5 117q170 0 290.5 -117t120.5 -283t-120.5 -283.5t-290.5 -117.5q-169 0 -289.5 117.5t-120.5 283.5z" />
<glyph unicode="&#x3a1;" d="M87 656q0 166 120.5 283t289.5 117q170 0 290.5 -117t120.5 -283t-120.5 -283.5t-290.5 -117.5q-169 0 -289.5 117.5t-120.5 283.5z" />
<glyph unicode="&#x3a3;" d="M87 656q0 166 120.5 283t289.5 117q170 0 290.5 -117t120.5 -283t-120.5 -283.5t-290.5 -117.5q-169 0 -289.5 117.5t-120.5 283.5z" />
<glyph unicode="&#x3a4;" d="M87 656q0 166 120.5 283t289.5 117q170 0 290.5 -117t120.5 -283t-120.5 -283.5t-290.5 -117.5q-169 0 -289.5 117.5t-120.5 283.5z" />
<glyph unicode="&#x3a5;" d="M87 656q0 166 120.5 283t289.5 117q170 0 290.5 -117t120.5 -283t-120.5 -283.5t-290.5 -117.5q-169 0 -289.5 117.5t-120.5 283.5z" />
<glyph unicode="&#x3a6;" d="M87 656q0 166 120.5 283t289.5 117q170 0 290.5 -117t120.5 -283t-120.5 -283.5t-290.5 -117.5q-169 0 -289.5 117.5t-120.5 283.5z" />
<glyph unicode="&#x3a7;" d="M87 656q0 166 120.5 283t289.5 117q170 0 290.5 -117t120.5 -283t-120.5 -283.5t-290.5 -117.5q-169 0 -289.5 117.5t-120.5 283.5z" />
<glyph unicode="&#x3a8;" d="M87 656q0 166 120.5 283t289.5 117q170 0 290.5 -117t120.5 -283t-120.5 -283.5t-290.5 -117.5q-169 0 -289.5 117.5t-120.5 283.5z" />
<glyph unicode="&#x3a9;" d="M87 656q0 166 120.5 283t289.5 117q170 0 290.5 -117t120.5 -283t-120.5 -283.5t-290.5 -117.5q-169 0 -289.5 117.5t-120.5 283.5z" />
<glyph unicode="&#x3aa;" d="M87 656q0 166 120.5 283t289.5 117q170 0 290.5 -117t120.5 -283t-120.5 -283.5t-290.5 -117.5q-169 0 -289.5 117.5t-120.5 283.5z" />
<glyph unicode="&#x3ab;" d="M87 656q0 166 120.5 283t289.5 117q170 0 290.5 -117t120.5 -283t-120.5 -283.5t-290.5 -117.5q-169 0 -289.5 117.5t-120.5 283.5z" />
<glyph unicode="&#x3ac;" d="M87 656q0 166 120.5 283t289.5 117q170 0 290.5 -117t120.5 -283t-120.5 -283.5t-290.5 -117.5q-169 0 -289.5 117.5t-120.5 283.5z" />
<glyph unicode="&#x3ad;" d="M87 656q0 166 120.5 283t289.5 117q170 0 290.5 -117t120.5 -283t-120.5 -283.5t-290.5 -117.5q-169 0 -289.5 117.5t-120.5 283.5z" />
<glyph unicode="&#x3ae;" d="M87 656q0 166 120.5 283t289.5 117q170 0 290.5 -117t120.5 -283t-120.5 -283.5t-290.5 -117.5q-169 0 -289.5 117.5t-120.5 283.5z" />
<glyph unicode="&#x3af;" d="M87 656q0 166 120.5 283t289.5 117q170 0 290.5 -117t120.5 -283t-120.5 -283.5t-290.5 -117.5q-169 0 -289.5 117.5t-120.5 283.5z" />
<glyph unicode="&#x3b0;" d="M87 656q0 166 120.5 283t289.5 117q170 0 290.5 -117t120.5 -283t-120.5 -283.5t-290.5 -117.5q-169 0 -289.5 117.5t-120.5 283.5z" />
<glyph unicode="&#x3b1;" d="M87 656q0 166 120.5 283t289.5 117q170 0 290.5 -117t120.5 -283t-120.5 -283.5t-290.5 -117.5q-169 0 -289.5 117.5t-120.5 283.5z" />
<glyph unicode="&#x3b2;" d="M87 656q0 166 120.5 283t289.5 117q170 0 290.5 -117t120.5 -283t-120.5 -283.5t-290.5 -117.5q-169 0 -289.5 117.5t-120.5 283.5z" />
<glyph unicode="&#x3b3;" d="M87 656q0 166 120.5 283t289.5 117q170 0 290.5 -117t120.5 -283t-120.5 -283.5t-290.5 -117.5q-169 0 -289.5 117.5t-120.5 283.5z" />
<glyph unicode="&#x3b4;" d="M87 656q0 166 120.5 283t289.5 117q170 0 290.5 -117t120.5 -283t-120.5 -283.5t-290.5 -117.5q-169 0 -289.5 117.5t-120.5 283.5z" />
<glyph unicode="&#x3b5;" d="M87 656q0 166 120.5 283t289.5 117q170 0 290.5 -117t120.5 -283t-120.5 -283.5t-290.5 -117.5q-169 0 -289.5 117.5t-120.5 283.5z" />
<glyph unicode="&#x3b6;" d="M87 656q0 166 120.5 283t289.5 117q170 0 290.5 -117t120.5 -283t-120.5 -283.5t-290.5 -117.5q-169 0 -289.5 117.5t-120.5 283.5z" />
<glyph unicode="&#x3b7;" d="M87 656q0 166 120.5 283t289.5 117q170 0 290.5 -117t120.5 -283t-120.5 -283.5t-290.5 -117.5q-169 0 -289.5 117.5t-120.5 283.5z" />
<glyph unicode="&#x3b8;" d="M87 656q0 166 120.5 283t289.5 117q170 0 290.5 -117t120.5 -283t-120.5 -283.5t-290.5 -117.5q-169 0 -289.5 117.5t-120.5 283.5z" />
<glyph unicode="&#x3b9;" d="M87 656q0 166 120.5 283t289.5 117q170 0 290.5 -117t120.5 -283t-120.5 -283.5t-290.5 -117.5q-169 0 -289.5 117.5t-120.5 283.5z" />
<glyph unicode="&#x3ba;" d="M87 656q0 166 120.5 283t289.5 117q170 0 290.5 -117t120.5 -283t-120.5 -283.5t-290.5 -117.5q-169 0 -289.5 117.5t-120.5 283.5z" />
<glyph unicode="&#x3bb;" d="M87 656q0 166 120.5 283t289.5 117q170 0 290.5 -117t120.5 -283t-120.5 -283.5t-290.5 -117.5q-169 0 -289.5 117.5t-120.5 283.5z" />
<glyph unicode="&#x3bc;" d="M87 656q0 166 120.5 283t289.5 117q170 0 290.5 -117t120.5 -283t-120.5 -283.5t-290.5 -117.5q-169 0 -289.5 117.5t-120.5 283.5z" />
<glyph unicode="&#x3bd;" d="M87 656q0 166 120.5 283t289.5 117q170 0 290.5 -117t120.5 -283t-120.5 -283.5t-290.5 -117.5q-169 0 -289.5 117.5t-120.5 283.5z" />
<glyph unicode="&#x3be;" d="M87 656q0 166 120.5 283t289.5 117q170 0 290.5 -117t120.5 -283t-120.5 -283.5t-290.5 -117.5q-169 0 -289.5 117.5t-120.5 283.5z" />
<glyph unicode="&#x3bf;" d="M87 656q0 166 120.5 283t289.5 117q170 0 290.5 -117t120.5 -283t-120.5 -283.5t-290.5 -117.5q-169 0 -289.5 117.5t-120.5 283.5z" />
<glyph unicode="&#x3c0;" d="M87 656q0 166 120.5 283t289.5 117q170 0 290.5 -117t120.5 -283t-120.5 -283.5t-290.5 -117.5q-169 0 -289.5 117.5t-120.5 283.5z" />
<glyph unicode="&#x3c1;" d="M87 656q0 166 120.5 283t289.5 117q170 0 290.5 -117t120.5 -283t-120.5 -283.5t-290.5 -117.5q-169 0 -289.5 117.5t-120.5 283.5z" />
<glyph unicode="&#x3c2;" d="M87 656q0 166 120.5 283t289.5 117q170 0 290.5 -117t120.5 -283t-120.5 -283.5t-290.5 -117.5q-169 0 -289.5 117.5t-120.5 283.5z" />
<glyph unicode="&#x3c3;" d="M87 656q0 166 120.5 283t289.5 117q170 0 290.5 -117t120.5 -283t-120.5 -283.5t-290.5 -117.5q-169 0 -289.5 117.5t-120.5 283.5z" />
<glyph unicode="&#x3c4;" d="M87 656q0 166 120.5 283t289.5 117q170 0 290.5 -117t120.5 -283t-120.5 -283.5t-290.5 -117.5q-169 0 -289.5 117.5t-120.5 283.5z" />
<glyph unicode="&#x3c5;" d="M87 656q0 166 120.5 283t289.5 117q170 0 290.5 -117t120.5 -283t-120.5 -283.5t-290.5 -117.5q-169 0 -289.5 117.5t-120.5 283.5z" />
<glyph unicode="&#x3c6;" d="M87 656q0 166 120.5 283t289.5 117q170 0 290.5 -117t120.5 -283t-120.5 -283.5t-290.5 -117.5q-169 0 -289.5 117.5t-120.5 283.5z" />
<glyph unicode="&#x3c7;" d="M87 656q0 166 120.5 283t289.5 117q170 0 290.5 -117t120.5 -283t-120.5 -283.5t-290.5 -117.5q-169 0 -289.5 117.5t-120.5 283.5z" />
<glyph unicode="&#x3c8;" d="M87 656q0 166 120.5 283t289.5 117q170 0 290.5 -117t120.5 -283t-120.5 -283.5t-290.5 -117.5q-169 0 -289.5 117.5t-120.5 283.5z" />
<glyph unicode="&#x3c9;" d="M87 656q0 166 120.5 283t289.5 117q170 0 290.5 -117t120.5 -283t-120.5 -283.5t-290.5 -117.5q-169 0 -289.5 117.5t-120.5 283.5z" />
<glyph unicode="&#x3ca;" d="M87 656q0 166 120.5 283t289.5 117q170 0 290.5 -117t120.5 -283t-120.5 -283.5t-290.5 -117.5q-169 0 -289.5 117.5t-120.5 283.5z" />
<glyph unicode="&#x3cb;" d="M87 656q0 166 120.5 283t289.5 117q170 0 290.5 -117t120.5 -283t-120.5 -283.5t-290.5 -117.5q-169 0 -289.5 117.5t-120.5 283.5z" />
<glyph unicode="&#x3cc;" d="M87 656q0 166 120.5 283t289.5 117q170 0 290.5 -117t120.5 -283t-120.5 -283.5t-290.5 -117.5q-169 0 -289.5 117.5t-120.5 283.5z" />
<glyph unicode="&#x3cd;" d="M87 656q0 166 120.5 283t289.5 117q170 0 290.5 -117t120.5 -283t-120.5 -283.5t-290.5 -117.5q-169 0 -289.5 117.5t-120.5 283.5z" />
<glyph unicode="&#x3ce;" d="M87 656q0 166 120.5 283t289.5 117q170 0 290.5 -117t120.5 -283t-120.5 -283.5t-290.5 -117.5q-169 0 -289.5 117.5t-120.5 283.5z" />
<glyph unicode="&#x3d6;" d="M87 656q0 166 120.5 283t289.5 117q170 0 290.5 -117t120.5 -283t-120.5 -283.5t-290.5 -117.5q-169 0 -289.5 117.5t-120.5 283.5z" />
<glyph unicode="&#x401;" d="M87 656q0 166 120.5 283t289.5 117q170 0 290.5 -117t120.5 -283t-120.5 -283.5t-290.5 -117.5q-169 0 -289.5 117.5t-120.5 283.5z" />
<glyph unicode="&#x402;" d="M87 656q0 166 120.5 283t289.5 117q170 0 290.5 -117t120.5 -283t-120.5 -283.5t-290.5 -117.5q-169 0 -289.5 117.5t-120.5 283.5z" />
<glyph unicode="&#x403;" d="M87 656q0 166 120.5 283t289.5 117q170 0 290.5 -117t120.5 -283t-120.5 -283.5t-290.5 -117.5q-169 0 -289.5 117.5t-120.5 283.5z" />
<glyph unicode="&#x404;" d="M87 656q0 166 120.5 283t289.5 117q170 0 290.5 -117t120.5 -283t-120.5 -283.5t-290.5 -117.5q-169 0 -289.5 117.5t-120.5 283.5z" />
<glyph unicode="&#x405;" d="M87 656q0 166 120.5 283t289.5 117q170 0 290.5 -117t120.5 -283t-120.5 -283.5t-290.5 -117.5q-169 0 -289.5 117.5t-120.5 283.5z" />
<glyph unicode="&#x406;" d="M87 656q0 166 120.5 283t289.5 117q170 0 290.5 -117t120.5 -283t-120.5 -283.5t-290.5 -117.5q-169 0 -289.5 117.5t-120.5 283.5z" />
<glyph unicode="&#x407;" d="M87 656q0 166 120.5 283t289.5 117q170 0 290.5 -117t120.5 -283t-120.5 -283.5t-290.5 -117.5q-169 0 -289.5 117.5t-120.5 283.5z" />
<glyph unicode="&#x408;" d="M87 656q0 166 120.5 283t289.5 117q170 0 290.5 -117t120.5 -283t-120.5 -283.5t-290.5 -117.5q-169 0 -289.5 117.5t-120.5 283.5z" />
<glyph unicode="&#x409;" d="M87 656q0 166 120.5 283t289.5 117q170 0 290.5 -117t120.5 -283t-120.5 -283.5t-290.5 -117.5q-169 0 -289.5 117.5t-120.5 283.5z" />
<glyph unicode="&#x40a;" d="M87 656q0 166 120.5 283t289.5 117q170 0 290.5 -117t120.5 -283t-120.5 -283.5t-290.5 -117.5q-169 0 -289.5 117.5t-120.5 283.5z" />
<glyph unicode="&#x40b;" d="M87 656q0 166 120.5 283t289.5 117q170 0 290.5 -117t120.5 -283t-120.5 -283.5t-290.5 -117.5q-169 0 -289.5 117.5t-120.5 283.5z" />
<glyph unicode="&#x40c;" d="M87 656q0 166 120.5 283t289.5 117q170 0 290.5 -117t120.5 -283t-120.5 -283.5t-290.5 -117.5q-169 0 -289.5 117.5t-120.5 283.5z" />
<glyph unicode="&#x40e;" d="M87 656q0 166 120.5 283t289.5 117q170 0 290.5 -117t120.5 -283t-120.5 -283.5t-290.5 -117.5q-169 0 -289.5 117.5t-120.5 283.5z" />
<glyph unicode="&#x40f;" d="M87 656q0 166 120.5 283t289.5 117q170 0 290.5 -117t120.5 -283t-120.5 -283.5t-290.5 -117.5q-169 0 -289.5 117.5t-120.5 283.5z" />
<glyph unicode="&#x410;" d="M87 656q0 166 120.5 283t289.5 117q170 0 290.5 -117t120.5 -283t-120.5 -283.5t-290.5 -117.5q-169 0 -289.5 117.5t-120.5 283.5z" />
<glyph unicode="&#x411;" d="M87 656q0 166 120.5 283t289.5 117q170 0 290.5 -117t120.5 -283t-120.5 -283.5t-290.5 -117.5q-169 0 -289.5 117.5t-120.5 283.5z" />
<glyph unicode="&#x412;" d="M87 656q0 166 120.5 283t289.5 117q170 0 290.5 -117t120.5 -283t-120.5 -283.5t-290.5 -117.5q-169 0 -289.5 117.5t-120.5 283.5z" />
<glyph unicode="&#x413;" d="M87 656q0 166 120.5 283t289.5 117q170 0 290.5 -117t120.5 -283t-120.5 -283.5t-290.5 -117.5q-169 0 -289.5 117.5t-120.5 283.5z" />
<glyph unicode="&#x414;" d="M87 656q0 166 120.5 283t289.5 117q170 0 290.5 -117t120.5 -283t-120.5 -283.5t-290.5 -117.5q-169 0 -289.5 117.5t-120.5 283.5z" />
<glyph unicode="&#x415;" d="M87 656q0 166 120.5 283t289.5 117q170 0 290.5 -117t120.5 -283t-120.5 -283.5t-290.5 -117.5q-169 0 -289.5 117.5t-120.5 283.5z" />
<glyph unicode="&#x416;" d="M87 656q0 166 120.5 283t289.5 117q170 0 290.5 -117t120.5 -283t-120.5 -283.5t-290.5 -117.5q-169 0 -289.5 117.5t-120.5 283.5z" />
<glyph unicode="&#x417;" d="M87 656q0 166 120.5 283t289.5 117q170 0 290.5 -117t120.5 -283t-120.5 -283.5t-290.5 -117.5q-169 0 -289.5 117.5t-120.5 283.5z" />
<glyph unicode="&#x418;" d="M87 656q0 166 120.5 283t289.5 117q170 0 290.5 -117t120.5 -283t-120.5 -283.5t-290.5 -117.5q-169 0 -289.5 117.5t-120.5 283.5z" />
<glyph unicode="&#x419;" d="M87 656q0 166 120.5 283t289.5 117q170 0 290.5 -117t120.5 -283t-120.5 -283.5t-290.5 -117.5q-169 0 -289.5 117.5t-120.5 283.5z" />
<glyph unicode="&#x41a;" d="M87 656q0 166 120.5 283t289.5 117q170 0 290.5 -117t120.5 -283t-120.5 -283.5t-290.5 -117.5q-169 0 -289.5 117.5t-120.5 283.5z" />
<glyph unicode="&#x41b;" d="M87 656q0 166 120.5 283t289.5 117q170 0 290.5 -117t120.5 -283t-120.5 -283.5t-290.5 -117.5q-169 0 -289.5 117.5t-120.5 283.5z" />
<glyph unicode="&#x41c;" d="M87 656q0 166 120.5 283t289.5 117q170 0 290.5 -117t120.5 -283t-120.5 -283.5t-290.5 -117.5q-169 0 -289.5 117.5t-120.5 283.5z" />
<glyph unicode="&#x41d;" d="M87 656q0 166 120.5 283t289.5 117q170 0 290.5 -117t120.5 -283t-120.5 -283.5t-290.5 -117.5q-169 0 -289.5 117.5t-120.5 283.5z" />
<glyph unicode="&#x41e;" d="M87 656q0 166 120.5 283t289.5 117q170 0 290.5 -117t120.5 -283t-120.5 -283.5t-290.5 -117.5q-169 0 -289.5 117.5t-120.5 283.5z" />
<glyph unicode="&#x41f;" d="M87 656q0 166 120.5 283t289.5 117q170 0 290.5 -117t120.5 -283t-120.5 -283.5t-290.5 -117.5q-169 0 -289.5 117.5t-120.5 283.5z" />
<glyph unicode="&#x420;" d="M87 656q0 166 120.5 283t289.5 117q170 0 290.5 -117t120.5 -283t-120.5 -283.5t-290.5 -117.5q-169 0 -289.5 117.5t-120.5 283.5z" />
<glyph unicode="&#x421;" d="M87 656q0 166 120.5 283t289.5 117q170 0 290.5 -117t120.5 -283t-120.5 -283.5t-290.5 -117.5q-169 0 -289.5 117.5t-120.5 283.5z" />
<glyph unicode="&#x422;" d="M87 656q0 166 120.5 283t289.5 117q170 0 290.5 -117t120.5 -283t-120.5 -283.5t-290.5 -117.5q-169 0 -289.5 117.5t-120.5 283.5z" />
<glyph unicode="&#x423;" d="M87 656q0 166 120.5 283t289.5 117q170 0 290.5 -117t120.5 -283t-120.5 -283.5t-290.5 -117.5q-169 0 -289.5 117.5t-120.5 283.5z" />
<glyph unicode="&#x424;" d="M87 656q0 166 120.5 283t289.5 117q170 0 290.5 -117t120.5 -283t-120.5 -283.5t-290.5 -117.5q-169 0 -289.5 117.5t-120.5 283.5z" />
<glyph unicode="&#x425;" d="M87 656q0 166 120.5 283t289.5 117q170 0 290.5 -117t120.5 -283t-120.5 -283.5t-290.5 -117.5q-169 0 -289.5 117.5t-120.5 283.5z" />
<glyph unicode="&#x426;" d="M87 656q0 166 120.5 283t289.5 117q170 0 290.5 -117t120.5 -283t-120.5 -283.5t-290.5 -117.5q-169 0 -289.5 117.5t-120.5 283.5z" />
<glyph unicode="&#x427;" d="M87 656q0 166 120.5 283t289.5 117q170 0 290.5 -117t120.5 -283t-120.5 -283.5t-290.5 -117.5q-169 0 -289.5 117.5t-120.5 283.5z" />
<glyph unicode="&#x428;" d="M87 656q0 166 120.5 283t289.5 117q170 0 290.5 -117t120.5 -283t-120.5 -283.5t-290.5 -117.5q-169 0 -289.5 117.5t-120.5 283.5z" />
<glyph unicode="&#x429;" d="M87 656q0 166 120.5 283t289.5 117q170 0 290.5 -117t120.5 -283t-120.5 -283.5t-290.5 -117.5q-169 0 -289.5 117.5t-120.5 283.5z" />
<glyph unicode="&#x42a;" d="M87 656q0 166 120.5 283t289.5 117q170 0 290.5 -117t120.5 -283t-120.5 -283.5t-290.5 -117.5q-169 0 -289.5 117.5t-120.5 283.5z" />
<glyph unicode="&#x42b;" d="M87 656q0 166 120.5 283t289.5 117q170 0 290.5 -117t120.5 -283t-120.5 -283.5t-290.5 -117.5q-169 0 -289.5 117.5t-120.5 283.5z" />
<glyph unicode="&#x42c;" d="M87 656q0 166 120.5 283t289.5 117q170 0 290.5 -117t120.5 -283t-120.5 -283.5t-290.5 -117.5q-169 0 -289.5 117.5t-120.5 283.5z" />
<glyph unicode="&#x42d;" d="M87 656q0 166 120.5 283t289.5 117q170 0 290.5 -117t120.5 -283t-120.5 -283.5t-290.5 -117.5q-169 0 -289.5 117.5t-120.5 283.5z" />
<glyph unicode="&#x42e;" d="M87 656q0 166 120.5 283t289.5 117q170 0 290.5 -117t120.5 -283t-120.5 -283.5t-290.5 -117.5q-169 0 -289.5 117.5t-120.5 283.5z" />
<glyph unicode="&#x42f;" d="M87 656q0 166 120.5 283t289.5 117q170 0 290.5 -117t120.5 -283t-120.5 -283.5t-290.5 -117.5q-169 0 -289.5 117.5t-120.5 283.5z" />
<glyph unicode="&#x430;" d="M87 656q0 166 120.5 283t289.5 117q170 0 290.5 -117t120.5 -283t-120.5 -283.5t-290.5 -117.5q-169 0 -289.5 117.5t-120.5 283.5z" />
<glyph unicode="&#x431;" d="M87 656q0 166 120.5 283t289.5 117q170 0 290.5 -117t120.5 -283t-120.5 -283.5t-290.5 -117.5q-169 0 -289.5 117.5t-120.5 283.5z" />
<glyph unicode="&#x432;" d="M87 656q0 166 120.5 283t289.5 117q170 0 290.5 -117t120.5 -283t-120.5 -283.5t-290.5 -117.5q-169 0 -289.5 117.5t-120.5 283.5z" />
<glyph unicode="&#x433;" d="M87 656q0 166 120.5 283t289.5 117q170 0 290.5 -117t120.5 -283t-120.5 -283.5t-290.5 -117.5q-169 0 -289.5 117.5t-120.5 283.5z" />
<glyph unicode="&#x434;" d="M87 656q0 166 120.5 283t289.5 117q170 0 290.5 -117t120.5 -283t-120.5 -283.5t-290.5 -117.5q-169 0 -289.5 117.5t-120.5 283.5z" />
<glyph unicode="&#x435;" d="M87 656q0 166 120.5 283t289.5 117q170 0 290.5 -117t120.5 -283t-120.5 -283.5t-290.5 -117.5q-169 0 -289.5 117.5t-120.5 283.5z" />
<glyph unicode="&#x436;" d="M87 656q0 166 120.5 283t289.5 117q170 0 290.5 -117t120.5 -283t-120.5 -283.5t-290.5 -117.5q-169 0 -289.5 117.5t-120.5 283.5z" />
<glyph unicode="&#x437;" d="M87 656q0 166 120.5 283t289.5 117q170 0 290.5 -117t120.5 -283t-120.5 -283.5t-290.5 -117.5q-169 0 -289.5 117.5t-120.5 283.5z" />
<glyph unicode="&#x438;" d="M87 656q0 166 120.5 283t289.5 117q170 0 290.5 -117t120.5 -283t-120.5 -283.5t-290.5 -117.5q-169 0 -289.5 117.5t-120.5 283.5z" />
<glyph unicode="&#x439;" d="M87 656q0 166 120.5 283t289.5 117q170 0 290.5 -117t120.5 -283t-120.5 -283.5t-290.5 -117.5q-169 0 -289.5 117.5t-120.5 283.5z" />
<glyph unicode="&#x43a;" d="M87 656q0 166 120.5 283t289.5 117q170 0 290.5 -117t120.5 -283t-120.5 -283.5t-290.5 -117.5q-169 0 -289.5 117.5t-120.5 283.5z" />
<glyph unicode="&#x43b;" d="M87 656q0 166 120.5 283t289.5 117q170 0 290.5 -117t120.5 -283t-120.5 -283.5t-290.5 -117.5q-169 0 -289.5 117.5t-120.5 283.5z" />
<glyph unicode="&#x43c;" d="M87 656q0 166 120.5 283t289.5 117q170 0 290.5 -117t120.5 -283t-120.5 -283.5t-290.5 -117.5q-169 0 -289.5 117.5t-120.5 283.5z" />
<glyph unicode="&#x43d;" d="M87 656q0 166 120.5 283t289.5 117q170 0 290.5 -117t120.5 -283t-120.5 -283.5t-290.5 -117.5q-169 0 -289.5 117.5t-120.5 283.5z" />
<glyph unicode="&#x43e;" d="M87 656q0 166 120.5 283t289.5 117q170 0 290.5 -117t120.5 -283t-120.5 -283.5t-290.5 -117.5q-169 0 -289.5 117.5t-120.5 283.5z" />
<glyph unicode="&#x43f;" d="M87 656q0 166 120.5 283t289.5 117q170 0 290.5 -117t120.5 -283t-120.5 -283.5t-290.5 -117.5q-169 0 -289.5 117.5t-120.5 283.5z" />
<glyph unicode="&#x440;" d="M87 656q0 166 120.5 283t289.5 117q170 0 290.5 -117t120.5 -283t-120.5 -283.5t-290.5 -117.5q-169 0 -289.5 117.5t-120.5 283.5z" />
<glyph unicode="&#x441;" d="M87 656q0 166 120.5 283t289.5 117q170 0 290.5 -117t120.5 -283t-120.5 -283.5t-290.5 -117.5q-169 0 -289.5 117.5t-120.5 283.5z" />
<glyph unicode="&#x442;" d="M87 656q0 166 120.5 283t289.5 117q170 0 290.5 -117t120.5 -283t-120.5 -283.5t-290.5 -117.5q-169 0 -289.5 117.5t-120.5 283.5z" />
<glyph unicode="&#x443;" d="M87 656q0 166 120.5 283t289.5 117q170 0 290.5 -117t120.5 -283t-120.5 -283.5t-290.5 -117.5q-169 0 -289.5 117.5t-120.5 283.5z" />
<glyph unicode="&#x444;" d="M87 656q0 166 120.5 283t289.5 117q170 0 290.5 -117t120.5 -283t-120.5 -283.5t-290.5 -117.5q-169 0 -289.5 117.5t-120.5 283.5z" />
<glyph unicode="&#x445;" d="M87 656q0 166 120.5 283t289.5 117q170 0 290.5 -117t120.5 -283t-120.5 -283.5t-290.5 -117.5q-169 0 -289.5 117.5t-120.5 283.5z" />
<glyph unicode="&#x446;" d="M87 656q0 166 120.5 283t289.5 117q170 0 290.5 -117t120.5 -283t-120.5 -283.5t-290.5 -117.5q-169 0 -289.5 117.5t-120.5 283.5z" />
<glyph unicode="&#x447;" d="M87 656q0 166 120.5 283t289.5 117q170 0 290.5 -117t120.5 -283t-120.5 -283.5t-290.5 -117.5q-169 0 -289.5 117.5t-120.5 283.5z" />
<glyph unicode="&#x448;" d="M87 656q0 166 120.5 283t289.5 117q170 0 290.5 -117t120.5 -283t-120.5 -283.5t-290.5 -117.5q-169 0 -289.5 117.5t-120.5 283.5z" />
<glyph unicode="&#x449;" d="M87 656q0 166 120.5 283t289.5 117q170 0 290.5 -117t120.5 -283t-120.5 -283.5t-290.5 -117.5q-169 0 -289.5 117.5t-120.5 283.5z" />
<glyph unicode="&#x44a;" d="M87 656q0 166 120.5 283t289.5 117q170 0 290.5 -117t120.5 -283t-120.5 -283.5t-290.5 -117.5q-169 0 -289.5 117.5t-120.5 283.5z" />
<glyph unicode="&#x44b;" d="M87 656q0 166 120.5 283t289.5 117q170 0 290.5 -117t120.5 -283t-120.5 -283.5t-290.5 -117.5q-169 0 -289.5 117.5t-120.5 283.5z" />
<glyph unicode="&#x44c;" d="M87 656q0 166 120.5 283t289.5 117q170 0 290.5 -117t120.5 -283t-120.5 -283.5t-290.5 -117.5q-169 0 -289.5 117.5t-120.5 283.5z" />
<glyph unicode="&#x44d;" d="M87 656q0 166 120.5 283t289.5 117q170 0 290.5 -117t120.5 -283t-120.5 -283.5t-290.5 -117.5q-169 0 -289.5 117.5t-120.5 283.5z" />
<glyph unicode="&#x44e;" d="M87 656q0 166 120.5 283t289.5 117q170 0 290.5 -117t120.5 -283t-120.5 -283.5t-290.5 -117.5q-169 0 -289.5 117.5t-120.5 283.5z" />
<glyph unicode="&#x44f;" d="M87 656q0 166 120.5 283t289.5 117q170 0 290.5 -117t120.5 -283t-120.5 -283.5t-290.5 -117.5q-169 0 -289.5 117.5t-120.5 283.5z" />
<glyph unicode="&#x451;" d="M87 656q0 166 120.5 283t289.5 117q170 0 290.5 -117t120.5 -283t-120.5 -283.5t-290.5 -117.5q-169 0 -289.5 117.5t-120.5 283.5z" />
<glyph unicode="&#x452;" d="M87 656q0 166 120.5 283t289.5 117q170 0 290.5 -117t120.5 -283t-120.5 -283.5t-290.5 -117.5q-169 0 -289.5 117.5t-120.5 283.5z" />
<glyph unicode="&#x453;" d="M87 656q0 166 120.5 283t289.5 117q170 0 290.5 -117t120.5 -283t-120.5 -283.5t-290.5 -117.5q-169 0 -289.5 117.5t-120.5 283.5z" />
<glyph unicode="&#x454;" d="M87 656q0 166 120.5 283t289.5 117q170 0 290.5 -117t120.5 -283t-120.5 -283.5t-290.5 -117.5q-169 0 -289.5 117.5t-120.5 283.5z" />
<glyph unicode="&#x455;" d="M87 656q0 166 120.5 283t289.5 117q170 0 290.5 -117t120.5 -283t-120.5 -283.5t-290.5 -117.5q-169 0 -289.5 117.5t-120.5 283.5z" />
<glyph unicode="&#x456;" d="M87 656q0 166 120.5 283t289.5 117q170 0 290.5 -117t120.5 -283t-120.5 -283.5t-290.5 -117.5q-169 0 -289.5 117.5t-120.5 283.5z" />
<glyph unicode="&#x457;" d="M87 656q0 166 120.5 283t289.5 117q170 0 290.5 -117t120.5 -283t-120.5 -283.5t-290.5 -117.5q-169 0 -289.5 117.5t-120.5 283.5z" />
<glyph unicode="&#x458;" d="M87 656q0 166 120.5 283t289.5 117q170 0 290.5 -117t120.5 -283t-120.5 -283.5t-290.5 -117.5q-169 0 -289.5 117.5t-120.5 283.5z" />
<glyph unicode="&#x459;" d="M87 656q0 166 120.5 283t289.5 117q170 0 290.5 -117t120.5 -283t-120.5 -283.5t-290.5 -117.5q-169 0 -289.5 117.5t-120.5 283.5z" />
<glyph unicode="&#x45a;" d="M87 656q0 166 120.5 283t289.5 117q170 0 290.5 -117t120.5 -283t-120.5 -283.5t-290.5 -117.5q-169 0 -289.5 117.5t-120.5 283.5z" />
<glyph unicode="&#x45b;" d="M87 656q0 166 120.5 283t289.5 117q170 0 290.5 -117t120.5 -283t-120.5 -283.5t-290.5 -117.5q-169 0 -289.5 117.5t-120.5 283.5z" />
<glyph unicode="&#x45c;" d="M87 656q0 166 120.5 283t289.5 117q170 0 290.5 -117t120.5 -283t-120.5 -283.5t-290.5 -117.5q-169 0 -289.5 117.5t-120.5 283.5z" />
<glyph unicode="&#x45e;" d="M87 656q0 166 120.5 283t289.5 117q170 0 290.5 -117t120.5 -283t-120.5 -283.5t-290.5 -117.5q-169 0 -289.5 117.5t-120.5 283.5z" />
<glyph unicode="&#x45f;" d="M87 656q0 166 120.5 283t289.5 117q170 0 290.5 -117t120.5 -283t-120.5 -283.5t-290.5 -117.5q-169 0 -289.5 117.5t-120.5 283.5z" />
<glyph unicode="&#x490;" d="M87 656q0 166 120.5 283t289.5 117q170 0 290.5 -117t120.5 -283t-120.5 -283.5t-290.5 -117.5q-169 0 -289.5 117.5t-120.5 283.5z" />
<glyph unicode="&#x491;" d="M87 656q0 166 120.5 283t289.5 117q170 0 290.5 -117t120.5 -283t-120.5 -283.5t-290.5 -117.5q-169 0 -289.5 117.5t-120.5 283.5z" />
<glyph unicode="&#x492;" d="M87 656q0 166 120.5 283t289.5 117q170 0 290.5 -117t120.5 -283t-120.5 -283.5t-290.5 -117.5q-169 0 -289.5 117.5t-120.5 283.5z" />
<glyph unicode="&#x493;" d="M87 656q0 166 120.5 283t289.5 117q170 0 290.5 -117t120.5 -283t-120.5 -283.5t-290.5 -117.5q-169 0 -289.5 117.5t-120.5 283.5z" />
<glyph unicode="&#x496;" d="M87 656q0 166 120.5 283t289.5 117q170 0 290.5 -117t120.5 -283t-120.5 -283.5t-290.5 -117.5q-169 0 -289.5 117.5t-120.5 283.5z" />
<glyph unicode="&#x497;" d="M87 656q0 166 120.5 283t289.5 117q170 0 290.5 -117t120.5 -283t-120.5 -283.5t-290.5 -117.5q-169 0 -289.5 117.5t-120.5 283.5z" />
<glyph unicode="&#x49a;" d="M87 656q0 166 120.5 283t289.5 117q170 0 290.5 -117t120.5 -283t-120.5 -283.5t-290.5 -117.5q-169 0 -289.5 117.5t-120.5 283.5z" />
<glyph unicode="&#x49b;" d="M87 656q0 166 120.5 283t289.5 117q170 0 290.5 -117t120.5 -283t-120.5 -283.5t-290.5 -117.5q-169 0 -289.5 117.5t-120.5 283.5z" />
<glyph unicode="&#x49c;" d="M87 656q0 166 120.5 283t289.5 117q170 0 290.5 -117t120.5 -283t-120.5 -283.5t-290.5 -117.5q-169 0 -289.5 117.5t-120.5 283.5z" />
<glyph unicode="&#x49d;" d="M87 656q0 166 120.5 283t289.5 117q170 0 290.5 -117t120.5 -283t-120.5 -283.5t-290.5 -117.5q-169 0 -289.5 117.5t-120.5 283.5z" />
<glyph unicode="&#x4a2;" d="M87 656q0 166 120.5 283t289.5 117q170 0 290.5 -117t120.5 -283t-120.5 -283.5t-290.5 -117.5q-169 0 -289.5 117.5t-120.5 283.5z" />
<glyph unicode="&#x4a3;" d="M87 656q0 166 120.5 283t289.5 117q170 0 290.5 -117t120.5 -283t-120.5 -283.5t-290.5 -117.5q-169 0 -289.5 117.5t-120.5 283.5z" />
<glyph unicode="&#x4ae;" d="M87 656q0 166 120.5 283t289.5 117q170 0 290.5 -117t120.5 -283t-120.5 -283.5t-290.5 -117.5q-169 0 -289.5 117.5t-120.5 283.5z" />
<glyph unicode="&#x4af;" d="M87 656q0 166 120.5 283t289.5 117q170 0 290.5 -117t120.5 -283t-120.5 -283.5t-290.5 -117.5q-169 0 -289.5 117.5t-120.5 283.5z" />
<glyph unicode="&#x4b0;" d="M87 656q0 166 120.5 283t289.5 117q170 0 290.5 -117t120.5 -283t-120.5 -283.5t-290.5 -117.5q-169 0 -289.5 117.5t-120.5 283.5z" />
<glyph unicode="&#x4b1;" d="M87 656q0 166 120.5 283t289.5 117q170 0 290.5 -117t120.5 -283t-120.5 -283.5t-290.5 -117.5q-169 0 -289.5 117.5t-120.5 283.5z" />
<glyph unicode="&#x4b2;" d="M87 656q0 166 120.5 283t289.5 117q170 0 290.5 -117t120.5 -283t-120.5 -283.5t-290.5 -117.5q-169 0 -289.5 117.5t-120.5 283.5z" />
<glyph unicode="&#x4b3;" d="M87 656q0 166 120.5 283t289.5 117q170 0 290.5 -117t120.5 -283t-120.5 -283.5t-290.5 -117.5q-169 0 -289.5 117.5t-120.5 283.5z" />
<glyph unicode="&#x4b8;" d="M87 656q0 166 120.5 283t289.5 117q170 0 290.5 -117t120.5 -283t-120.5 -283.5t-290.5 -117.5q-169 0 -289.5 117.5t-120.5 283.5z" />
<glyph unicode="&#x4b9;" d="M87 656q0 166 120.5 283t289.5 117q170 0 290.5 -117t120.5 -283t-120.5 -283.5t-290.5 -117.5q-169 0 -289.5 117.5t-120.5 283.5z" />
<glyph unicode="&#x4ba;" d="M87 656q0 166 120.5 283t289.5 117q170 0 290.5 -117t120.5 -283t-120.5 -283.5t-290.5 -117.5q-169 0 -289.5 117.5t-120.5 283.5z" />
<glyph unicode="&#x4bb;" d="M87 656q0 166 120.5 283t289.5 117q170 0 290.5 -117t120.5 -283t-120.5 -283.5t-290.5 -117.5q-169 0 -289.5 117.5t-120.5 283.5z" />
<glyph unicode="&#x4e8;" d="M87 656q0 166 120.5 283t289.5 117q170 0 290.5 -117t120.5 -283t-120.5 -283.5t-290.5 -117.5q-169 0 -289.5 117.5t-120.5 283.5z" />
<glyph unicode="&#x4e9;" d="M87 656q0 166 120.5 283t289.5 117q170 0 290.5 -117t120.5 -283t-120.5 -283.5t-290.5 -117.5q-169 0 -289.5 117.5t-120.5 283.5z" />
<glyph unicode="&#x5b0;" d="M87 656q0 166 120.5 283t289.5 117q170 0 290.5 -117t120.5 -283t-120.5 -283.5t-290.5 -117.5q-169 0 -289.5 117.5t-120.5 283.5z" />
<glyph unicode="&#x5b1;" d="M87 656q0 166 120.5 283t289.5 117q170 0 290.5 -117t120.5 -283t-120.5 -283.5t-290.5 -117.5q-169 0 -289.5 117.5t-120.5 283.5z" />
<glyph unicode="&#x5b2;" d="M87 656q0 166 120.5 283t289.5 117q170 0 290.5 -117t120.5 -283t-120.5 -283.5t-290.5 -117.5q-169 0 -289.5 117.5t-120.5 283.5z" />
<glyph unicode="&#x5b3;" d="M87 656q0 166 120.5 283t289.5 117q170 0 290.5 -117t120.5 -283t-120.5 -283.5t-290.5 -117.5q-169 0 -289.5 117.5t-120.5 283.5z" />
<glyph unicode="&#x5b4;" d="M87 656q0 166 120.5 283t289.5 117q170 0 290.5 -117t120.5 -283t-120.5 -283.5t-290.5 -117.5q-169 0 -289.5 117.5t-120.5 283.5z" />
<glyph unicode="&#x5b5;" d="M87 656q0 166 120.5 283t289.5 117q170 0 290.5 -117t120.5 -283t-120.5 -283.5t-290.5 -117.5q-169 0 -289.5 117.5t-120.5 283.5z" />
<glyph unicode="&#x5b6;" d="M87 656q0 166 120.5 283t289.5 117q170 0 290.5 -117t120.5 -283t-120.5 -283.5t-290.5 -117.5q-169 0 -289.5 117.5t-120.5 283.5z" />
<glyph unicode="&#x5b7;" d="M87 656q0 166 120.5 283t289.5 117q170 0 290.5 -117t120.5 -283t-120.5 -283.5t-290.5 -117.5q-169 0 -289.5 117.5t-120.5 283.5z" />
<glyph unicode="&#x5b8;" d="M87 656q0 166 120.5 283t289.5 117q170 0 290.5 -117t120.5 -283t-120.5 -283.5t-290.5 -117.5q-169 0 -289.5 117.5t-120.5 283.5z" />
<glyph unicode="&#x5b9;" d="M87 656q0 166 120.5 283t289.5 117q170 0 290.5 -117t120.5 -283t-120.5 -283.5t-290.5 -117.5q-169 0 -289.5 117.5t-120.5 283.5z" />
<glyph unicode="&#x5bb;" d="M87 656q0 166 120.5 283t289.5 117q170 0 290.5 -117t120.5 -283t-120.5 -283.5t-290.5 -117.5q-169 0 -289.5 117.5t-120.5 283.5z" />
<glyph unicode="&#x5bc;" d="M87 656q0 166 120.5 283t289.5 117q170 0 290.5 -117t120.5 -283t-120.5 -283.5t-290.5 -117.5q-169 0 -289.5 117.5t-120.5 283.5z" />
<glyph unicode="&#x5bd;" d="M87 656q0 166 120.5 283t289.5 117q170 0 290.5 -117t120.5 -283t-120.5 -283.5t-290.5 -117.5q-169 0 -289.5 117.5t-120.5 283.5z" />
<glyph unicode="&#x5be;" d="M87 656q0 166 120.5 283t289.5 117q170 0 290.5 -117t120.5 -283t-120.5 -283.5t-290.5 -117.5q-169 0 -289.5 117.5t-120.5 283.5z" />
<glyph unicode="&#x5bf;" d="M87 656q0 166 120.5 283t289.5 117q170 0 290.5 -117t120.5 -283t-120.5 -283.5t-290.5 -117.5q-169 0 -289.5 117.5t-120.5 283.5z" />
<glyph unicode="&#x5c0;" d="M87 656q0 166 120.5 283t289.5 117q170 0 290.5 -117t120.5 -283t-120.5 -283.5t-290.5 -117.5q-169 0 -289.5 117.5t-120.5 283.5z" />
<glyph unicode="&#x5c1;" d="M87 656q0 166 120.5 283t289.5 117q170 0 290.5 -117t120.5 -283t-120.5 -283.5t-290.5 -117.5q-169 0 -289.5 117.5t-120.5 283.5z" />
<glyph unicode="&#x5c2;" d="M87 656q0 166 120.5 283t289.5 117q170 0 290.5 -117t120.5 -283t-120.5 -283.5t-290.5 -117.5q-169 0 -289.5 117.5t-120.5 283.5z" />
<glyph unicode="&#x5c3;" d="M87 656q0 166 120.5 283t289.5 117q170 0 290.5 -117t120.5 -283t-120.5 -283.5t-290.5 -117.5q-169 0 -289.5 117.5t-120.5 283.5z" />
<glyph unicode="&#x5d0;" d="M87 656q0 166 120.5 283t289.5 117q170 0 290.5 -117t120.5 -283t-120.5 -283.5t-290.5 -117.5q-169 0 -289.5 117.5t-120.5 283.5z" />
<glyph unicode="&#x5d1;" d="M87 656q0 166 120.5 283t289.5 117q170 0 290.5 -117t120.5 -283t-120.5 -283.5t-290.5 -117.5q-169 0 -289.5 117.5t-120.5 283.5z" />
<glyph unicode="&#x5d2;" d="M87 656q0 166 120.5 283t289.5 117q170 0 290.5 -117t120.5 -283t-120.5 -283.5t-290.5 -117.5q-169 0 -289.5 117.5t-120.5 283.5z" />
<glyph unicode="&#x5d3;" d="M87 656q0 166 120.5 283t289.5 117q170 0 290.5 -117t120.5 -283t-120.5 -283.5t-290.5 -117.5q-169 0 -289.5 117.5t-120.5 283.5z" />
<glyph unicode="&#x5d4;" d="M87 656q0 166 120.5 283t289.5 117q170 0 290.5 -117t120.5 -283t-120.5 -283.5t-290.5 -117.5q-169 0 -289.5 117.5t-120.5 283.5z" />
<glyph unicode="&#x5d5;" d="M87 656q0 166 120.5 283t289.5 117q170 0 290.5 -117t120.5 -283t-120.5 -283.5t-290.5 -117.5q-169 0 -289.5 117.5t-120.5 283.5z" />
<glyph unicode="&#x5d6;" d="M87 656q0 166 120.5 283t289.5 117q170 0 290.5 -117t120.5 -283t-120.5 -283.5t-290.5 -117.5q-169 0 -289.5 117.5t-120.5 283.5z" />
<glyph unicode="&#x5d7;" d="M87 656q0 166 120.5 283t289.5 117q170 0 290.5 -117t120.5 -283t-120.5 -283.5t-290.5 -117.5q-169 0 -289.5 117.5t-120.5 283.5z" />
<glyph unicode="&#x5d8;" d="M87 656q0 166 120.5 283t289.5 117q170 0 290.5 -117t120.5 -283t-120.5 -283.5t-290.5 -117.5q-169 0 -289.5 117.5t-120.5 283.5z" />
<glyph unicode="&#x5d9;" d="M87 656q0 166 120.5 283t289.5 117q170 0 290.5 -117t120.5 -283t-120.5 -283.5t-290.5 -117.5q-169 0 -289.5 117.5t-120.5 283.5z" />
<glyph unicode="&#x5da;" d="M87 656q0 166 120.5 283t289.5 117q170 0 290.5 -117t120.5 -283t-120.5 -283.5t-290.5 -117.5q-169 0 -289.5 117.5t-120.5 283.5z" />
<glyph unicode="&#x5db;" d="M87 656q0 166 120.5 283t289.5 117q170 0 290.5 -117t120.5 -283t-120.5 -283.5t-290.5 -117.5q-169 0 -289.5 117.5t-120.5 283.5z" />
<glyph unicode="&#x5dc;" d="M87 656q0 166 120.5 283t289.5 117q170 0 290.5 -117t120.5 -283t-120.5 -283.5t-290.5 -117.5q-169 0 -289.5 117.5t-120.5 283.5z" />
<glyph unicode="&#x5dd;" d="M87 656q0 166 120.5 283t289.5 117q170 0 290.5 -117t120.5 -283t-120.5 -283.5t-290.5 -117.5q-169 0 -289.5 117.5t-120.5 283.5z" />
<glyph unicode="&#x5de;" d="M87 656q0 166 120.5 283t289.5 117q170 0 290.5 -117t120.5 -283t-120.5 -283.5t-290.5 -117.5q-169 0 -289.5 117.5t-120.5 283.5z" />
<glyph unicode="&#x5df;" d="M87 656q0 166 120.5 283t289.5 117q170 0 290.5 -117t120.5 -283t-120.5 -283.5t-290.5 -117.5q-169 0 -289.5 117.5t-120.5 283.5z" />
<glyph unicode="&#x5e0;" d="M87 656q0 166 120.5 283t289.5 117q170 0 290.5 -117t120.5 -283t-120.5 -283.5t-290.5 -117.5q-169 0 -289.5 117.5t-120.5 283.5z" />
<glyph unicode="&#x5e1;" d="M87 656q0 166 120.5 283t289.5 117q170 0 290.5 -117t120.5 -283t-120.5 -283.5t-290.5 -117.5q-169 0 -289.5 117.5t-120.5 283.5z" />
<glyph unicode="&#x5e2;" d="M87 656q0 166 120.5 283t289.5 117q170 0 290.5 -117t120.5 -283t-120.5 -283.5t-290.5 -117.5q-169 0 -289.5 117.5t-120.5 283.5z" />
<glyph unicode="&#x5e3;" d="M87 656q0 166 120.5 283t289.5 117q170 0 290.5 -117t120.5 -283t-120.5 -283.5t-290.5 -117.5q-169 0 -289.5 117.5t-120.5 283.5z" />
<glyph unicode="&#x5e4;" d="M87 656q0 166 120.5 283t289.5 117q170 0 290.5 -117t120.5 -283t-120.5 -283.5t-290.5 -117.5q-169 0 -289.5 117.5t-120.5 283.5z" />
<glyph unicode="&#x5e5;" d="M87 656q0 166 120.5 283t289.5 117q170 0 290.5 -117t120.5 -283t-120.5 -283.5t-290.5 -117.5q-169 0 -289.5 117.5t-120.5 283.5z" />
<glyph unicode="&#x5e6;" d="M87 656q0 166 120.5 283t289.5 117q170 0 290.5 -117t120.5 -283t-120.5 -283.5t-290.5 -117.5q-169 0 -289.5 117.5t-120.5 283.5z" />
<glyph unicode="&#x5e7;" d="M87 656q0 166 120.5 283t289.5 117q170 0 290.5 -117t120.5 -283t-120.5 -283.5t-290.5 -117.5q-169 0 -289.5 117.5t-120.5 283.5z" />
<glyph unicode="&#x5e8;" d="M87 656q0 166 120.5 283t289.5 117q170 0 290.5 -117t120.5 -283t-120.5 -283.5t-290.5 -117.5q-169 0 -289.5 117.5t-120.5 283.5z" />
<glyph unicode="&#x5e9;" d="M87 656q0 166 120.5 283t289.5 117q170 0 290.5 -117t120.5 -283t-120.5 -283.5t-290.5 -117.5q-169 0 -289.5 117.5t-120.5 283.5z" />
<glyph unicode="&#x5ea;" d="M87 656q0 166 120.5 283t289.5 117q170 0 290.5 -117t120.5 -283t-120.5 -283.5t-290.5 -117.5q-169 0 -289.5 117.5t-120.5 283.5z" />
<glyph unicode="&#x5f0;" d="M87 656q0 166 120.5 283t289.5 117q170 0 290.5 -117t120.5 -283t-120.5 -283.5t-290.5 -117.5q-169 0 -289.5 117.5t-120.5 283.5z" />
<glyph unicode="&#x5f1;" d="M87 656q0 166 120.5 283t289.5 117q170 0 290.5 -117t120.5 -283t-120.5 -283.5t-290.5 -117.5q-169 0 -289.5 117.5t-120.5 283.5z" />
<glyph unicode="&#x5f2;" d="M87 656q0 166 120.5 283t289.5 117q170 0 290.5 -117t120.5 -283t-120.5 -283.5t-290.5 -117.5q-169 0 -289.5 117.5t-120.5 283.5z" />
<glyph unicode="&#x5f3;" d="M87 656q0 166 120.5 283t289.5 117q170 0 290.5 -117t120.5 -283t-120.5 -283.5t-290.5 -117.5q-169 0 -289.5 117.5t-120.5 283.5z" />
<glyph unicode="&#x5f4;" d="M87 656q0 166 120.5 283t289.5 117q170 0 290.5 -117t120.5 -283t-120.5 -283.5t-290.5 -117.5q-169 0 -289.5 117.5t-120.5 283.5z" />
<glyph unicode="&#x60c;" d="M87 656q0 166 120.5 283t289.5 117q170 0 290.5 -117t120.5 -283t-120.5 -283.5t-290.5 -117.5q-169 0 -289.5 117.5t-120.5 283.5z" />
<glyph unicode="&#x61b;" d="M87 656q0 166 120.5 283t289.5 117q170 0 290.5 -117t120.5 -283t-120.5 -283.5t-290.5 -117.5q-169 0 -289.5 117.5t-120.5 283.5z" />
<glyph unicode="&#x61f;" d="M87 656q0 166 120.5 283t289.5 117q170 0 290.5 -117t120.5 -283t-120.5 -283.5t-290.5 -117.5q-169 0 -289.5 117.5t-120.5 283.5z" />
<glyph unicode="&#x621;" d="M87 656q0 166 120.5 283t289.5 117q170 0 290.5 -117t120.5 -283t-120.5 -283.5t-290.5 -117.5q-169 0 -289.5 117.5t-120.5 283.5z" />
<glyph unicode="&#x623;" d="M87 656q0 166 120.5 283t289.5 117q170 0 290.5 -117t120.5 -283t-120.5 -283.5t-290.5 -117.5q-169 0 -289.5 117.5t-120.5 283.5z" />
<glyph unicode="&#x624;" d="M87 656q0 166 120.5 283t289.5 117q170 0 290.5 -117t120.5 -283t-120.5 -283.5t-290.5 -117.5q-169 0 -289.5 117.5t-120.5 283.5z" />
<glyph unicode="&#x625;" d="M87 656q0 166 120.5 283t289.5 117q170 0 290.5 -117t120.5 -283t-120.5 -283.5t-290.5 -117.5q-169 0 -289.5 117.5t-120.5 283.5z" />
<glyph unicode="&#x626;" d="M87 656q0 166 120.5 283t289.5 117q170 0 290.5 -117t120.5 -283t-120.5 -283.5t-290.5 -117.5q-169 0 -289.5 117.5t-120.5 283.5z" />
<glyph unicode="&#x627;" d="M87 656q0 166 120.5 283t289.5 117q170 0 290.5 -117t120.5 -283t-120.5 -283.5t-290.5 -117.5q-169 0 -289.5 117.5t-120.5 283.5z" />
<glyph unicode="&#x628;" d="M87 656q0 166 120.5 283t289.5 117q170 0 290.5 -117t120.5 -283t-120.5 -283.5t-290.5 -117.5q-169 0 -289.5 117.5t-120.5 283.5z" />
<glyph unicode="&#x629;" d="M87 656q0 166 120.5 283t289.5 117q170 0 290.5 -117t120.5 -283t-120.5 -283.5t-290.5 -117.5q-169 0 -289.5 117.5t-120.5 283.5z" />
<glyph unicode="&#x62a;" d="M87 656q0 166 120.5 283t289.5 117q170 0 290.5 -117t120.5 -283t-120.5 -283.5t-290.5 -117.5q-169 0 -289.5 117.5t-120.5 283.5z" />
<glyph unicode="&#x62b;" d="M87 656q0 166 120.5 283t289.5 117q170 0 290.5 -117t120.5 -283t-120.5 -283.5t-290.5 -117.5q-169 0 -289.5 117.5t-120.5 283.5z" />
<glyph unicode="&#x62c;" d="M87 656q0 166 120.5 283t289.5 117q170 0 290.5 -117t120.5 -283t-120.5 -283.5t-290.5 -117.5q-169 0 -289.5 117.5t-120.5 283.5z" />
<glyph unicode="&#x62d;" d="M87 656q0 166 120.5 283t289.5 117q170 0 290.5 -117t120.5 -283t-120.5 -283.5t-290.5 -117.5q-169 0 -289.5 117.5t-120.5 283.5z" />
<glyph unicode="&#x62e;" d="M87 656q0 166 120.5 283t289.5 117q170 0 290.5 -117t120.5 -283t-120.5 -283.5t-290.5 -117.5q-169 0 -289.5 117.5t-120.5 283.5z" />
<glyph unicode="&#x62f;" d="M87 656q0 166 120.5 283t289.5 117q170 0 290.5 -117t120.5 -283t-120.5 -283.5t-290.5 -117.5q-169 0 -289.5 117.5t-120.5 283.5z" />
<glyph unicode="&#x630;" d="M87 656q0 166 120.5 283t289.5 117q170 0 290.5 -117t120.5 -283t-120.5 -283.5t-290.5 -117.5q-169 0 -289.5 117.5t-120.5 283.5z" />
<glyph unicode="&#x631;" d="M87 656q0 166 120.5 283t289.5 117q170 0 290.5 -117t120.5 -283t-120.5 -283.5t-290.5 -117.5q-169 0 -289.5 117.5t-120.5 283.5z" />
<glyph unicode="&#x632;" d="M87 656q0 166 120.5 283t289.5 117q170 0 290.5 -117t120.5 -283t-120.5 -283.5t-290.5 -117.5q-169 0 -289.5 117.5t-120.5 283.5z" />
<glyph unicode="&#x633;" d="M87 656q0 166 120.5 283t289.5 117q170 0 290.5 -117t120.5 -283t-120.5 -283.5t-290.5 -117.5q-169 0 -289.5 117.5t-120.5 283.5z" />
<glyph unicode="&#x634;" d="M87 656q0 166 120.5 283t289.5 117q170 0 290.5 -117t120.5 -283t-120.5 -283.5t-290.5 -117.5q-169 0 -289.5 117.5t-120.5 283.5z" />
<glyph unicode="&#x635;" d="M87 656q0 166 120.5 283t289.5 117q170 0 290.5 -117t120.5 -283t-120.5 -283.5t-290.5 -117.5q-169 0 -289.5 117.5t-120.5 283.5z" />
<glyph unicode="&#x636;" d="M87 656q0 166 120.5 283t289.5 117q170 0 290.5 -117t120.5 -283t-120.5 -283.5t-290.5 -117.5q-169 0 -289.5 117.5t-120.5 283.5z" />
<glyph unicode="&#x637;" d="M87 656q0 166 120.5 283t289.5 117q170 0 290.5 -117t120.5 -283t-120.5 -283.5t-290.5 -117.5q-169 0 -289.5 117.5t-120.5 283.5z" />
<glyph unicode="&#x638;" d="M87 656q0 166 120.5 283t289.5 117q170 0 290.5 -117t120.5 -283t-120.5 -283.5t-290.5 -117.5q-169 0 -289.5 117.5t-120.5 283.5z" />
<glyph unicode="&#x639;" d="M87 656q0 166 120.5 283t289.5 117q170 0 290.5 -117t120.5 -283t-120.5 -283.5t-290.5 -117.5q-169 0 -289.5 117.5t-120.5 283.5z" />
<glyph unicode="&#x63a;" d="M87 656q0 166 120.5 283t289.5 117q170 0 290.5 -117t120.5 -283t-120.5 -283.5t-290.5 -117.5q-169 0 -289.5 117.5t-120.5 283.5z" />
<glyph unicode="&#x640;" d="M87 656q0 166 120.5 283t289.5 117q170 0 290.5 -117t120.5 -283t-120.5 -283.5t-290.5 -117.5q-169 0 -289.5 117.5t-120.5 283.5z" />
<glyph unicode="&#x641;" d="M87 656q0 166 120.5 283t289.5 117q170 0 290.5 -117t120.5 -283t-120.5 -283.5t-290.5 -117.5q-169 0 -289.5 117.5t-120.5 283.5z" />
<glyph unicode="&#x642;" d="M87 656q0 166 120.5 283t289.5 117q170 0 290.5 -117t120.5 -283t-120.5 -283.5t-290.5 -117.5q-169 0 -289.5 117.5t-120.5 283.5z" />
<glyph unicode="&#x643;" d="M87 656q0 166 120.5 283t289.5 117q170 0 290.5 -117t120.5 -283t-120.5 -283.5t-290.5 -117.5q-169 0 -289.5 117.5t-120.5 283.5z" />
<glyph unicode="&#x644;" d="M87 656q0 166 120.5 283t289.5 117q170 0 290.5 -117t120.5 -283t-120.5 -283.5t-290.5 -117.5q-169 0 -289.5 117.5t-120.5 283.5z" />
<glyph unicode="&#x645;" d="M87 656q0 166 120.5 283t289.5 117q170 0 290.5 -117t120.5 -283t-120.5 -283.5t-290.5 -117.5q-169 0 -289.5 117.5t-120.5 283.5z" />
<glyph unicode="&#x646;" d="M87 656q0 166 120.5 283t289.5 117q170 0 290.5 -117t120.5 -283t-120.5 -283.5t-290.5 -117.5q-169 0 -289.5 117.5t-120.5 283.5z" />
<glyph unicode="&#x648;" d="M87 656q0 166 120.5 283t289.5 117q170 0 290.5 -117t120.5 -283t-120.5 -283.5t-290.5 -117.5q-169 0 -289.5 117.5t-120.5 283.5z" />
<glyph unicode="&#x649;" d="M87 656q0 166 120.5 283t289.5 117q170 0 290.5 -117t120.5 -283t-120.5 -283.5t-290.5 -117.5q-169 0 -289.5 117.5t-120.5 283.5z" />
<glyph unicode="&#x64a;" d="M87 656q0 166 120.5 283t289.5 117q170 0 290.5 -117t120.5 -283t-120.5 -283.5t-290.5 -117.5q-169 0 -289.5 117.5t-120.5 283.5z" />
<glyph unicode="&#x64b;" d="M87 656q0 166 120.5 283t289.5 117q170 0 290.5 -117t120.5 -283t-120.5 -283.5t-290.5 -117.5q-169 0 -289.5 117.5t-120.5 283.5z" />
<glyph unicode="&#x64c;" d="M87 656q0 166 120.5 283t289.5 117q170 0 290.5 -117t120.5 -283t-120.5 -283.5t-290.5 -117.5q-169 0 -289.5 117.5t-120.5 283.5z" />
<glyph unicode="&#x64d;" d="M87 656q0 166 120.5 283t289.5 117q170 0 290.5 -117t120.5 -283t-120.5 -283.5t-290.5 -117.5q-169 0 -289.5 117.5t-120.5 283.5z" />
<glyph unicode="&#x64e;" d="M87 656q0 166 120.5 283t289.5 117q170 0 290.5 -117t120.5 -283t-120.5 -283.5t-290.5 -117.5q-169 0 -289.5 117.5t-120.5 283.5z" />
<glyph unicode="&#x64f;" d="M87 656q0 166 120.5 283t289.5 117q170 0 290.5 -117t120.5 -283t-120.5 -283.5t-290.5 -117.5q-169 0 -289.5 117.5t-120.5 283.5z" />
<glyph unicode="&#x650;" d="M87 656q0 166 120.5 283t289.5 117q170 0 290.5 -117t120.5 -283t-120.5 -283.5t-290.5 -117.5q-169 0 -289.5 117.5t-120.5 283.5z" />
<glyph unicode="&#x651;" d="M87 656q0 166 120.5 283t289.5 117q170 0 290.5 -117t120.5 -283t-120.5 -283.5t-290.5 -117.5q-169 0 -289.5 117.5t-120.5 283.5z" />
<glyph unicode="&#x652;" d="M87 656q0 166 120.5 283t289.5 117q170 0 290.5 -117t120.5 -283t-120.5 -283.5t-290.5 -117.5q-169 0 -289.5 117.5t-120.5 283.5z" />
<glyph unicode="&#x653;" d="M87 656q0 166 120.5 283t289.5 117q170 0 290.5 -117t120.5 -283t-120.5 -283.5t-290.5 -117.5q-169 0 -289.5 117.5t-120.5 283.5z" />
<glyph unicode="&#x654;" d="M87 656q0 166 120.5 283t289.5 117q170 0 290.5 -117t120.5 -283t-120.5 -283.5t-290.5 -117.5q-169 0 -289.5 117.5t-120.5 283.5z" />
<glyph unicode="&#x655;" d="M87 656q0 166 120.5 283t289.5 117q170 0 290.5 -117t120.5 -283t-120.5 -283.5t-290.5 -117.5q-169 0 -289.5 117.5t-120.5 283.5z" />
<glyph unicode="&#x660;" d="M87 656q0 166 120.5 283t289.5 117q170 0 290.5 -117t120.5 -283t-120.5 -283.5t-290.5 -117.5q-169 0 -289.5 117.5t-120.5 283.5z" />
<glyph unicode="&#x661;" d="M87 656q0 166 120.5 283t289.5 117q170 0 290.5 -117t120.5 -283t-120.5 -283.5t-290.5 -117.5q-169 0 -289.5 117.5t-120.5 283.5z" />
<glyph unicode="&#x662;" d="M87 656q0 166 120.5 283t289.5 117q170 0 290.5 -117t120.5 -283t-120.5 -283.5t-290.5 -117.5q-169 0 -289.5 117.5t-120.5 283.5z" />
<glyph unicode="&#x663;" d="M87 656q0 166 120.5 283t289.5 117q170 0 290.5 -117t120.5 -283t-120.5 -283.5t-290.5 -117.5q-169 0 -289.5 117.5t-120.5 283.5z" />
<glyph unicode="&#x664;" d="M87 656q0 166 120.5 283t289.5 117q170 0 290.5 -117t120.5 -283t-120.5 -283.5t-290.5 -117.5q-169 0 -289.5 117.5t-120.5 283.5z" />
<glyph unicode="&#x665;" d="M87 656q0 166 120.5 283t289.5 117q170 0 290.5 -117t120.5 -283t-120.5 -283.5t-290.5 -117.5q-169 0 -289.5 117.5t-120.5 283.5z" />
<glyph unicode="&#x666;" d="M87 656q0 166 120.5 283t289.5 117q170 0 290.5 -117t120.5 -283t-120.5 -283.5t-290.5 -117.5q-169 0 -289.5 117.5t-120.5 283.5z" />
<glyph unicode="&#x667;" d="M87 656q0 166 120.5 283t289.5 117q170 0 290.5 -117t120.5 -283t-120.5 -283.5t-290.5 -117.5q-169 0 -289.5 117.5t-120.5 283.5z" />
<glyph unicode="&#x668;" d="M87 656q0 166 120.5 283t289.5 117q170 0 290.5 -117t120.5 -283t-120.5 -283.5t-290.5 -117.5q-169 0 -289.5 117.5t-120.5 283.5z" />
<glyph unicode="&#x669;" d="M87 656q0 166 120.5 283t289.5 117q170 0 290.5 -117t120.5 -283t-120.5 -283.5t-290.5 -117.5q-169 0 -289.5 117.5t-120.5 283.5z" />
<glyph unicode="&#x66a;" d="M87 656q0 166 120.5 283t289.5 117q170 0 290.5 -117t120.5 -283t-120.5 -283.5t-290.5 -117.5q-169 0 -289.5 117.5t-120.5 283.5z" />
<glyph unicode="&#x66b;" d="M87 656q0 166 120.5 283t289.5 117q170 0 290.5 -117t120.5 -283t-120.5 -283.5t-290.5 -117.5q-169 0 -289.5 117.5t-120.5 283.5z" />
<glyph unicode="&#x66d;" d="M87 656q0 166 120.5 283t289.5 117q170 0 290.5 -117t120.5 -283t-120.5 -283.5t-290.5 -117.5q-169 0 -289.5 117.5t-120.5 283.5z" />
<glyph unicode="&#x66e;" d="M87 656q0 166 120.5 283t289.5 117q170 0 290.5 -117t120.5 -283t-120.5 -283.5t-290.5 -117.5q-169 0 -289.5 117.5t-120.5 283.5z" />
<glyph unicode="&#x66f;" d="M87 656q0 166 120.5 283t289.5 117q170 0 290.5 -117t120.5 -283t-120.5 -283.5t-290.5 -117.5q-169 0 -289.5 117.5t-120.5 283.5z" />
<glyph unicode="&#x670;" d="M87 656q0 166 120.5 283t289.5 117q170 0 290.5 -117t120.5 -283t-120.5 -283.5t-290.5 -117.5q-169 0 -289.5 117.5t-120.5 283.5z" />
<glyph unicode="&#x671;" d="M87 656q0 166 120.5 283t289.5 117q170 0 290.5 -117t120.5 -283t-120.5 -283.5t-290.5 -117.5q-169 0 -289.5 117.5t-120.5 283.5z" />
<glyph unicode="&#x672;" d="M87 656q0 166 120.5 283t289.5 117q170 0 290.5 -117t120.5 -283t-120.5 -283.5t-290.5 -117.5q-169 0 -289.5 117.5t-120.5 283.5z" />
<glyph unicode="&#x673;" d="M87 656q0 166 120.5 283t289.5 117q170 0 290.5 -117t120.5 -283t-120.5 -283.5t-290.5 -117.5q-169 0 -289.5 117.5t-120.5 283.5z" />
<glyph unicode="&#x675;" d="M87 656q0 166 120.5 283t289.5 117q170 0 290.5 -117t120.5 -283t-120.5 -283.5t-290.5 -117.5q-169 0 -289.5 117.5t-120.5 283.5z" />
<glyph unicode="&#x676;" d="M87 656q0 166 120.5 283t289.5 117q170 0 290.5 -117t120.5 -283t-120.5 -283.5t-290.5 -117.5q-169 0 -289.5 117.5t-120.5 283.5z" />
<glyph unicode="&#x677;" d="M87 656q0 166 120.5 283t289.5 117q170 0 290.5 -117t120.5 -283t-120.5 -283.5t-290.5 -117.5q-169 0 -289.5 117.5t-120.5 283.5z" />
<glyph unicode="&#x678;" d="M87 656q0 166 120.5 283t289.5 117q170 0 290.5 -117t120.5 -283t-120.5 -283.5t-290.5 -117.5q-169 0 -289.5 117.5t-120.5 283.5z" />
<glyph unicode="&#x679;" d="M87 656q0 166 120.5 283t289.5 117q170 0 290.5 -117t120.5 -283t-120.5 -283.5t-290.5 -117.5q-169 0 -289.5 117.5t-120.5 283.5z" />
<glyph unicode="&#x67a;" d="M87 656q0 166 120.5 283t289.5 117q170 0 290.5 -117t120.5 -283t-120.5 -283.5t-290.5 -117.5q-169 0 -289.5 117.5t-120.5 283.5z" />
<glyph unicode="&#x67b;" d="M87 656q0 166 120.5 283t289.5 117q170 0 290.5 -117t120.5 -283t-120.5 -283.5t-290.5 -117.5q-169 0 -289.5 117.5t-120.5 283.5z" />
<glyph unicode="&#x67c;" d="M87 656q0 166 120.5 283t289.5 117q170 0 290.5 -117t120.5 -283t-120.5 -283.5t-290.5 -117.5q-169 0 -289.5 117.5t-120.5 283.5z" />
<glyph unicode="&#x67d;" d="M87 656q0 166 120.5 283t289.5 117q170 0 290.5 -117t120.5 -283t-120.5 -283.5t-290.5 -117.5q-169 0 -289.5 117.5t-120.5 283.5z" />
<glyph unicode="&#x67e;" d="M87 656q0 166 120.5 283t289.5 117q170 0 290.5 -117t120.5 -283t-120.5 -283.5t-290.5 -117.5q-169 0 -289.5 117.5t-120.5 283.5z" />
<glyph unicode="&#x67f;" d="M87 656q0 166 120.5 283t289.5 117q170 0 290.5 -117t120.5 -283t-120.5 -283.5t-290.5 -117.5q-169 0 -289.5 117.5t-120.5 283.5z" />
<glyph unicode="&#x680;" d="M87 656q0 166 120.5 283t289.5 117q170 0 290.5 -117t120.5 -283t-120.5 -283.5t-290.5 -117.5q-169 0 -289.5 117.5t-120.5 283.5z" />
<glyph unicode="&#x681;" d="M87 656q0 166 120.5 283t289.5 117q170 0 290.5 -117t120.5 -283t-120.5 -283.5t-290.5 -117.5q-169 0 -289.5 117.5t-120.5 283.5z" />
<glyph unicode="&#x682;" d="M87 656q0 166 120.5 283t289.5 117q170 0 290.5 -117t120.5 -283t-120.5 -283.5t-290.5 -117.5q-169 0 -289.5 117.5t-120.5 283.5z" />
<glyph unicode="&#x683;" d="M87 656q0 166 120.5 283t289.5 117q170 0 290.5 -117t120.5 -283t-120.5 -283.5t-290.5 -117.5q-169 0 -289.5 117.5t-120.5 283.5z" />
<glyph unicode="&#x684;" d="M87 656q0 166 120.5 283t289.5 117q170 0 290.5 -117t120.5 -283t-120.5 -283.5t-290.5 -117.5q-169 0 -289.5 117.5t-120.5 283.5z" />
<glyph unicode="&#x685;" d="M87 656q0 166 120.5 283t289.5 117q170 0 290.5 -117t120.5 -283t-120.5 -283.5t-290.5 -117.5q-169 0 -289.5 117.5t-120.5 283.5z" />
<glyph unicode="&#x686;" d="M87 656q0 166 120.5 283t289.5 117q170 0 290.5 -117t120.5 -283t-120.5 -283.5t-290.5 -117.5q-169 0 -289.5 117.5t-120.5 283.5z" />
<glyph unicode="&#x687;" d="M87 656q0 166 120.5 283t289.5 117q170 0 290.5 -117t120.5 -283t-120.5 -283.5t-290.5 -117.5q-169 0 -289.5 117.5t-120.5 283.5z" />
<glyph unicode="&#x688;" d="M87 656q0 166 120.5 283t289.5 117q170 0 290.5 -117t120.5 -283t-120.5 -283.5t-290.5 -117.5q-169 0 -289.5 117.5t-120.5 283.5z" />
<glyph unicode="&#x689;" d="M87 656q0 166 120.5 283t289.5 117q170 0 290.5 -117t120.5 -283t-120.5 -283.5t-290.5 -117.5q-169 0 -289.5 117.5t-120.5 283.5z" />
<glyph unicode="&#x68a;" d="M87 656q0 166 120.5 283t289.5 117q170 0 290.5 -117t120.5 -283t-120.5 -283.5t-290.5 -117.5q-169 0 -289.5 117.5t-120.5 283.5z" />
<glyph unicode="&#x68b;" d="M87 656q0 166 120.5 283t289.5 117q170 0 290.5 -117t120.5 -283t-120.5 -283.5t-290.5 -117.5q-169 0 -289.5 117.5t-120.5 283.5z" />
<glyph unicode="&#x68c;" d="M87 656q0 166 120.5 283t289.5 117q170 0 290.5 -117t120.5 -283t-120.5 -283.5t-290.5 -117.5q-169 0 -289.5 117.5t-120.5 283.5z" />
<glyph unicode="&#x68d;" d="M87 656q0 166 120.5 283t289.5 117q170 0 290.5 -117t120.5 -283t-120.5 -283.5t-290.5 -117.5q-169 0 -289.5 117.5t-120.5 283.5z" />
<glyph unicode="&#x68e;" d="M87 656q0 166 120.5 283t289.5 117q170 0 290.5 -117t120.5 -283t-120.5 -283.5t-290.5 -117.5q-169 0 -289.5 117.5t-120.5 283.5z" />
<glyph unicode="&#x68f;" d="M87 656q0 166 120.5 283t289.5 117q170 0 290.5 -117t120.5 -283t-120.5 -283.5t-290.5 -117.5q-169 0 -289.5 117.5t-120.5 283.5z" />
<glyph unicode="&#x690;" d="M87 656q0 166 120.5 283t289.5 117q170 0 290.5 -117t120.5 -283t-120.5 -283.5t-290.5 -117.5q-169 0 -289.5 117.5t-120.5 283.5z" />
<glyph unicode="&#x691;" d="M87 656q0 166 120.5 283t289.5 117q170 0 290.5 -117t120.5 -283t-120.5 -283.5t-290.5 -117.5q-169 0 -289.5 117.5t-120.5 283.5z" />
<glyph unicode="&#x692;" d="M87 656q0 166 120.5 283t289.5 117q170 0 290.5 -117t120.5 -283t-120.5 -283.5t-290.5 -117.5q-169 0 -289.5 117.5t-120.5 283.5z" />
<glyph unicode="&#x693;" d="M87 656q0 166 120.5 283t289.5 117q170 0 290.5 -117t120.5 -283t-120.5 -283.5t-290.5 -117.5q-169 0 -289.5 117.5t-120.5 283.5z" />
<glyph unicode="&#x694;" d="M87 656q0 166 120.5 283t289.5 117q170 0 290.5 -117t120.5 -283t-120.5 -283.5t-290.5 -117.5q-169 0 -289.5 117.5t-120.5 283.5z" />
<glyph unicode="&#x695;" d="M87 656q0 166 120.5 283t289.5 117q170 0 290.5 -117t120.5 -283t-120.5 -283.5t-290.5 -117.5q-169 0 -289.5 117.5t-120.5 283.5z" />
<glyph unicode="&#x696;" d="M87 656q0 166 120.5 283t289.5 117q170 0 290.5 -117t120.5 -283t-120.5 -283.5t-290.5 -117.5q-169 0 -289.5 117.5t-120.5 283.5z" />
<glyph unicode="&#x697;" d="M87 656q0 166 120.5 283t289.5 117q170 0 290.5 -117t120.5 -283t-120.5 -283.5t-290.5 -117.5q-169 0 -289.5 117.5t-120.5 283.5z" />
<glyph unicode="&#x698;" d="M87 656q0 166 120.5 283t289.5 117q170 0 290.5 -117t120.5 -283t-120.5 -283.5t-290.5 -117.5q-169 0 -289.5 117.5t-120.5 283.5z" />
<glyph unicode="&#x699;" d="M87 656q0 166 120.5 283t289.5 117q170 0 290.5 -117t120.5 -283t-120.5 -283.5t-290.5 -117.5q-169 0 -289.5 117.5t-120.5 283.5z" />
<glyph unicode="&#x69a;" d="M87 656q0 166 120.5 283t289.5 117q170 0 290.5 -117t120.5 -283t-120.5 -283.5t-290.5 -117.5q-169 0 -289.5 117.5t-120.5 283.5z" />
<glyph unicode="&#x69b;" d="M87 656q0 166 120.5 283t289.5 117q170 0 290.5 -117t120.5 -283t-120.5 -283.5t-290.5 -117.5q-169 0 -289.5 117.5t-120.5 283.5z" />
<glyph unicode="&#x69c;" d="M87 656q0 166 120.5 283t289.5 117q170 0 290.5 -117t120.5 -283t-120.5 -283.5t-290.5 -117.5q-169 0 -289.5 117.5t-120.5 283.5z" />
<glyph unicode="&#x69d;" d="M87 656q0 166 120.5 283t289.5 117q170 0 290.5 -117t120.5 -283t-120.5 -283.5t-290.5 -117.5q-169 0 -289.5 117.5t-120.5 283.5z" />
<glyph unicode="&#x69e;" d="M87 656q0 166 120.5 283t289.5 117q170 0 290.5 -117t120.5 -283t-120.5 -283.5t-290.5 -117.5q-169 0 -289.5 117.5t-120.5 283.5z" />
<glyph unicode="&#x69f;" d="M87 656q0 166 120.5 283t289.5 117q170 0 290.5 -117t120.5 -283t-120.5 -283.5t-290.5 -117.5q-169 0 -289.5 117.5t-120.5 283.5z" />
<glyph unicode="&#x6a0;" d="M87 656q0 166 120.5 283t289.5 117q170 0 290.5 -117t120.5 -283t-120.5 -283.5t-290.5 -117.5q-169 0 -289.5 117.5t-120.5 283.5z" />
<glyph unicode="&#x6a1;" d="M87 656q0 166 120.5 283t289.5 117q170 0 290.5 -117t120.5 -283t-120.5 -283.5t-290.5 -117.5q-169 0 -289.5 117.5t-120.5 283.5z" />
<glyph unicode="&#x6a2;" d="M87 656q0 166 120.5 283t289.5 117q170 0 290.5 -117t120.5 -283t-120.5 -283.5t-290.5 -117.5q-169 0 -289.5 117.5t-120.5 283.5z" />
<glyph unicode="&#x6a3;" d="M87 656q0 166 120.5 283t289.5 117q170 0 290.5 -117t120.5 -283t-120.5 -283.5t-290.5 -117.5q-169 0 -289.5 117.5t-120.5 283.5z" />
<glyph unicode="&#x6a4;" d="M87 656q0 166 120.5 283t289.5 117q170 0 290.5 -117t120.5 -283t-120.5 -283.5t-290.5 -117.5q-169 0 -289.5 117.5t-120.5 283.5z" />
<glyph unicode="&#x6a5;" d="M87 656q0 166 120.5 283t289.5 117q170 0 290.5 -117t120.5 -283t-120.5 -283.5t-290.5 -117.5q-169 0 -289.5 117.5t-120.5 283.5z" />
<glyph unicode="&#x6a6;" d="M87 656q0 166 120.5 283t289.5 117q170 0 290.5 -117t120.5 -283t-120.5 -283.5t-290.5 -117.5q-169 0 -289.5 117.5t-120.5 283.5z" />
<glyph unicode="&#x6a7;" d="M87 656q0 166 120.5 283t289.5 117q170 0 290.5 -117t120.5 -283t-120.5 -283.5t-290.5 -117.5q-169 0 -289.5 117.5t-120.5 283.5z" />
<glyph unicode="&#x6a8;" d="M87 656q0 166 120.5 283t289.5 117q170 0 290.5 -117t120.5 -283t-120.5 -283.5t-290.5 -117.5q-169 0 -289.5 117.5t-120.5 283.5z" />
<glyph unicode="&#x6aa;" d="M87 656q0 166 120.5 283t289.5 117q170 0 290.5 -117t120.5 -283t-120.5 -283.5t-290.5 -117.5q-169 0 -289.5 117.5t-120.5 283.5z" />
<glyph unicode="&#x6ab;" d="M87 656q0 166 120.5 283t289.5 117q170 0 290.5 -117t120.5 -283t-120.5 -283.5t-290.5 -117.5q-169 0 -289.5 117.5t-120.5 283.5z" />
<glyph unicode="&#x6ac;" d="M87 656q0 166 120.5 283t289.5 117q170 0 290.5 -117t120.5 -283t-120.5 -283.5t-290.5 -117.5q-169 0 -289.5 117.5t-120.5 283.5z" />
<glyph unicode="&#x6ad;" d="M87 656q0 166 120.5 283t289.5 117q170 0 290.5 -117t120.5 -283t-120.5 -283.5t-290.5 -117.5q-169 0 -289.5 117.5t-120.5 283.5z" />
<glyph unicode="&#x6ae;" d="M87 656q0 166 120.5 283t289.5 117q170 0 290.5 -117t120.5 -283t-120.5 -283.5t-290.5 -117.5q-169 0 -289.5 117.5t-120.5 283.5z" />
<glyph unicode="&#x6af;" d="M87 656q0 166 120.5 283t289.5 117q170 0 290.5 -117t120.5 -283t-120.5 -283.5t-290.5 -117.5q-169 0 -289.5 117.5t-120.5 283.5z" />
<glyph unicode="&#x6b0;" d="M87 656q0 166 120.5 283t289.5 117q170 0 290.5 -117t120.5 -283t-120.5 -283.5t-290.5 -117.5q-169 0 -289.5 117.5t-120.5 283.5z" />
<glyph unicode="&#x6b1;" d="M87 656q0 166 120.5 283t289.5 117q170 0 290.5 -117t120.5 -283t-120.5 -283.5t-290.5 -117.5q-169 0 -289.5 117.5t-120.5 283.5z" />
<glyph unicode="&#x6b2;" d="M87 656q0 166 120.5 283t289.5 117q170 0 290.5 -117t120.5 -283t-120.5 -283.5t-290.5 -117.5q-169 0 -289.5 117.5t-120.5 283.5z" />
<glyph unicode="&#x6b3;" d="M87 656q0 166 120.5 283t289.5 117q170 0 290.5 -117t120.5 -283t-120.5 -283.5t-290.5 -117.5q-169 0 -289.5 117.5t-120.5 283.5z" />
<glyph unicode="&#x6b4;" d="M87 656q0 166 120.5 283t289.5 117q170 0 290.5 -117t120.5 -283t-120.5 -283.5t-290.5 -117.5q-169 0 -289.5 117.5t-120.5 283.5z" />
<glyph unicode="&#x6b5;" d="M87 656q0 166 120.5 283t289.5 117q170 0 290.5 -117t120.5 -283t-120.5 -283.5t-290.5 -117.5q-169 0 -289.5 117.5t-120.5 283.5z" />
<glyph unicode="&#x6b6;" d="M87 656q0 166 120.5 283t289.5 117q170 0 290.5 -117t120.5 -283t-120.5 -283.5t-290.5 -117.5q-169 0 -289.5 117.5t-120.5 283.5z" />
<glyph unicode="&#x6b7;" d="M87 656q0 166 120.5 283t289.5 117q170 0 290.5 -117t120.5 -283t-120.5 -283.5t-290.5 -117.5q-169 0 -289.5 117.5t-120.5 283.5z" />
<glyph unicode="&#x6b8;" d="M87 656q0 166 120.5 283t289.5 117q170 0 290.5 -117t120.5 -283t-120.5 -283.5t-290.5 -117.5q-169 0 -289.5 117.5t-120.5 283.5z" />
<glyph unicode="&#x6b9;" d="M87 656q0 166 120.5 283t289.5 117q170 0 290.5 -117t120.5 -283t-120.5 -283.5t-290.5 -117.5q-169 0 -289.5 117.5t-120.5 283.5z" />
<glyph unicode="&#x6ba;" d="M87 656q0 166 120.5 283t289.5 117q170 0 290.5 -117t120.5 -283t-120.5 -283.5t-290.5 -117.5q-169 0 -289.5 117.5t-120.5 283.5z" />
<glyph unicode="&#x6bb;" d="M87 656q0 166 120.5 283t289.5 117q170 0 290.5 -117t120.5 -283t-120.5 -283.5t-290.5 -117.5q-169 0 -289.5 117.5t-120.5 283.5z" />
<glyph unicode="&#x6bc;" d="M87 656q0 166 120.5 283t289.5 117q170 0 290.5 -117t120.5 -283t-120.5 -283.5t-290.5 -117.5q-169 0 -289.5 117.5t-120.5 283.5z" />
<glyph unicode="&#x6bd;" d="M87 656q0 166 120.5 283t289.5 117q170 0 290.5 -117t120.5 -283t-120.5 -283.5t-290.5 -117.5q-169 0 -289.5 117.5t-120.5 283.5z" />
<glyph unicode="&#x6bf;" d="M87 656q0 166 120.5 283t289.5 117q170 0 290.5 -117t120.5 -283t-120.5 -283.5t-290.5 -117.5q-169 0 -289.5 117.5t-120.5 283.5z" />
<glyph unicode="&#x6c0;" d="M87 656q0 166 120.5 283t289.5 117q170 0 290.5 -117t120.5 -283t-120.5 -283.5t-290.5 -117.5q-169 0 -289.5 117.5t-120.5 283.5z" />
<glyph unicode="&#x6c1;" d="M87 656q0 166 120.5 283t289.5 117q170 0 290.5 -117t120.5 -283t-120.5 -283.5t-290.5 -117.5q-169 0 -289.5 117.5t-120.5 283.5z" />
<glyph unicode="&#x6c2;" d="M87 656q0 166 120.5 283t289.5 117q170 0 290.5 -117t120.5 -283t-120.5 -283.5t-290.5 -117.5q-169 0 -289.5 117.5t-120.5 283.5z" />
<glyph unicode="&#x6c3;" d="M87 656q0 166 120.5 283t289.5 117q170 0 290.5 -117t120.5 -283t-120.5 -283.5t-290.5 -117.5q-169 0 -289.5 117.5t-120.5 283.5z" />
<glyph unicode="&#x6c4;" d="M87 656q0 166 120.5 283t289.5 117q170 0 290.5 -117t120.5 -283t-120.5 -283.5t-290.5 -117.5q-169 0 -289.5 117.5t-120.5 283.5z" />
<glyph unicode="&#x6c5;" d="M87 656q0 166 120.5 283t289.5 117q170 0 290.5 -117t120.5 -283t-120.5 -283.5t-290.5 -117.5q-169 0 -289.5 117.5t-120.5 283.5z" />
<glyph unicode="&#x6c6;" d="M87 656q0 166 120.5 283t289.5 117q170 0 290.5 -117t120.5 -283t-120.5 -283.5t-290.5 -117.5q-169 0 -289.5 117.5t-120.5 283.5z" />
<glyph unicode="&#x6c7;" d="M87 656q0 166 120.5 283t289.5 117q170 0 290.5 -117t120.5 -283t-120.5 -283.5t-290.5 -117.5q-169 0 -289.5 117.5t-120.5 283.5z" />
<glyph unicode="&#x6c8;" d="M87 656q0 166 120.5 283t289.5 117q170 0 290.5 -117t120.5 -283t-120.5 -283.5t-290.5 -117.5q-169 0 -289.5 117.5t-120.5 283.5z" />
<glyph unicode="&#x6c9;" d="M87 656q0 166 120.5 283t289.5 117q170 0 290.5 -117t120.5 -283t-120.5 -283.5t-290.5 -117.5q-169 0 -289.5 117.5t-120.5 283.5z" />
<glyph unicode="&#x6ca;" d="M87 656q0 166 120.5 283t289.5 117q170 0 290.5 -117t120.5 -283t-120.5 -283.5t-290.5 -117.5q-169 0 -289.5 117.5t-120.5 283.5z" />
<glyph unicode="&#x6cb;" d="M87 656q0 166 120.5 283t289.5 117q170 0 290.5 -117t120.5 -283t-120.5 -283.5t-290.5 -117.5q-169 0 -289.5 117.5t-120.5 283.5z" />
<glyph unicode="&#x6cd;" d="M87 656q0 166 120.5 283t289.5 117q170 0 290.5 -117t120.5 -283t-120.5 -283.5t-290.5 -117.5q-169 0 -289.5 117.5t-120.5 283.5z" />
<glyph unicode="&#x6ce;" d="M87 656q0 166 120.5 283t289.5 117q170 0 290.5 -117t120.5 -283t-120.5 -283.5t-290.5 -117.5q-169 0 -289.5 117.5t-120.5 283.5z" />
<glyph unicode="&#x6cf;" d="M87 656q0 166 120.5 283t289.5 117q170 0 290.5 -117t120.5 -283t-120.5 -283.5t-290.5 -117.5q-169 0 -289.5 117.5t-120.5 283.5z" />
<glyph unicode="&#x6d0;" d="M87 656q0 166 120.5 283t289.5 117q170 0 290.5 -117t120.5 -283t-120.5 -283.5t-290.5 -117.5q-169 0 -289.5 117.5t-120.5 283.5z" />
<glyph unicode="&#x6d1;" d="M87 656q0 166 120.5 283t289.5 117q170 0 290.5 -117t120.5 -283t-120.5 -283.5t-290.5 -117.5q-169 0 -289.5 117.5t-120.5 283.5z" />
<glyph unicode="&#x6d2;" d="M87 656q0 166 120.5 283t289.5 117q170 0 290.5 -117t120.5 -283t-120.5 -283.5t-290.5 -117.5q-169 0 -289.5 117.5t-120.5 283.5z" />
<glyph unicode="&#x6d3;" d="M87 656q0 166 120.5 283t289.5 117q170 0 290.5 -117t120.5 -283t-120.5 -283.5t-290.5 -117.5q-169 0 -289.5 117.5t-120.5 283.5z" />
<glyph unicode="&#x6d4;" d="M87 656q0 166 120.5 283t289.5 117q170 0 290.5 -117t120.5 -283t-120.5 -283.5t-290.5 -117.5q-169 0 -289.5 117.5t-120.5 283.5z" />
<glyph unicode="&#x6d5;" d="M87 656q0 166 120.5 283t289.5 117q170 0 290.5 -117t120.5 -283t-120.5 -283.5t-290.5 -117.5q-169 0 -289.5 117.5t-120.5 283.5z" />
<glyph unicode="&#x6d6;" d="M87 656q0 166 120.5 283t289.5 117q170 0 290.5 -117t120.5 -283t-120.5 -283.5t-290.5 -117.5q-169 0 -289.5 117.5t-120.5 283.5z" />
<glyph unicode="&#x6d7;" d="M87 656q0 166 120.5 283t289.5 117q170 0 290.5 -117t120.5 -283t-120.5 -283.5t-290.5 -117.5q-169 0 -289.5 117.5t-120.5 283.5z" />
<glyph unicode="&#x6d8;" d="M87 656q0 166 120.5 283t289.5 117q170 0 290.5 -117t120.5 -283t-120.5 -283.5t-290.5 -117.5q-169 0 -289.5 117.5t-120.5 283.5z" />
<glyph unicode="&#x6d9;" d="M87 656q0 166 120.5 283t289.5 117q170 0 290.5 -117t120.5 -283t-120.5 -283.5t-290.5 -117.5q-169 0 -289.5 117.5t-120.5 283.5z" />
<glyph unicode="&#x6da;" d="M87 656q0 166 120.5 283t289.5 117q170 0 290.5 -117t120.5 -283t-120.5 -283.5t-290.5 -117.5q-169 0 -289.5 117.5t-120.5 283.5z" />
<glyph unicode="&#x6db;" d="M87 656q0 166 120.5 283t289.5 117q170 0 290.5 -117t120.5 -283t-120.5 -283.5t-290.5 -117.5q-169 0 -289.5 117.5t-120.5 283.5z" />
<glyph unicode="&#x6dc;" d="M87 656q0 166 120.5 283t289.5 117q170 0 290.5 -117t120.5 -283t-120.5 -283.5t-290.5 -117.5q-169 0 -289.5 117.5t-120.5 283.5z" />
<glyph unicode="&#x6dd;" d="M87 656q0 166 120.5 283t289.5 117q170 0 290.5 -117t120.5 -283t-120.5 -283.5t-290.5 -117.5q-169 0 -289.5 117.5t-120.5 283.5z" />
<glyph unicode="&#x6de;" d="M87 656q0 166 120.5 283t289.5 117q170 0 290.5 -117t120.5 -283t-120.5 -283.5t-290.5 -117.5q-169 0 -289.5 117.5t-120.5 283.5z" />
<glyph unicode="&#x6df;" d="M87 656q0 166 120.5 283t289.5 117q170 0 290.5 -117t120.5 -283t-120.5 -283.5t-290.5 -117.5q-169 0 -289.5 117.5t-120.5 283.5z" />
<glyph unicode="&#x6e0;" d="M87 656q0 166 120.5 283t289.5 117q170 0 290.5 -117t120.5 -283t-120.5 -283.5t-290.5 -117.5q-169 0 -289.5 117.5t-120.5 283.5z" />
<glyph unicode="&#x6e1;" d="M87 656q0 166 120.5 283t289.5 117q170 0 290.5 -117t120.5 -283t-120.5 -283.5t-290.5 -117.5q-169 0 -289.5 117.5t-120.5 283.5z" />
<glyph unicode="&#x6e2;" d="M87 656q0 166 120.5 283t289.5 117q170 0 290.5 -117t120.5 -283t-120.5 -283.5t-290.5 -117.5q-169 0 -289.5 117.5t-120.5 283.5z" />
<glyph unicode="&#x6e3;" d="M87 656q0 166 120.5 283t289.5 117q170 0 290.5 -117t120.5 -283t-120.5 -283.5t-290.5 -117.5q-169 0 -289.5 117.5t-120.5 283.5z" />
<glyph unicode="&#x6e4;" d="M87 656q0 166 120.5 283t289.5 117q170 0 290.5 -117t120.5 -283t-120.5 -283.5t-290.5 -117.5q-169 0 -289.5 117.5t-120.5 283.5z" />
<glyph unicode="&#x6e5;" d="M87 656q0 166 120.5 283t289.5 117q170 0 290.5 -117t120.5 -283t-120.5 -283.5t-290.5 -117.5q-169 0 -289.5 117.5t-120.5 283.5z" />
<glyph unicode="&#x6e6;" d="M87 656q0 166 120.5 283t289.5 117q170 0 290.5 -117t120.5 -283t-120.5 -283.5t-290.5 -117.5q-169 0 -289.5 117.5t-120.5 283.5z" />
<glyph unicode="&#x6e7;" d="M87 656q0 166 120.5 283t289.5 117q170 0 290.5 -117t120.5 -283t-120.5 -283.5t-290.5 -117.5q-169 0 -289.5 117.5t-120.5 283.5z" />
<glyph unicode="&#x6e8;" d="M87 656q0 166 120.5 283t289.5 117q170 0 290.5 -117t120.5 -283t-120.5 -283.5t-290.5 -117.5q-169 0 -289.5 117.5t-120.5 283.5z" />
<glyph unicode="&#x6e9;" d="M87 656q0 166 120.5 283t289.5 117q170 0 290.5 -117t120.5 -283t-120.5 -283.5t-290.5 -117.5q-169 0 -289.5 117.5t-120.5 283.5z" />
<glyph unicode="&#x6ea;" d="M87 656q0 166 120.5 283t289.5 117q170 0 290.5 -117t120.5 -283t-120.5 -283.5t-290.5 -117.5q-169 0 -289.5 117.5t-120.5 283.5z" />
<glyph unicode="&#x6eb;" d="M87 656q0 166 120.5 283t289.5 117q170 0 290.5 -117t120.5 -283t-120.5 -283.5t-290.5 -117.5q-169 0 -289.5 117.5t-120.5 283.5z" />
<glyph unicode="&#x6ed;" d="M87 656q0 166 120.5 283t289.5 117q170 0 290.5 -117t120.5 -283t-120.5 -283.5t-290.5 -117.5q-169 0 -289.5 117.5t-120.5 283.5z" />
<glyph unicode="&#x6f4;" d="M87 656q0 166 120.5 283t289.5 117q170 0 290.5 -117t120.5 -283t-120.5 -283.5t-290.5 -117.5q-169 0 -289.5 117.5t-120.5 283.5z" />
<glyph unicode="&#x6f5;" d="M87 656q0 166 120.5 283t289.5 117q170 0 290.5 -117t120.5 -283t-120.5 -283.5t-290.5 -117.5q-169 0 -289.5 117.5t-120.5 283.5z" />
<glyph unicode="&#x6f6;" d="M87 656q0 166 120.5 283t289.5 117q170 0 290.5 -117t120.5 -283t-120.5 -283.5t-290.5 -117.5q-169 0 -289.5 117.5t-120.5 283.5z" />
<glyph unicode="&#x6fa;" d="M87 656q0 166 120.5 283t289.5 117q170 0 290.5 -117t120.5 -283t-120.5 -283.5t-290.5 -117.5q-169 0 -289.5 117.5t-120.5 283.5z" />
<glyph unicode="&#x6fb;" d="M87 656q0 166 120.5 283t289.5 117q170 0 290.5 -117t120.5 -283t-120.5 -283.5t-290.5 -117.5q-169 0 -289.5 117.5t-120.5 283.5z" />
<glyph unicode="&#x6fc;" d="M87 656q0 166 120.5 283t289.5 117q170 0 290.5 -117t120.5 -283t-120.5 -283.5t-290.5 -117.5q-169 0 -289.5 117.5t-120.5 283.5z" />
<glyph unicode="&#x6fd;" d="M87 656q0 166 120.5 283t289.5 117q170 0 290.5 -117t120.5 -283t-120.5 -283.5t-290.5 -117.5q-169 0 -289.5 117.5t-120.5 283.5z" />
<glyph unicode="&#x6fe;" d="M87 656q0 166 120.5 283t289.5 117q170 0 290.5 -117t120.5 -283t-120.5 -283.5t-290.5 -117.5q-169 0 -289.5 117.5t-120.5 283.5z" />
<glyph unicode="&#x1e80;" d="M87 656q0 166 120.5 283t289.5 117q170 0 290.5 -117t120.5 -283t-120.5 -283.5t-290.5 -117.5q-169 0 -289.5 117.5t-120.5 283.5z" />
<glyph unicode="&#x1e81;" d="M87 656q0 166 120.5 283t289.5 117q170 0 290.5 -117t120.5 -283t-120.5 -283.5t-290.5 -117.5q-169 0 -289.5 117.5t-120.5 283.5z" />
<glyph unicode="&#x1e82;" d="M87 656q0 166 120.5 283t289.5 117q170 0 290.5 -117t120.5 -283t-120.5 -283.5t-290.5 -117.5q-169 0 -289.5 117.5t-120.5 283.5z" />
<glyph unicode="&#x1e83;" d="M87 656q0 166 120.5 283t289.5 117q170 0 290.5 -117t120.5 -283t-120.5 -283.5t-290.5 -117.5q-169 0 -289.5 117.5t-120.5 283.5z" />
<glyph unicode="&#x1e84;" d="M87 656q0 166 120.5 283t289.5 117q170 0 290.5 -117t120.5 -283t-120.5 -283.5t-290.5 -117.5q-169 0 -289.5 117.5t-120.5 283.5z" />
<glyph unicode="&#x1e85;" d="M87 656q0 166 120.5 283t289.5 117q170 0 290.5 -117t120.5 -283t-120.5 -283.5t-290.5 -117.5q-169 0 -289.5 117.5t-120.5 283.5z" />
<glyph unicode="&#x1ea0;" d="M87 656q0 166 120.5 283t289.5 117q170 0 290.5 -117t120.5 -283t-120.5 -283.5t-290.5 -117.5q-169 0 -289.5 117.5t-120.5 283.5z" />
<glyph unicode="&#x1ea1;" d="M87 656q0 166 120.5 283t289.5 117q170 0 290.5 -117t120.5 -283t-120.5 -283.5t-290.5 -117.5q-169 0 -289.5 117.5t-120.5 283.5z" />
<glyph unicode="&#x1ea2;" d="M87 656q0 166 120.5 283t289.5 117q170 0 290.5 -117t120.5 -283t-120.5 -283.5t-290.5 -117.5q-169 0 -289.5 117.5t-120.5 283.5z" />
<glyph unicode="&#x1ea3;" d="M87 656q0 166 120.5 283t289.5 117q170 0 290.5 -117t120.5 -283t-120.5 -283.5t-290.5 -117.5q-169 0 -289.5 117.5t-120.5 283.5z" />
<glyph unicode="&#x1ea4;" d="M87 656q0 166 120.5 283t289.5 117q170 0 290.5 -117t120.5 -283t-120.5 -283.5t-290.5 -117.5q-169 0 -289.5 117.5t-120.5 283.5z" />
<glyph unicode="&#x1ea5;" d="M87 656q0 166 120.5 283t289.5 117q170 0 290.5 -117t120.5 -283t-120.5 -283.5t-290.5 -117.5q-169 0 -289.5 117.5t-120.5 283.5z" />
<glyph unicode="&#x1ea6;" d="M87 656q0 166 120.5 283t289.5 117q170 0 290.5 -117t120.5 -283t-120.5 -283.5t-290.5 -117.5q-169 0 -289.5 117.5t-120.5 283.5z" />
<glyph unicode="&#x1ea7;" d="M87 656q0 166 120.5 283t289.5 117q170 0 290.5 -117t120.5 -283t-120.5 -283.5t-290.5 -117.5q-169 0 -289.5 117.5t-120.5 283.5z" />
<glyph unicode="&#x1ea8;" d="M87 656q0 166 120.5 283t289.5 117q170 0 290.5 -117t120.5 -283t-120.5 -283.5t-290.5 -117.5q-169 0 -289.5 117.5t-120.5 283.5z" />
<glyph unicode="&#x1ea9;" d="M87 656q0 166 120.5 283t289.5 117q170 0 290.5 -117t120.5 -283t-120.5 -283.5t-290.5 -117.5q-169 0 -289.5 117.5t-120.5 283.5z" />
<glyph unicode="&#x1eaa;" d="M87 656q0 166 120.5 283t289.5 117q170 0 290.5 -117t120.5 -283t-120.5 -283.5t-290.5 -117.5q-169 0 -289.5 117.5t-120.5 283.5z" />
<glyph unicode="&#x1eab;" d="M87 656q0 166 120.5 283t289.5 117q170 0 290.5 -117t120.5 -283t-120.5 -283.5t-290.5 -117.5q-169 0 -289.5 117.5t-120.5 283.5z" />
<glyph unicode="&#x1eac;" d="M87 656q0 166 120.5 283t289.5 117q170 0 290.5 -117t120.5 -283t-120.5 -283.5t-290.5 -117.5q-169 0 -289.5 117.5t-120.5 283.5z" />
<glyph unicode="&#x1ead;" d="M87 656q0 166 120.5 283t289.5 117q170 0 290.5 -117t120.5 -283t-120.5 -283.5t-290.5 -117.5q-169 0 -289.5 117.5t-120.5 283.5z" />
<glyph unicode="&#x1eae;" d="M87 656q0 166 120.5 283t289.5 117q170 0 290.5 -117t120.5 -283t-120.5 -283.5t-290.5 -117.5q-169 0 -289.5 117.5t-120.5 283.5z" />
<glyph unicode="&#x1eaf;" d="M87 656q0 166 120.5 283t289.5 117q170 0 290.5 -117t120.5 -283t-120.5 -283.5t-290.5 -117.5q-169 0 -289.5 117.5t-120.5 283.5z" />
<glyph unicode="&#x1eb0;" d="M87 656q0 166 120.5 283t289.5 117q170 0 290.5 -117t120.5 -283t-120.5 -283.5t-290.5 -117.5q-169 0 -289.5 117.5t-120.5 283.5z" />
<glyph unicode="&#x1eb1;" d="M87 656q0 166 120.5 283t289.5 117q170 0 290.5 -117t120.5 -283t-120.5 -283.5t-290.5 -117.5q-169 0 -289.5 117.5t-120.5 283.5z" />
<glyph unicode="&#x1eb2;" d="M87 656q0 166 120.5 283t289.5 117q170 0 290.5 -117t120.5 -283t-120.5 -283.5t-290.5 -117.5q-169 0 -289.5 117.5t-120.5 283.5z" />
<glyph unicode="&#x1eb3;" d="M87 656q0 166 120.5 283t289.5 117q170 0 290.5 -117t120.5 -283t-120.5 -283.5t-290.5 -117.5q-169 0 -289.5 117.5t-120.5 283.5z" />
<glyph unicode="&#x1eb4;" d="M87 656q0 166 120.5 283t289.5 117q170 0 290.5 -117t120.5 -283t-120.5 -283.5t-290.5 -117.5q-169 0 -289.5 117.5t-120.5 283.5z" />
<glyph unicode="&#x1eb5;" d="M87 656q0 166 120.5 283t289.5 117q170 0 290.5 -117t120.5 -283t-120.5 -283.5t-290.5 -117.5q-169 0 -289.5 117.5t-120.5 283.5z" />
<glyph unicode="&#x1eb6;" d="M87 656q0 166 120.5 283t289.5 117q170 0 290.5 -117t120.5 -283t-120.5 -283.5t-290.5 -117.5q-169 0 -289.5 117.5t-120.5 283.5z" />
<glyph unicode="&#x1eb7;" d="M87 656q0 166 120.5 283t289.5 117q170 0 290.5 -117t120.5 -283t-120.5 -283.5t-290.5 -117.5q-169 0 -289.5 117.5t-120.5 283.5z" />
<glyph unicode="&#x1eb8;" d="M87 656q0 166 120.5 283t289.5 117q170 0 290.5 -117t120.5 -283t-120.5 -283.5t-290.5 -117.5q-169 0 -289.5 117.5t-120.5 283.5z" />
<glyph unicode="&#x1eb9;" d="M87 656q0 166 120.5 283t289.5 117q170 0 290.5 -117t120.5 -283t-120.5 -283.5t-290.5 -117.5q-169 0 -289.5 117.5t-120.5 283.5z" />
<glyph unicode="&#x1eba;" d="M87 656q0 166 120.5 283t289.5 117q170 0 290.5 -117t120.5 -283t-120.5 -283.5t-290.5 -117.5q-169 0 -289.5 117.5t-120.5 283.5z" />
<glyph unicode="&#x1ebb;" d="M87 656q0 166 120.5 283t289.5 117q170 0 290.5 -117t120.5 -283t-120.5 -283.5t-290.5 -117.5q-169 0 -289.5 117.5t-120.5 283.5z" />
<glyph unicode="&#x1ebc;" d="M87 656q0 166 120.5 283t289.5 117q170 0 290.5 -117t120.5 -283t-120.5 -283.5t-290.5 -117.5q-169 0 -289.5 117.5t-120.5 283.5z" />
<glyph unicode="&#x1ebd;" d="M87 656q0 166 120.5 283t289.5 117q170 0 290.5 -117t120.5 -283t-120.5 -283.5t-290.5 -117.5q-169 0 -289.5 117.5t-120.5 283.5z" />
<glyph unicode="&#x1ebe;" d="M87 656q0 166 120.5 283t289.5 117q170 0 290.5 -117t120.5 -283t-120.5 -283.5t-290.5 -117.5q-169 0 -289.5 117.5t-120.5 283.5z" />
<glyph unicode="&#x1ebf;" d="M87 656q0 166 120.5 283t289.5 117q170 0 290.5 -117t120.5 -283t-120.5 -283.5t-290.5 -117.5q-169 0 -289.5 117.5t-120.5 283.5z" />
<glyph unicode="&#x1ec0;" d="M87 656q0 166 120.5 283t289.5 117q170 0 290.5 -117t120.5 -283t-120.5 -283.5t-290.5 -117.5q-169 0 -289.5 117.5t-120.5 283.5z" />
<glyph unicode="&#x1ec1;" d="M87 656q0 166 120.5 283t289.5 117q170 0 290.5 -117t120.5 -283t-120.5 -283.5t-290.5 -117.5q-169 0 -289.5 117.5t-120.5 283.5z" />
<glyph unicode="&#x1ec2;" d="M87 656q0 166 120.5 283t289.5 117q170 0 290.5 -117t120.5 -283t-120.5 -283.5t-290.5 -117.5q-169 0 -289.5 117.5t-120.5 283.5z" />
<glyph unicode="&#x1ec3;" d="M87 656q0 166 120.5 283t289.5 117q170 0 290.5 -117t120.5 -283t-120.5 -283.5t-290.5 -117.5q-169 0 -289.5 117.5t-120.5 283.5z" />
<glyph unicode="&#x1ec4;" d="M87 656q0 166 120.5 283t289.5 117q170 0 290.5 -117t120.5 -283t-120.5 -283.5t-290.5 -117.5q-169 0 -289.5 117.5t-120.5 283.5z" />
<glyph unicode="&#x1ec5;" d="M87 656q0 166 120.5 283t289.5 117q170 0 290.5 -117t120.5 -283t-120.5 -283.5t-290.5 -117.5q-169 0 -289.5 117.5t-120.5 283.5z" />
<glyph unicode="&#x1ec6;" d="M87 656q0 166 120.5 283t289.5 117q170 0 290.5 -117t120.5 -283t-120.5 -283.5t-290.5 -117.5q-169 0 -289.5 117.5t-120.5 283.5z" />
<glyph unicode="&#x1ec7;" d="M87 656q0 166 120.5 283t289.5 117q170 0 290.5 -117t120.5 -283t-120.5 -283.5t-290.5 -117.5q-169 0 -289.5 117.5t-120.5 283.5z" />
<glyph unicode="&#x1ec8;" d="M87 656q0 166 120.5 283t289.5 117q170 0 290.5 -117t120.5 -283t-120.5 -283.5t-290.5 -117.5q-169 0 -289.5 117.5t-120.5 283.5z" />
<glyph unicode="&#x1ec9;" d="M87 656q0 166 120.5 283t289.5 117q170 0 290.5 -117t120.5 -283t-120.5 -283.5t-290.5 -117.5q-169 0 -289.5 117.5t-120.5 283.5z" />
<glyph unicode="&#x1eca;" d="M87 656q0 166 120.5 283t289.5 117q170 0 290.5 -117t120.5 -283t-120.5 -283.5t-290.5 -117.5q-169 0 -289.5 117.5t-120.5 283.5z" />
<glyph unicode="&#x1ecb;" d="M87 656q0 166 120.5 283t289.5 117q170 0 290.5 -117t120.5 -283t-120.5 -283.5t-290.5 -117.5q-169 0 -289.5 117.5t-120.5 283.5z" />
<glyph unicode="&#x1ecc;" d="M87 656q0 166 120.5 283t289.5 117q170 0 290.5 -117t120.5 -283t-120.5 -283.5t-290.5 -117.5q-169 0 -289.5 117.5t-120.5 283.5z" />
<glyph unicode="&#x1ecd;" d="M87 656q0 166 120.5 283t289.5 117q170 0 290.5 -117t120.5 -283t-120.5 -283.5t-290.5 -117.5q-169 0 -289.5 117.5t-120.5 283.5z" />
<glyph unicode="&#x1ece;" d="M87 656q0 166 120.5 283t289.5 117q170 0 290.5 -117t120.5 -283t-120.5 -283.5t-290.5 -117.5q-169 0 -289.5 117.5t-120.5 283.5z" />
<glyph unicode="&#x1ecf;" d="M87 656q0 166 120.5 283t289.5 117q170 0 290.5 -117t120.5 -283t-120.5 -283.5t-290.5 -117.5q-169 0 -289.5 117.5t-120.5 283.5z" />
<glyph unicode="&#x1ed0;" d="M87 656q0 166 120.5 283t289.5 117q170 0 290.5 -117t120.5 -283t-120.5 -283.5t-290.5 -117.5q-169 0 -289.5 117.5t-120.5 283.5z" />
<glyph unicode="&#x1ed1;" d="M87 656q0 166 120.5 283t289.5 117q170 0 290.5 -117t120.5 -283t-120.5 -283.5t-290.5 -117.5q-169 0 -289.5 117.5t-120.5 283.5z" />
<glyph unicode="&#x1ed2;" d="M87 656q0 166 120.5 283t289.5 117q170 0 290.5 -117t120.5 -283t-120.5 -283.5t-290.5 -117.5q-169 0 -289.5 117.5t-120.5 283.5z" />
<glyph unicode="&#x1ed3;" d="M87 656q0 166 120.5 283t289.5 117q170 0 290.5 -117t120.5 -283t-120.5 -283.5t-290.5 -117.5q-169 0 -289.5 117.5t-120.5 283.5z" />
<glyph unicode="&#x1ed4;" d="M87 656q0 166 120.5 283t289.5 117q170 0 290.5 -117t120.5 -283t-120.5 -283.5t-290.5 -117.5q-169 0 -289.5 117.5t-120.5 283.5z" />
<glyph unicode="&#x1ed5;" d="M87 656q0 166 120.5 283t289.5 117q170 0 290.5 -117t120.5 -283t-120.5 -283.5t-290.5 -117.5q-169 0 -289.5 117.5t-120.5 283.5z" />
<glyph unicode="&#x1ed6;" d="M87 656q0 166 120.5 283t289.5 117q170 0 290.5 -117t120.5 -283t-120.5 -283.5t-290.5 -117.5q-169 0 -289.5 117.5t-120.5 283.5z" />
<glyph unicode="&#x1ed7;" d="M87 656q0 166 120.5 283t289.5 117q170 0 290.5 -117t120.5 -283t-120.5 -283.5t-290.5 -117.5q-169 0 -289.5 117.5t-120.5 283.5z" />
<glyph unicode="&#x1ed8;" d="M87 656q0 166 120.5 283t289.5 117q170 0 290.5 -117t120.5 -283t-120.5 -283.5t-290.5 -117.5q-169 0 -289.5 117.5t-120.5 283.5z" />
<glyph unicode="&#x1ed9;" d="M87 656q0 166 120.5 283t289.5 117q170 0 290.5 -117t120.5 -283t-120.5 -283.5t-290.5 -117.5q-169 0 -289.5 117.5t-120.5 283.5z" />
<glyph unicode="&#x1eda;" d="M87 656q0 166 120.5 283t289.5 117q170 0 290.5 -117t120.5 -283t-120.5 -283.5t-290.5 -117.5q-169 0 -289.5 117.5t-120.5 283.5z" />
<glyph unicode="&#x1edb;" d="M87 656q0 166 120.5 283t289.5 117q170 0 290.5 -117t120.5 -283t-120.5 -283.5t-290.5 -117.5q-169 0 -289.5 117.5t-120.5 283.5z" />
<glyph unicode="&#x1edc;" d="M87 656q0 166 120.5 283t289.5 117q170 0 290.5 -117t120.5 -283t-120.5 -283.5t-290.5 -117.5q-169 0 -289.5 117.5t-120.5 283.5z" />
<glyph unicode="&#x1edd;" d="M87 656q0 166 120.5 283t289.5 117q170 0 290.5 -117t120.5 -283t-120.5 -283.5t-290.5 -117.5q-169 0 -289.5 117.5t-120.5 283.5z" />
<glyph unicode="&#x1ede;" d="M87 656q0 166 120.5 283t289.5 117q170 0 290.5 -117t120.5 -283t-120.5 -283.5t-290.5 -117.5q-169 0 -289.5 117.5t-120.5 283.5z" />
<glyph unicode="&#x1edf;" d="M87 656q0 166 120.5 283t289.5 117q170 0 290.5 -117t120.5 -283t-120.5 -283.5t-290.5 -117.5q-169 0 -289.5 117.5t-120.5 283.5z" />
<glyph unicode="&#x1ee0;" d="M87 656q0 166 120.5 283t289.5 117q170 0 290.5 -117t120.5 -283t-120.5 -283.5t-290.5 -117.5q-169 0 -289.5 117.5t-120.5 283.5z" />
<glyph unicode="&#x1ee1;" d="M87 656q0 166 120.5 283t289.5 117q170 0 290.5 -117t120.5 -283t-120.5 -283.5t-290.5 -117.5q-169 0 -289.5 117.5t-120.5 283.5z" />
<glyph unicode="&#x1ee2;" d="M87 656q0 166 120.5 283t289.5 117q170 0 290.5 -117t120.5 -283t-120.5 -283.5t-290.5 -117.5q-169 0 -289.5 117.5t-120.5 283.5z" />
<glyph unicode="&#x1ee3;" d="M87 656q0 166 120.5 283t289.5 117q170 0 290.5 -117t120.5 -283t-120.5 -283.5t-290.5 -117.5q-169 0 -289.5 117.5t-120.5 283.5z" />
<glyph unicode="&#x1ee4;" d="M87 656q0 166 120.5 283t289.5 117q170 0 290.5 -117t120.5 -283t-120.5 -283.5t-290.5 -117.5q-169 0 -289.5 117.5t-120.5 283.5z" />
<glyph unicode="&#x1ee5;" d="M87 656q0 166 120.5 283t289.5 117q170 0 290.5 -117t120.5 -283t-120.5 -283.5t-290.5 -117.5q-169 0 -289.5 117.5t-120.5 283.5z" />
<glyph unicode="&#x1ee6;" d="M87 656q0 166 120.5 283t289.5 117q170 0 290.5 -117t120.5 -283t-120.5 -283.5t-290.5 -117.5q-169 0 -289.5 117.5t-120.5 283.5z" />
<glyph unicode="&#x1ee7;" d="M87 656q0 166 120.5 283t289.5 117q170 0 290.5 -117t120.5 -283t-120.5 -283.5t-290.5 -117.5q-169 0 -289.5 117.5t-120.5 283.5z" />
<glyph unicode="&#x1ee8;" d="M87 656q0 166 120.5 283t289.5 117q170 0 290.5 -117t120.5 -283t-120.5 -283.5t-290.5 -117.5q-169 0 -289.5 117.5t-120.5 283.5z" />
<glyph unicode="&#x1ee9;" d="M87 656q0 166 120.5 283t289.5 117q170 0 290.5 -117t120.5 -283t-120.5 -283.5t-290.5 -117.5q-169 0 -289.5 117.5t-120.5 283.5z" />
<glyph unicode="&#x1eea;" d="M87 656q0 166 120.5 283t289.5 117q170 0 290.5 -117t120.5 -283t-120.5 -283.5t-290.5 -117.5q-169 0 -289.5 117.5t-120.5 283.5z" />
<glyph unicode="&#x1eeb;" d="M87 656q0 166 120.5 283t289.5 117q170 0 290.5 -117t120.5 -283t-120.5 -283.5t-290.5 -117.5q-169 0 -289.5 117.5t-120.5 283.5z" />
<glyph unicode="&#x1eec;" d="M87 656q0 166 120.5 283t289.5 117q170 0 290.5 -117t120.5 -283t-120.5 -283.5t-290.5 -117.5q-169 0 -289.5 117.5t-120.5 283.5z" />
<glyph unicode="&#x1eed;" d="M87 656q0 166 120.5 283t289.5 117q170 0 290.5 -117t120.5 -283t-120.5 -283.5t-290.5 -117.5q-169 0 -289.5 117.5t-120.5 283.5z" />
<glyph unicode="&#x1eee;" d="M87 656q0 166 120.5 283t289.5 117q170 0 290.5 -117t120.5 -283t-120.5 -283.5t-290.5 -117.5q-169 0 -289.5 117.5t-120.5 283.5z" />
<glyph unicode="&#x1eef;" d="M87 656q0 166 120.5 283t289.5 117q170 0 290.5 -117t120.5 -283t-120.5 -283.5t-290.5 -117.5q-169 0 -289.5 117.5t-120.5 283.5z" />
<glyph unicode="&#x1ef0;" d="M87 656q0 166 120.5 283t289.5 117q170 0 290.5 -117t120.5 -283t-120.5 -283.5t-290.5 -117.5q-169 0 -289.5 117.5t-120.5 283.5z" />
<glyph unicode="&#x1ef1;" d="M87 656q0 166 120.5 283t289.5 117q170 0 290.5 -117t120.5 -283t-120.5 -283.5t-290.5 -117.5q-169 0 -289.5 117.5t-120.5 283.5z" />
<glyph unicode="&#x1ef2;" d="M87 656q0 166 120.5 283t289.5 117q170 0 290.5 -117t120.5 -283t-120.5 -283.5t-290.5 -117.5q-169 0 -289.5 117.5t-120.5 283.5z" />
<glyph unicode="&#x1ef3;" d="M87 656q0 166 120.5 283t289.5 117q170 0 290.5 -117t120.5 -283t-120.5 -283.5t-290.5 -117.5q-169 0 -289.5 117.5t-120.5 283.5z" />
<glyph unicode="&#x1ef4;" d="M87 656q0 166 120.5 283t289.5 117q170 0 290.5 -117t120.5 -283t-120.5 -283.5t-290.5 -117.5q-169 0 -289.5 117.5t-120.5 283.5z" />
<glyph unicode="&#x1ef5;" d="M87 656q0 166 120.5 283t289.5 117q170 0 290.5 -117t120.5 -283t-120.5 -283.5t-290.5 -117.5q-169 0 -289.5 117.5t-120.5 283.5z" />
<glyph unicode="&#x1ef6;" d="M87 656q0 166 120.5 283t289.5 117q170 0 290.5 -117t120.5 -283t-120.5 -283.5t-290.5 -117.5q-169 0 -289.5 117.5t-120.5 283.5z" />
<glyph unicode="&#x1ef7;" d="M87 656q0 166 120.5 283t289.5 117q170 0 290.5 -117t120.5 -283t-120.5 -283.5t-290.5 -117.5q-169 0 -289.5 117.5t-120.5 283.5z" />
<glyph unicode="&#x1ef8;" d="M87 656q0 166 120.5 283t289.5 117q170 0 290.5 -117t120.5 -283t-120.5 -283.5t-290.5 -117.5q-169 0 -289.5 117.5t-120.5 283.5z" />
<glyph unicode="&#x1ef9;" d="M87 656q0 166 120.5 283t289.5 117q170 0 290.5 -117t120.5 -283t-120.5 -283.5t-290.5 -117.5q-169 0 -289.5 117.5t-120.5 283.5z" />
<glyph unicode="&#x200c;" d="M87 656q0 166 120.5 283t289.5 117q170 0 290.5 -117t120.5 -283t-120.5 -283.5t-290.5 -117.5q-169 0 -289.5 117.5t-120.5 283.5z" />
<glyph unicode="&#x200d;" d="M87 656q0 166 120.5 283t289.5 117q170 0 290.5 -117t120.5 -283t-120.5 -283.5t-290.5 -117.5q-169 0 -289.5 117.5t-120.5 283.5z" />
<glyph unicode="&#x200e;" d="M87 656q0 166 120.5 283t289.5 117q170 0 290.5 -117t120.5 -283t-120.5 -283.5t-290.5 -117.5q-169 0 -289.5 117.5t-120.5 283.5z" />
<glyph unicode="&#x200f;" d="M87 656q0 166 120.5 283t289.5 117q170 0 290.5 -117t120.5 -283t-120.5 -283.5t-290.5 -117.5q-169 0 -289.5 117.5t-120.5 283.5z" />
<glyph unicode="&#x2013;" d="M87 656q0 166 120.5 283t289.5 117q170 0 290.5 -117t120.5 -283t-120.5 -283.5t-290.5 -117.5q-169 0 -289.5 117.5t-120.5 283.5z" />
<glyph unicode="&#x2014;" d="M87 656q0 166 120.5 283t289.5 117q170 0 290.5 -117t120.5 -283t-120.5 -283.5t-290.5 -117.5q-169 0 -289.5 117.5t-120.5 283.5z" />
<glyph unicode="&#x2015;" d="M87 656q0 166 120.5 283t289.5 117q170 0 290.5 -117t120.5 -283t-120.5 -283.5t-290.5 -117.5q-169 0 -289.5 117.5t-120.5 283.5z" />
<glyph unicode="&#x2017;" d="M87 656q0 166 120.5 283t289.5 117q170 0 290.5 -117t120.5 -283t-120.5 -283.5t-290.5 -117.5q-169 0 -289.5 117.5t-120.5 283.5z" />
<glyph unicode="&#x2018;" d="M87 656q0 166 120.5 283t289.5 117q170 0 290.5 -117t120.5 -283t-120.5 -283.5t-290.5 -117.5q-169 0 -289.5 117.5t-120.5 283.5z" />
<glyph unicode="&#x2019;" d="M87 656q0 166 120.5 283t289.5 117q170 0 290.5 -117t120.5 -283t-120.5 -283.5t-290.5 -117.5q-169 0 -289.5 117.5t-120.5 283.5z" />
<glyph unicode="&#x201a;" d="M87 656q0 166 120.5 283t289.5 117q170 0 290.5 -117t120.5 -283t-120.5 -283.5t-290.5 -117.5q-169 0 -289.5 117.5t-120.5 283.5z" />
<glyph unicode="&#x201b;" d="M87 656q0 166 120.5 283t289.5 117q170 0 290.5 -117t120.5 -283t-120.5 -283.5t-290.5 -117.5q-169 0 -289.5 117.5t-120.5 283.5z" />
<glyph unicode="&#x201c;" d="M87 656q0 166 120.5 283t289.5 117q170 0 290.5 -117t120.5 -283t-120.5 -283.5t-290.5 -117.5q-169 0 -289.5 117.5t-120.5 283.5z" />
<glyph unicode="&#x201d;" d="M87 656q0 166 120.5 283t289.5 117q170 0 290.5 -117t120.5 -283t-120.5 -283.5t-290.5 -117.5q-169 0 -289.5 117.5t-120.5 283.5z" />
<glyph unicode="&#x201e;" d="M87 656q0 166 120.5 283t289.5 117q170 0 290.5 -117t120.5 -283t-120.5 -283.5t-290.5 -117.5q-169 0 -289.5 117.5t-120.5 283.5z" />
<glyph unicode="&#x2020;" d="M87 656q0 166 120.5 283t289.5 117q170 0 290.5 -117t120.5 -283t-120.5 -283.5t-290.5 -117.5q-169 0 -289.5 117.5t-120.5 283.5z" />
<glyph unicode="&#x2021;" d="M87 656q0 166 120.5 283t289.5 117q170 0 290.5 -117t120.5 -283t-120.5 -283.5t-290.5 -117.5q-169 0 -289.5 117.5t-120.5 283.5z" />
<glyph unicode="&#x2022;" d="M87 656q0 166 120.5 283t289.5 117q170 0 290.5 -117t120.5 -283t-120.5 -283.5t-290.5 -117.5q-169 0 -289.5 117.5t-120.5 283.5z" />
<glyph unicode="&#x2026;" d="M87 656q0 166 120.5 283t289.5 117q170 0 290.5 -117t120.5 -283t-120.5 -283.5t-290.5 -117.5q-169 0 -289.5 117.5t-120.5 283.5z" />
<glyph unicode="&#x202a;" d="M87 656q0 166 120.5 283t289.5 117q170 0 290.5 -117t120.5 -283t-120.5 -283.5t-290.5 -117.5q-169 0 -289.5 117.5t-120.5 283.5z" />
<glyph unicode="&#x202b;" d="M87 656q0 166 120.5 283t289.5 117q170 0 290.5 -117t120.5 -283t-120.5 -283.5t-290.5 -117.5q-169 0 -289.5 117.5t-120.5 283.5z" />
<glyph unicode="&#x202c;" d="M87 656q0 166 120.5 283t289.5 117q170 0 290.5 -117t120.5 -283t-120.5 -283.5t-290.5 -117.5q-169 0 -289.5 117.5t-120.5 283.5z" />
<glyph unicode="&#x202d;" d="M87 656q0 166 120.5 283t289.5 117q170 0 290.5 -117t120.5 -283t-120.5 -283.5t-290.5 -117.5q-169 0 -289.5 117.5t-120.5 283.5z" />
<glyph unicode="&#x202e;" d="M87 656q0 166 120.5 283t289.5 117q170 0 290.5 -117t120.5 -283t-120.5 -283.5t-290.5 -117.5q-169 0 -289.5 117.5t-120.5 283.5z" />
<glyph unicode="&#x2030;" d="M87 656q0 166 120.5 283t289.5 117q170 0 290.5 -117t120.5 -283t-120.5 -283.5t-290.5 -117.5q-169 0 -289.5 117.5t-120.5 283.5z" />
<glyph unicode="&#x2032;" d="M87 656q0 166 120.5 283t289.5 117q170 0 290.5 -117t120.5 -283t-120.5 -283.5t-290.5 -117.5q-169 0 -289.5 117.5t-120.5 283.5z" />
<glyph unicode="&#x2033;" d="M87 656q0 166 120.5 283t289.5 117q170 0 290.5 -117t120.5 -283t-120.5 -283.5t-290.5 -117.5q-169 0 -289.5 117.5t-120.5 283.5z" />
<glyph unicode="&#x2039;" d="M87 656q0 166 120.5 283t289.5 117q170 0 290.5 -117t120.5 -283t-120.5 -283.5t-290.5 -117.5q-169 0 -289.5 117.5t-120.5 283.5z" />
<glyph unicode="&#x203a;" d="M87 656q0 166 120.5 283t289.5 117q170 0 290.5 -117t120.5 -283t-120.5 -283.5t-290.5 -117.5q-169 0 -289.5 117.5t-120.5 283.5z" />
<glyph unicode="&#x203c;" d="M87 656q0 166 120.5 283t289.5 117q170 0 290.5 -117t120.5 -283t-120.5 -283.5t-290.5 -117.5q-169 0 -289.5 117.5t-120.5 283.5z" />
<glyph unicode="&#x203e;" d="M87 656q0 166 120.5 283t289.5 117q170 0 290.5 -117t120.5 -283t-120.5 -283.5t-290.5 -117.5q-169 0 -289.5 117.5t-120.5 283.5z" />
<glyph unicode="&#x2044;" d="M87 656q0 166 120.5 283t289.5 117q170 0 290.5 -117t120.5 -283t-120.5 -283.5t-290.5 -117.5q-169 0 -289.5 117.5t-120.5 283.5z" />
<glyph unicode="&#x206a;" d="M87 656q0 166 120.5 283t289.5 117q170 0 290.5 -117t120.5 -283t-120.5 -283.5t-290.5 -117.5q-169 0 -289.5 117.5t-120.5 283.5z" />
<glyph unicode="&#x206b;" d="M87 656q0 166 120.5 283t289.5 117q170 0 290.5 -117t120.5 -283t-120.5 -283.5t-290.5 -117.5q-169 0 -289.5 117.5t-120.5 283.5z" />
<glyph unicode="&#x206c;" d="M87 656q0 166 120.5 283t289.5 117q170 0 290.5 -117t120.5 -283t-120.5 -283.5t-290.5 -117.5q-169 0 -289.5 117.5t-120.5 283.5z" />
<glyph unicode="&#x206d;" d="M87 656q0 166 120.5 283t289.5 117q170 0 290.5 -117t120.5 -283t-120.5 -283.5t-290.5 -117.5q-169 0 -289.5 117.5t-120.5 283.5z" />
<glyph unicode="&#x206e;" d="M87 656q0 166 120.5 283t289.5 117q170 0 290.5 -117t120.5 -283t-120.5 -283.5t-290.5 -117.5q-169 0 -289.5 117.5t-120.5 283.5z" />
<glyph unicode="&#x206f;" d="M87 656q0 166 120.5 283t289.5 117q170 0 290.5 -117t120.5 -283t-120.5 -283.5t-290.5 -117.5q-169 0 -289.5 117.5t-120.5 283.5z" />
<glyph unicode="&#x207f;" d="M87 656q0 166 120.5 283t289.5 117q170 0 290.5 -117t120.5 -283t-120.5 -283.5t-290.5 -117.5q-169 0 -289.5 117.5t-120.5 283.5z" />
<glyph unicode="&#x20a3;" d="M87 656q0 166 120.5 283t289.5 117q170 0 290.5 -117t120.5 -283t-120.5 -283.5t-290.5 -117.5q-169 0 -289.5 117.5t-120.5 283.5z" />
<glyph unicode="&#x20a4;" d="M87 656q0 166 120.5 283t289.5 117q170 0 290.5 -117t120.5 -283t-120.5 -283.5t-290.5 -117.5q-169 0 -289.5 117.5t-120.5 283.5z" />
<glyph unicode="&#x20a7;" d="M87 656q0 166 120.5 283t289.5 117q170 0 290.5 -117t120.5 -283t-120.5 -283.5t-290.5 -117.5q-169 0 -289.5 117.5t-120.5 283.5z" />
<glyph unicode="&#x20aa;" d="M87 656q0 166 120.5 283t289.5 117q170 0 290.5 -117t120.5 -283t-120.5 -283.5t-290.5 -117.5q-169 0 -289.5 117.5t-120.5 283.5z" />
<glyph unicode="&#x20ab;" d="M87 656q0 166 120.5 283t289.5 117q170 0 290.5 -117t120.5 -283t-120.5 -283.5t-290.5 -117.5q-169 0 -289.5 117.5t-120.5 283.5z" />
<glyph unicode="&#x20ac;" d="M87 656q0 166 120.5 283t289.5 117q170 0 290.5 -117t120.5 -283t-120.5 -283.5t-290.5 -117.5q-169 0 -289.5 117.5t-120.5 283.5z" />
<glyph unicode="&#x2105;" d="M87 656q0 166 120.5 283t289.5 117q170 0 290.5 -117t120.5 -283t-120.5 -283.5t-290.5 -117.5q-169 0 -289.5 117.5t-120.5 283.5z" />
<glyph unicode="&#x2113;" d="M87 656q0 166 120.5 283t289.5 117q170 0 290.5 -117t120.5 -283t-120.5 -283.5t-290.5 -117.5q-169 0 -289.5 117.5t-120.5 283.5z" />
<glyph unicode="&#x2116;" d="M87 656q0 166 120.5 283t289.5 117q170 0 290.5 -117t120.5 -283t-120.5 -283.5t-290.5 -117.5q-169 0 -289.5 117.5t-120.5 283.5z" />
<glyph unicode="&#x2122;" d="M87 656q0 166 120.5 283t289.5 117q170 0 290.5 -117t120.5 -283t-120.5 -283.5t-290.5 -117.5q-169 0 -289.5 117.5t-120.5 283.5z" />
<glyph unicode="&#x2126;" d="M87 656q0 166 120.5 283t289.5 117q170 0 290.5 -117t120.5 -283t-120.5 -283.5t-290.5 -117.5q-169 0 -289.5 117.5t-120.5 283.5z" />
<glyph unicode="&#x212e;" d="M87 656q0 166 120.5 283t289.5 117q170 0 290.5 -117t120.5 -283t-120.5 -283.5t-290.5 -117.5q-169 0 -289.5 117.5t-120.5 283.5z" />
<glyph unicode="&#x2153;" d="M87 656q0 166 120.5 283t289.5 117q170 0 290.5 -117t120.5 -283t-120.5 -283.5t-290.5 -117.5q-169 0 -289.5 117.5t-120.5 283.5z" />
<glyph unicode="&#x2154;" d="M87 656q0 166 120.5 283t289.5 117q170 0 290.5 -117t120.5 -283t-120.5 -283.5t-290.5 -117.5q-169 0 -289.5 117.5t-120.5 283.5z" />
<glyph unicode="&#x215b;" d="M87 656q0 166 120.5 283t289.5 117q170 0 290.5 -117t120.5 -283t-120.5 -283.5t-290.5 -117.5q-169 0 -289.5 117.5t-120.5 283.5z" />
<glyph unicode="&#x215c;" d="M87 656q0 166 120.5 283t289.5 117q170 0 290.5 -117t120.5 -283t-120.5 -283.5t-290.5 -117.5q-169 0 -289.5 117.5t-120.5 283.5z" />
<glyph unicode="&#x215d;" d="M87 656q0 166 120.5 283t289.5 117q170 0 290.5 -117t120.5 -283t-120.5 -283.5t-290.5 -117.5q-169 0 -289.5 117.5t-120.5 283.5z" />
<glyph unicode="&#x215e;" d="M87 656q0 166 120.5 283t289.5 117q170 0 290.5 -117t120.5 -283t-120.5 -283.5t-290.5 -117.5q-169 0 -289.5 117.5t-120.5 283.5z" />
<glyph unicode="&#x2190;" d="M87 656q0 166 120.5 283t289.5 117q170 0 290.5 -117t120.5 -283t-120.5 -283.5t-290.5 -117.5q-169 0 -289.5 117.5t-120.5 283.5z" />
<glyph unicode="&#x2191;" d="M87 656q0 166 120.5 283t289.5 117q170 0 290.5 -117t120.5 -283t-120.5 -283.5t-290.5 -117.5q-169 0 -289.5 117.5t-120.5 283.5z" />
<glyph unicode="&#x2192;" d="M87 656q0 166 120.5 283t289.5 117q170 0 290.5 -117t120.5 -283t-120.5 -283.5t-290.5 -117.5q-169 0 -289.5 117.5t-120.5 283.5z" />
<glyph unicode="&#x2193;" d="M87 656q0 166 120.5 283t289.5 117q170 0 290.5 -117t120.5 -283t-120.5 -283.5t-290.5 -117.5q-169 0 -289.5 117.5t-120.5 283.5z" />
<glyph unicode="&#x2194;" d="M87 656q0 166 120.5 283t289.5 117q170 0 290.5 -117t120.5 -283t-120.5 -283.5t-290.5 -117.5q-169 0 -289.5 117.5t-120.5 283.5z" />
</font>
</defs>
</svg>
